<?xml version="1.0" encoding="utf-8"?>
<!-- Generator: Adobe Illustrator 16.0.3, SVG Export Plug-In . SVG Version: 6.00 Build 0)  -->
<!DOCTYPE svg PUBLIC "-//W3C//DTD SVG 1.1//EN" "http://www.w3.org/Graphics/SVG/1.1/DTD/svg11.dtd">
<svg version="1.1" id="Vrstva_1" xmlns="http://www.w3.org/2000/svg" xmlns:xlink="http://www.w3.org/1999/xlink" x="0px" y="0px"
	 width="95.991px" height="94.767px" viewBox="0 0 95.991 94.767" enable-background="new 0 0 95.991 94.767" xml:space="preserve">
<path d="M-305.383-201.175c-0.759,0-1.719-0.639-2.88-1.92l-11.1-12.42l2.58-2.34l11.4,13.2l11.46-13.2l2.58,2.34l-11.04,12.42
	C-303.543-201.814-304.543-201.175-305.383-201.175z"/>
<path d="M-178.035-215.482c-0.759,0-1.719-0.639-2.88-1.92l-11.1-12.42l2.58-2.34l11.4,13.2l11.46-13.2l2.58,2.34l-11.04,12.42
	C-176.195-216.122-177.195-215.482-178.035-215.482z"/>
<path d="M-328.962-381.644c0-0.759,0.639-1.719,1.92-2.88l12.42-11.1l2.34,2.58l-13.2,11.4l13.2,11.46l-2.34,2.58l-12.42-11.04
	C-328.323-379.804-328.962-380.804-328.962-381.644z M-316.482-381.644c0-0.759,0.639-1.719,1.92-2.88l12.42-11.1l2.34,2.58
	l-13.2,11.4l13.2,11.46l-2.34,2.58l-12.42-11.04C-315.843-379.804-316.482-380.804-316.482-381.644z"/>
<path d="M-281.742-381.584l-12.96-11.46l2.22-2.46l12.36,11.04c0.439,0.4,0.919,0.9,1.44,1.5c0.32,0.52,0.48,0.98,0.48,1.38
	c0,0.76-0.64,1.72-1.92,2.88l-12.36,11.04l-2.22-2.46L-281.742-381.584z M-269.262-381.584l-12.96-11.46l2.22-2.46l12.36,11.04
	c0.439,0.4,0.919,0.9,1.44,1.5c0.32,0.52,0.48,0.98,0.48,1.38c0,0.76-0.64,1.72-1.92,2.88l-12.36,11.04l-2.22-2.46L-269.262-381.584
	z"/>
<path d="M-280.684-326.488c0-0.759,0.639-1.719,1.92-2.88l12.42-11.1l2.34,2.58l-13.2,11.4l13.2,11.46l-2.34,2.58l-12.42-11.04
	C-280.044-324.647-280.684-325.647-280.684-326.488z"/>
<path d="M-235.144-216.09l11.46-12.96l2.46,2.22l-11.04,12.36c-0.4,0.439-0.9,0.919-1.5,1.439c-0.521,0.32-0.98,0.48-1.38,0.48
	c-0.761,0-1.721-0.641-2.88-1.92l-11.04-12.36l2.46-2.22L-235.144-216.09z"/>
<path d="M-235.144-207.61l11.46-12.96l2.46,2.221l-11.04,12.359c-0.4,0.439-0.9,0.92-1.5,1.44c-0.521,0.319-0.98,0.479-1.38,0.479
	c-0.761,0-1.721-0.64-2.88-1.92l-11.04-12.359l2.46-2.221L-235.144-207.61z"/>
<path d="M-248.344-205.75h26.4v3.36h-26.4V-205.75z"/>
<path d="M-265.722-131.862l11.46-12.96l2.46,2.22l-11.04,12.36c-0.4,0.439-0.9,0.919-1.5,1.439c-0.521,0.32-0.98,0.48-1.38,0.48
	c-0.761,0-1.721-0.641-2.88-1.92l-11.04-12.36l2.46-2.22L-265.722-131.862z"/>
<path d="M-265.722-123.383l11.46-12.96l2.46,2.221l-11.04,12.359c-0.4,0.439-0.9,0.92-1.5,1.44c-0.521,0.319-0.98,0.479-1.38,0.479
	c-0.761,0-1.721-0.64-2.88-1.92l-11.04-12.359l2.46-2.221L-265.722-123.383z"/>
<path d="M-278.922-121.523h26.4v3.36h-26.4V-121.523z"/>
<path d="M-189.763-386.564h35.22v3.36h-35.22V-386.564z"/>
<path d="M-277.097-328.138h35.22v3.36h-35.22V-328.138z"/>
<path d="M-127.903-374.804l17.4-7.86l-17.4-7.32v-3.84l20.82,9.12v4.32l-20.82,9.54V-374.804z"/>
<path d="M-98.683-380.504v-4.32l20.639-9.12v3.84l-17.219,7.32l17.219,7.86v3.96L-98.683-380.504z"/>
<path d="M-59.233-368.234c-3.141-1.82-5.621-4.32-7.439-7.5c-1.822-3.18-2.73-6.71-2.73-10.59v-1.14c0-3.92,0.9-7.49,2.699-10.71
	c1.801-3.219,4.26-5.75,7.381-7.59c3.119-1.839,6.578-2.76,10.379-2.76c3.84,0,7.32,0.92,10.441,2.76
	c3.119,1.84,5.58,4.371,7.379,7.59c1.801,3.22,2.701,6.79,2.701,10.71v1.14c0,3.96-0.881,7.521-2.641,10.68
	c-1.762,3.161-4.18,5.64-7.26,7.44c-3.082,1.8-6.541,2.7-10.381,2.7C-52.585-365.504-56.095-366.414-59.233-368.234z
	 M-40.304-371.144c2.559-1.52,4.58-3.609,6.061-6.27c1.479-2.66,2.219-5.629,2.219-8.91v-1.14c0-3.32-0.75-6.33-2.25-9.03
	c-1.5-2.7-3.539-4.819-6.119-6.36c-2.58-1.539-5.451-2.31-8.609-2.31c-3.121,0-5.961,0.78-8.521,2.34
	c-2.561,1.56-4.58,3.69-6.059,6.39c-1.48,2.7-2.221,5.691-2.221,8.97v1.14c0,3.28,0.74,6.25,2.221,8.91
	c1.479,2.661,3.51,4.75,6.09,6.27c2.58,1.521,5.449,2.28,8.609,2.28S-42.864-369.624-40.304-371.144z"/>
<circle fill="none" stroke="#000000" stroke-width="3.4" stroke-miterlimit="10" cx="-158.163" cy="-221.362" r="19.842"/>
<rect x="-336.869" y="-237.085" transform="matrix(0.7071 -0.7071 0.7071 0.7071 65.8816 -298.3578)" width="19.32" height="16.759"/>
<g>
	<path d="M-77.742,33.313c-0.5-0.5-0.75-1.09-0.75-1.771c0-0.72,0.25-1.329,0.75-1.83c0.5-0.499,1.09-0.75,1.771-0.75
		c0.72,0,1.329,0.251,1.83,0.75c0.499,0.501,0.75,1.11,0.75,1.83c0,0.681-0.251,1.271-0.75,1.771c-0.501,0.5-1.11,0.75-1.83,0.75
		C-76.652,34.063-77.242,33.813-77.742,33.313z M-73.422,64.333c0.38,0.381,0.83,0.57,1.35,0.57c0.8,0,1.381-0.34,1.74-1.021
		l2.641,1.979c-0.321,0.682-0.881,1.251-1.681,1.711c-0.801,0.459-1.7,0.689-2.7,0.689c-1.6,0-2.92-0.5-3.96-1.5
		c-1.04-0.999-1.56-2.299-1.56-3.9V37.963h3.6v24.96C-73.992,63.483-73.803,63.953-73.422,64.333z"/>
</g>
<path d="M-21.542,46.437c-0.733-2.395-2.524-4.257-5.045-5.241c-3.293-1.287-6.751-2.2-10.161-3.098
	c-2.146-0.566-4.363-1.151-6.496-1.827c-4.976-1.576-10.287-4.062-11.956-10.542c-1.533-5.949-3.694-12.848-8.099-18.889
	c-0.263-0.358-0.516-0.76-0.765-1.151c-1-1.574-2.245-3.529-4.602-4.058c-0.515-0.114-1.062-0.156-1.628-0.118
	c-6.295,0.405-11.949,0.98-17.378,3.925c-6.291,3.413-12.35,8.063-18.521,14.217c-9.062,9.036-10.321,17.557-4.341,29.41
	c3.196,6.335,6.111,13.163,3.669,20.854l-0.21,0.896c-0.137,0.588-0.278,1.192-0.396,1.813c-1.537,8.222,1.194,13.745,7.501,15.157
	c1.746,0.39,3.748,0.429,5.944,0.12c2.177-0.309,4.288-0.967,6.333-1.604c1.443-0.452,2.936-0.916,4.401-1.232
	c2.048-0.443,3.601-0.473,4.591-0.071c5.45,2.226,10.771,4.866,14.797,6.918c4.289,2.183,7.917,1.721,11.157-1.366
	c2.86-2.729,1.965-5.721,1.249-8.108l-0.032-0.11c-0.126-0.422-0.257-0.854-0.359-1.276l-0.029-0.121
	c-0.652-2.676-1.326-5.444-1.77-8.179c-0.23-1.431,0.361-2.353,1.862-2.903c1.534-0.561,3.04-1.129,4.725-1.766
	c2.433-0.919,4.945-1.867,7.443-2.74c6.371-2.223,12.437-4.717,16.576-10.718C-21.302,52.05-20.739,49.064-21.542,46.437z
	 M-56.602,73.224c0.458,2.84,1.147,5.672,1.816,8.408l0.03,0.12c0.122,0.502,0.271,1.003,0.425,1.517
	c0.699,2.341,1.025,3.733-0.453,5.143c-2.336,2.23-4.657,2.462-7.778,0.871c-4.072-2.073-9.457-4.745-15.024-7.018
	c-1.57-0.646-3.616-0.668-6.329-0.084c-1.588,0.343-3.147,0.829-4.678,1.306c-1.913,0.599-3.896,1.217-5.846,1.494
	c-1.849,0.262-3.491,0.233-4.886-0.077c-4.539-1.016-6.451-5.292-5.243-11.733c0.106-0.562,0.241-1.146,0.367-1.686l0.057-0.239
	c0.043-0.188,0.087-0.375,0.105-0.478c2.761-8.724-0.545-16.462-3.859-23.032c-5.296-10.496-4.199-18.025,3.79-25.99
	c5.967-5.95,11.802-10.437,17.844-13.712c4.903-2.66,10.22-3.193,16.161-3.576c0.286-0.018,0.553,0,0.795,0.055
	c1.166,0.26,1.938,1.479,2.775,2.795c0.271,0.426,0.553,0.868,0.851,1.276c4.108,5.634,6.158,12.201,7.623,17.88
	c2.029,7.878,8.177,10.801,13.923,12.621c2.228,0.706,4.551,1.317,6.671,1.878c3.265,0.858,6.639,1.746,9.803,2.981
	c1.664,0.652,2.836,1.844,3.298,3.356c0.537,1.759,0.119,3.816-1.146,5.648c-3.636,5.269-9.227,7.552-15.122,9.609
	c-2.594,0.907-5.214,1.896-7.527,2.771l-0.251,0.094c-1.449,0.548-2.949,1.113-4.432,1.654
	C-55.65,68.106-57.056,70.405-56.602,73.224z"/>
<g>
	<path fill="#FFFFFF" d="M39.703,35.563c1.111,0,2.11-0.411,2.892-1.19c0.777-0.779,1.188-1.758,1.188-2.83
		c0-1.11-0.41-2.109-1.191-2.893c-0.779-0.777-1.778-1.188-2.889-1.188c-1.072,0-2.051,0.411-2.832,1.19
		c-0.777,0.779-1.188,1.778-1.188,2.89c0,1.074,0.411,2.053,1.189,2.831S38.629,35.563,39.703,35.563z"/>
	<path fill="#FFFFFF" d="M44.017,63.183c-0.081,0.153-0.129,0.221-0.414,0.221c-0.105,0-0.179-0.021-0.29-0.133
		c-0.084-0.083-0.13-0.164-0.13-0.348v-26.46h-6.6v26.399c0,2.019,0.68,3.694,2.02,4.981c1.324,1.273,3.007,1.919,5,1.919
		c1.259,0,2.418-0.299,3.448-0.889c1.066-0.614,1.837-1.412,2.289-2.372l0.521-1.106l-5.024-3.767L44.017,63.183z"/>
	<path fill="#FFFFFF" d="M95.567,45.997c-0.871-2.843-2.979-5.045-5.934-6.199c-3.397-1.327-6.919-2.255-10.324-3.15
		c-2.128-0.562-4.327-1.142-6.426-1.807c-4.814-1.525-9.475-3.73-10.957-9.486c-1.568-6.089-3.786-13.154-8.341-19.401
		c-0.229-0.312-0.448-0.659-0.708-1.069c-1.087-1.71-2.574-4.052-5.543-4.717c-0.659-0.146-1.361-0.196-2.05-0.151
		c-6.476,0.417-12.3,1.014-17.996,4.104c-6.42,3.482-12.591,8.217-18.866,14.473C-1.06,28.049-2.441,37.364,3.803,49.74
		c3.056,6.058,5.85,12.57,3.578,19.724l-0.256,1.073c-0.137,0.587-0.276,1.19-0.396,1.813c-1.681,8.991,1.552,15.308,8.648,16.896
		c1.913,0.427,4.107,0.474,6.482,0.142c2.291-0.325,4.458-1,6.57-1.657c1.328-0.416,2.834-0.888,4.271-1.198
		c0.979-0.212,1.824-0.319,2.511-0.319c0.64,0,1.005,0.094,1.195,0.171c5.396,2.204,10.682,4.827,14.684,6.866
		c1.977,1.006,3.887,1.516,5.679,1.516c0.001,0,0.001,0,0.001,0c2.591,0,5.011-1.054,7.193-3.134
		c3.527-3.365,2.397-7.132,1.653-9.613L65.56,81.82c-0.111-0.371-0.226-0.751-0.315-1.12l-0.03-0.124
		c-0.644-2.642-1.31-5.373-1.746-8.062c-0.09-0.56-0.093-0.894,0.896-1.256c1.539-0.563,3.05-1.133,4.74-1.771
		c2.294-0.867,4.895-1.849,7.407-2.728c6.616-2.308,12.92-4.908,17.316-11.281C95.87,52.521,96.505,49.065,95.567,45.997z
		 M57.593,73.463c0.473,2.934,1.199,5.904,1.843,8.535l0.027,0.108c0.128,0.526,0.283,1.053,0.444,1.592
		c0.716,2.395,0.709,2.903-0.052,3.628c-1.898,1.813-3.48,1.937-6.062,0.619c-4.108-2.091-9.541-4.785-15.135-7.068
		c-1.01-0.414-2.136-0.616-3.443-0.616c-1.12,0-2.354,0.148-3.772,0.454c-1.647,0.355-3.244,0.853-4.81,1.34
		c-1.852,0.579-3.767,1.179-5.607,1.44c-1.651,0.234-3.134,0.216-4.349-0.056c-4.985-1.115-4.706-6.74-4.097-9.99
		c0.103-0.541,0.232-1.104,0.354-1.619l0.083-0.355c0.028-0.123,0.055-0.24,0.074-0.334c2.886-9.226-0.537-17.266-3.976-24.081
		c-5.013-9.937-4.029-16.736,3.511-24.252c5.867-5.852,11.592-10.253,17.499-13.456c4.636-2.515,9.781-3.026,15.538-3.397
		l0.117-0.004c0.098,0,0.184,0.009,0.26,0.025c0.555,0.124,1.201,1.139,1.854,2.164c0.282,0.444,0.576,0.903,0.886,1.327
		c3.956,5.426,5.952,11.825,7.383,17.37c2.225,8.638,9.144,11.847,14.922,13.677c2.209,0.7,4.536,1.315,6.589,1.858l0.153,0.041
		c3.221,0.847,6.552,1.722,9.637,2.927c1.229,0.482,2.086,1.334,2.411,2.398c0.402,1.316,0.058,2.905-0.945,4.358
		c-3.38,4.896-8.731,7.072-14.383,9.045c-2.672,0.935-5.384,1.96-7.558,2.782l-0.256,0.096c-1.444,0.546-2.938,1.109-4.418,1.649
		C58.834,66.945,57.023,69.932,57.593,73.463z"/>
</g>
<g>
	<path d="M-178.399,34.063c1.111,0,2.11-0.411,2.892-1.19c0.777-0.779,1.188-1.758,1.188-2.83c0-1.11-0.41-2.109-1.191-2.893
		c-0.779-0.777-1.778-1.188-2.889-1.188c-1.072,0-2.051,0.411-2.832,1.19c-0.777,0.779-1.188,1.778-1.188,2.89
		c0,1.074,0.411,2.053,1.189,2.831S-179.473,34.063-178.399,34.063z"/>
	<path d="M-174.085,61.683c-0.081,0.153-0.129,0.221-0.414,0.221c-0.105,0-0.179-0.021-0.29-0.133
		c-0.084-0.083-0.13-0.164-0.13-0.348v-26.46h-6.6v26.399c0,2.019,0.68,3.694,2.02,4.981c1.324,1.273,3.007,1.919,5,1.919
		c1.259,0,2.418-0.299,3.448-0.889c1.066-0.614,1.837-1.412,2.289-2.372l0.521-1.106l-5.024-3.767L-174.085,61.683z"/>
	<path d="M-122.535,44.497c-0.871-2.843-2.979-5.045-5.934-6.199c-3.397-1.327-6.919-2.255-10.324-3.15
		c-2.128-0.562-4.327-1.142-6.426-1.807c-4.814-1.525-9.475-3.73-10.957-9.486c-1.568-6.089-3.786-13.154-8.341-19.401
		c-0.229-0.312-0.448-0.659-0.708-1.069c-1.087-1.71-2.574-4.052-5.543-4.717c-0.659-0.146-1.361-0.196-2.05-0.151
		c-6.476,0.417-12.3,1.014-17.996,4.104c-6.42,3.482-12.591,8.217-18.866,14.473c-9.482,9.457-10.864,18.772-4.62,31.148
		c3.056,6.058,5.85,12.57,3.578,19.724l-0.256,1.073c-0.137,0.587-0.276,1.19-0.396,1.813c-1.681,8.991,1.552,15.308,8.648,16.896
		c1.913,0.427,4.107,0.474,6.482,0.142c2.291-0.325,4.458-1,6.57-1.657c1.328-0.416,2.834-0.888,4.271-1.198
		c0.979-0.212,1.824-0.319,2.511-0.319c0.64,0,1.005,0.094,1.195,0.171c5.396,2.204,10.682,4.827,14.684,6.866
		c1.977,1.006,3.887,1.516,5.679,1.516c0.001,0,0.001,0,0.001,0c2.591,0,5.011-1.054,7.193-3.134
		c3.527-3.365,2.397-7.132,1.653-9.613l-0.058-0.199c-0.111-0.371-0.226-0.751-0.315-1.12l-0.03-0.124
		c-0.644-2.642-1.31-5.373-1.746-8.062c-0.09-0.56-0.093-0.894,0.896-1.256c1.539-0.563,3.05-1.133,4.74-1.771
		c2.294-0.867,4.895-1.849,7.407-2.728c6.616-2.308,12.92-4.908,17.316-11.281C-122.232,51.021-121.597,47.565-122.535,44.497z
		 M-160.509,71.963c0.473,2.934,1.199,5.904,1.843,8.535l0.027,0.108c0.128,0.526,0.283,1.053,0.444,1.592
		c0.716,2.395,0.709,2.903-0.052,3.628c-1.898,1.813-3.48,1.937-6.062,0.619c-4.108-2.091-9.541-4.785-15.135-7.068
		c-1.01-0.414-2.136-0.616-3.443-0.616c-1.12,0-2.354,0.148-3.772,0.454c-1.647,0.355-3.244,0.853-4.81,1.34
		c-1.852,0.579-3.767,1.179-5.607,1.44c-1.651,0.234-3.134,0.216-4.349-0.056c-4.985-1.115-4.706-6.74-4.097-9.99
		c0.103-0.541,0.232-1.104,0.354-1.619l0.083-0.355c0.028-0.123,0.055-0.24,0.074-0.334c2.886-9.226-0.537-17.266-3.976-24.081
		c-5.013-9.937-4.029-16.736,3.511-24.252c5.867-5.852,11.592-10.253,17.499-13.456c4.636-2.515,9.781-3.026,15.538-3.397
		l0.117-0.004c0.098,0,0.184,0.009,0.26,0.025c0.555,0.124,1.201,1.139,1.854,2.164c0.282,0.444,0.576,0.903,0.886,1.327
		c3.956,5.426,5.952,11.825,7.383,17.37c2.225,8.638,9.144,11.847,14.922,13.677c2.209,0.7,4.536,1.315,6.589,1.858l0.153,0.041
		c3.221,0.847,6.552,1.722,9.637,2.927c1.229,0.482,2.086,1.334,2.411,2.398c0.402,1.316,0.058,2.905-0.945,4.358
		c-3.38,4.896-8.731,7.072-14.383,9.045c-2.672,0.935-5.384,1.96-7.558,2.782l-0.256,0.096c-1.444,0.546-2.938,1.109-4.418,1.649
		C-159.268,65.445-161.079,68.432-160.509,71.963z"/>
</g>
</svg>
