<?xml version="1.0" encoding="utf-8"?>
<!-- Generator: Adobe Illustrator 16.0.3, SVG Export Plug-In . SVG Version: 6.00 Build 0)  -->
<!DOCTYPE svg PUBLIC "-//W3C//DTD SVG 1.1//EN" "http://www.w3.org/Graphics/SVG/1.1/DTD/svg11.dtd">
<svg version="1.1" id="Vrstva_1" xmlns="http://www.w3.org/2000/svg" xmlns:xlink="http://www.w3.org/1999/xlink" x="0px" y="0px"
	 width="232.196px" height="95.714px" viewBox="0 0 232.196 95.714" enable-background="new 0 0 232.196 95.714"
	 xml:space="preserve">
<path d="M-457.207-435.509c-0.759,0-1.719-0.639-2.88-1.92l-11.1-12.42l2.58-2.34l11.4,13.2l11.46-13.2l2.58,2.34l-11.04,12.42
	C-455.366-436.148-456.366-435.509-457.207-435.509z"/>
<path d="M-329.858-449.816c-0.759,0-1.719-0.639-2.88-1.92l-11.1-12.42l2.58-2.34l11.4,13.2l11.46-13.2l2.58,2.34l-11.04,12.42
	C-328.018-450.456-329.018-449.816-329.858-449.816z"/>
<path d="M-480.785-615.978c0-0.759,0.639-1.719,1.92-2.88l12.42-11.1l2.34,2.58l-13.2,11.4l13.2,11.46l-2.34,2.58l-12.42-11.04
	C-480.146-614.138-480.785-615.138-480.785-615.978z M-468.305-615.978c0-0.759,0.639-1.719,1.92-2.88l12.42-11.1l2.34,2.58
	l-13.2,11.4l13.2,11.46l-2.34,2.58l-12.42-11.04C-467.666-614.138-468.305-615.138-468.305-615.978z"/>
<path d="M-433.565-615.918l-12.96-11.46l2.22-2.46l12.36,11.04c0.439,0.4,0.919,0.9,1.44,1.5c0.32,0.52,0.48,0.98,0.48,1.38
	c0,0.76-0.64,1.72-1.92,2.88l-12.36,11.04l-2.22-2.46L-433.565-615.918z M-421.085-615.918l-12.96-11.46l2.22-2.46l12.36,11.04
	c0.439,0.4,0.919,0.9,1.44,1.5c0.32,0.52,0.48,0.98,0.48,1.38c0,0.76-0.64,1.72-1.92,2.88l-12.36,11.04l-2.22-2.46L-421.085-615.918
	z"/>
<path d="M-432.507-560.822c0-0.759,0.639-1.719,1.92-2.88l12.42-11.1l2.34,2.58l-13.2,11.4l13.2,11.46l-2.34,2.58l-12.42-11.04
	C-431.868-558.981-432.507-559.981-432.507-560.822z"/>
<path d="M-386.967-450.424l11.46-12.96l2.46,2.22l-11.04,12.36c-0.4,0.439-0.9,0.919-1.5,1.439c-0.521,0.32-0.98,0.48-1.38,0.48
	c-0.761,0-1.721-0.641-2.88-1.92l-11.04-12.36l2.46-2.22L-386.967-450.424z"/>
<path d="M-386.967-441.944l11.46-12.96l2.46,2.221l-11.04,12.359c-0.4,0.439-0.9,0.92-1.5,1.44c-0.521,0.319-0.98,0.479-1.38,0.479
	c-0.761,0-1.721-0.64-2.88-1.92l-11.04-12.359l2.46-2.221L-386.967-441.944z"/>
<path d="M-400.167-440.084h26.4v3.36h-26.4V-440.084z"/>
<path d="M-417.545-366.196l11.46-12.96l2.46,2.22l-11.04,12.36c-0.4,0.439-0.9,0.919-1.5,1.439c-0.521,0.32-0.98,0.48-1.38,0.48
	c-0.761,0-1.721-0.641-2.88-1.92l-11.04-12.36l2.46-2.22L-417.545-366.196z"/>
<path d="M-417.545-357.717l11.46-12.96l2.46,2.221l-11.04,12.359c-0.4,0.439-0.9,0.92-1.5,1.44c-0.521,0.319-0.98,0.479-1.38,0.479
	c-0.761,0-1.721-0.64-2.88-1.92l-11.04-12.359l2.46-2.221L-417.545-357.717z"/>
<path d="M-430.746-355.857h26.4v3.36h-26.4V-355.857z"/>
<path d="M-341.586-620.898h35.22v3.36h-35.22V-620.898z"/>
<path d="M-428.92-562.472h35.22v3.36h-35.22V-562.472z"/>
<path d="M-279.727-609.138l17.4-7.86l-17.4-7.32v-3.84l20.82,9.12v4.32l-20.82,9.54V-609.138z"/>
<path d="M-250.506-614.838v-4.32l20.639-9.12v3.84l-17.219,7.32l17.219,7.86v3.96L-250.506-614.838z"/>
<path d="M-211.057-602.568c-3.141-1.82-5.621-4.32-7.439-7.5c-1.822-3.18-2.73-6.71-2.73-10.59v-1.14c0-3.92,0.9-7.49,2.699-10.71
	c1.801-3.219,4.26-5.75,7.381-7.59c3.119-1.839,6.578-2.76,10.379-2.76c3.84,0,7.32,0.92,10.441,2.76
	c3.119,1.84,5.58,4.371,7.379,7.59c1.801,3.22,2.701,6.79,2.701,10.71v1.14c0,3.96-0.881,7.521-2.641,10.68
	c-1.762,3.161-4.18,5.64-7.26,7.44c-3.082,1.8-6.541,2.7-10.381,2.7C-204.408-599.838-207.918-600.748-211.057-602.568z
	 M-192.127-605.478c2.559-1.52,4.58-3.609,6.061-6.27c1.479-2.66,2.219-5.629,2.219-8.91v-1.14c0-3.32-0.75-6.33-2.25-9.03
	c-1.5-2.7-3.539-4.819-6.119-6.36c-2.58-1.539-5.451-2.31-8.609-2.31c-3.121,0-5.961,0.78-8.521,2.34
	c-2.561,1.56-4.58,3.69-6.059,6.39c-1.48,2.7-2.221,5.691-2.221,8.97v1.14c0,3.28,0.74,6.25,2.221,8.91
	c1.479,2.661,3.51,4.75,6.09,6.27c2.58,1.521,5.449,2.28,8.609,2.28S-194.688-603.958-192.127-605.478z"/>
<circle fill="none" stroke="#000000" stroke-width="3.4" stroke-miterlimit="10" cx="-309.986" cy="-455.696" r="19.842"/>
<rect x="-488.692" y="-471.419" transform="matrix(0.7071 -0.7071 0.7071 0.7071 187.1128 -474.3479)" width="19.32" height="16.759"/>
<g>
	<path d="M-229.565-201.021c-0.5-0.5-0.75-1.09-0.75-1.771c0-0.72,0.25-1.329,0.75-1.83c0.5-0.499,1.09-0.75,1.771-0.75
		c0.72,0,1.329,0.251,1.83,0.75c0.499,0.501,0.75,1.11,0.75,1.83c0,0.681-0.251,1.271-0.75,1.771c-0.501,0.5-1.11,0.75-1.83,0.75
		C-228.476-200.271-229.065-200.521-229.565-201.021z M-225.245-170.001c0.38,0.381,0.83,0.57,1.35,0.57
		c0.8,0,1.381-0.34,1.74-1.021l2.641,1.979c-0.321,0.682-0.881,1.251-1.681,1.711c-0.801,0.459-1.7,0.689-2.7,0.689
		c-1.6,0-2.92-0.5-3.96-1.5c-1.04-0.999-1.56-2.299-1.56-3.9v-24.899h3.6v24.96C-225.815-170.851-225.626-170.381-225.245-170.001z"
		/>
</g>
<path d="M-173.365-187.897c-0.733-2.395-2.524-4.257-5.045-5.241c-3.293-1.287-6.751-2.2-10.161-3.098
	c-2.146-0.566-4.363-1.151-6.496-1.827c-4.976-1.576-10.287-4.062-11.956-10.542c-1.533-5.949-3.694-12.848-8.099-18.889
	c-0.263-0.358-0.516-0.76-0.765-1.151c-1-1.574-2.245-3.529-4.602-4.058c-0.515-0.114-1.062-0.156-1.628-0.118
	c-6.295,0.405-11.949,0.98-17.378,3.925c-6.291,3.413-12.35,8.063-18.521,14.217c-9.062,9.036-10.321,17.557-4.341,29.41
	c3.196,6.335,6.111,13.163,3.669,20.854l-0.21,0.896c-0.137,0.588-0.278,1.192-0.396,1.813c-1.537,8.222,1.194,13.745,7.501,15.157
	c1.746,0.39,3.748,0.429,5.944,0.12c2.177-0.309,4.288-0.967,6.333-1.604c1.443-0.452,2.936-0.916,4.401-1.232
	c2.048-0.443,3.601-0.473,4.591-0.071c5.45,2.226,10.771,4.866,14.797,6.918c4.289,2.183,7.917,1.721,11.157-1.366
	c2.86-2.729,1.965-5.721,1.249-8.108l-0.032-0.11c-0.126-0.422-0.257-0.854-0.359-1.276l-0.029-0.121
	c-0.652-2.676-1.326-5.444-1.77-8.179c-0.23-1.431,0.361-2.353,1.862-2.903c1.534-0.561,3.04-1.129,4.725-1.766
	c2.433-0.919,4.945-1.867,7.443-2.74c6.371-2.223,12.437-4.717,16.576-10.718C-173.125-182.284-172.563-185.27-173.365-187.897z
	 M-208.425-161.11c0.458,2.84,1.147,5.672,1.816,8.408l0.03,0.12c0.122,0.502,0.271,1.003,0.425,1.517
	c0.699,2.341,1.025,3.733-0.453,5.143c-2.336,2.23-4.657,2.462-7.778,0.871c-4.072-2.073-9.457-4.745-15.024-7.018
	c-1.57-0.646-3.616-0.668-6.329-0.084c-1.588,0.343-3.147,0.829-4.678,1.306c-1.913,0.599-3.896,1.217-5.846,1.494
	c-1.849,0.262-3.491,0.233-4.886-0.077c-4.539-1.016-6.451-5.292-5.243-11.733c0.106-0.562,0.241-1.146,0.367-1.686l0.057-0.239
	c0.043-0.188,0.087-0.375,0.105-0.478c2.761-8.724-0.545-16.462-3.859-23.032c-5.296-10.496-4.199-18.025,3.79-25.99
	c5.967-5.95,11.802-10.437,17.844-13.712c4.903-2.66,10.22-3.193,16.161-3.576c0.286-0.018,0.553,0,0.795,0.055
	c1.166,0.26,1.938,1.479,2.775,2.795c0.271,0.426,0.553,0.868,0.851,1.276c4.108,5.634,6.158,12.201,7.623,17.88
	c2.029,7.878,8.177,10.801,13.923,12.621c2.228,0.706,4.551,1.317,6.671,1.878c3.265,0.858,6.639,1.746,9.803,2.981
	c1.664,0.652,2.836,1.844,3.298,3.356c0.537,1.759,0.119,3.816-1.146,5.648c-3.636,5.269-9.227,7.552-15.122,9.609
	c-2.594,0.907-5.214,1.896-7.527,2.771l-0.251,0.094c-1.449,0.548-2.949,1.113-4.432,1.654
	C-207.474-166.228-208.879-163.929-208.425-161.11z"/>
<g>
	<path fill="#FFFFFF" d="M-112.12-198.771c1.111,0,2.11-0.411,2.892-1.19c0.777-0.779,1.188-1.758,1.188-2.83
		c0-1.11-0.41-2.109-1.191-2.893c-0.779-0.777-1.778-1.188-2.889-1.188c-1.072,0-2.051,0.411-2.832,1.19
		c-0.777,0.779-1.188,1.778-1.188,2.89c0,1.074,0.411,2.053,1.189,2.831S-113.194-198.771-112.12-198.771z"/>
	<path fill="#FFFFFF" d="M-107.807-171.151c-0.081,0.153-0.129,0.221-0.414,0.221c-0.105,0-0.179-0.021-0.29-0.133
		c-0.084-0.083-0.13-0.164-0.13-0.348v-26.46h-6.6v26.399c0,2.019,0.68,3.694,2.02,4.981c1.324,1.273,3.007,1.919,5,1.919
		c1.259,0,2.418-0.299,3.448-0.889c1.066-0.614,1.837-1.412,2.289-2.372l0.521-1.106l-5.024-3.767L-107.807-171.151z"/>
	<path fill="#FFFFFF" d="M-56.256-188.337c-0.871-2.843-2.979-5.045-5.934-6.199c-3.397-1.327-6.919-2.255-10.324-3.15
		c-2.128-0.562-4.327-1.142-6.426-1.807c-4.814-1.525-9.475-3.73-10.957-9.486c-1.568-6.089-3.786-13.154-8.341-19.401
		c-0.229-0.312-0.448-0.659-0.708-1.069c-1.087-1.71-2.574-4.052-5.543-4.717c-0.659-0.146-1.361-0.196-2.05-0.151
		c-6.476,0.417-12.3,1.014-17.996,4.104c-6.42,3.482-12.591,8.217-18.866,14.473c-9.482,9.457-10.864,18.772-4.62,31.148
		c3.056,6.058,5.85,12.57,3.578,19.724l-0.256,1.073c-0.137,0.587-0.276,1.19-0.396,1.813c-1.681,8.991,1.552,15.308,8.648,16.896
		c1.913,0.427,4.107,0.474,6.482,0.142c2.291-0.325,4.458-1,6.57-1.657c1.328-0.416,2.834-0.888,4.271-1.198
		c0.979-0.212,1.824-0.319,2.511-0.319c0.64,0,1.005,0.094,1.195,0.171c5.396,2.204,10.682,4.827,14.684,6.866
		c1.977,1.006,3.887,1.516,5.679,1.516c0.001,0,0.001,0,0.001,0c2.591,0,5.011-1.054,7.193-3.134
		c3.527-3.365,2.397-7.132,1.653-9.613l-0.058-0.199c-0.111-0.371-0.226-0.751-0.315-1.12l-0.03-0.124
		c-0.644-2.642-1.31-5.373-1.746-8.062c-0.09-0.56-0.093-0.894,0.896-1.256c1.539-0.563,3.05-1.133,4.74-1.771
		c2.294-0.867,4.895-1.849,7.407-2.728c6.616-2.308,12.92-4.908,17.316-11.281C-55.953-181.813-55.318-185.269-56.256-188.337z
		 M-94.23-160.871c0.473,2.934,1.199,5.904,1.843,8.535l0.027,0.108c0.128,0.526,0.283,1.053,0.444,1.592
		c0.716,2.395,0.709,2.903-0.052,3.628c-1.898,1.813-3.48,1.937-6.062,0.619c-4.108-2.091-9.541-4.785-15.135-7.068
		c-1.01-0.414-2.136-0.616-3.443-0.616c-1.12,0-2.354,0.148-3.772,0.454c-1.647,0.355-3.244,0.853-4.81,1.34
		c-1.852,0.579-3.767,1.179-5.607,1.44c-1.651,0.234-3.134,0.216-4.349-0.056c-4.985-1.115-4.706-6.74-4.097-9.99
		c0.103-0.541,0.232-1.104,0.354-1.619l0.083-0.355c0.028-0.123,0.055-0.24,0.074-0.334c2.886-9.226-0.537-17.266-3.976-24.081
		c-5.013-9.937-4.029-16.736,3.511-24.252c5.867-5.852,11.592-10.253,17.499-13.456c4.636-2.515,9.781-3.026,15.538-3.397
		l0.117-0.004c0.098,0,0.184,0.009,0.26,0.025c0.555,0.124,1.201,1.139,1.854,2.164c0.282,0.444,0.576,0.903,0.886,1.327
		c3.956,5.426,5.952,11.825,7.383,17.37c2.225,8.638,9.144,11.847,14.922,13.677c2.209,0.7,4.536,1.315,6.589,1.858l0.153,0.041
		c3.221,0.847,6.552,1.722,9.637,2.927c1.229,0.482,2.086,1.334,2.411,2.398c0.402,1.316,0.058,2.905-0.945,4.358
		c-3.38,4.896-8.731,7.072-14.383,9.045c-2.672,0.935-5.384,1.96-7.558,2.782l-0.256,0.096c-1.444,0.546-2.938,1.109-4.418,1.649
		C-92.989-167.389-94.8-164.402-94.23-160.871z"/>
</g>
<g>
	<path d="M-330.222-200.271c1.111,0,2.11-0.411,2.892-1.19c0.777-0.779,1.188-1.758,1.188-2.83c0-1.11-0.41-2.109-1.191-2.893
		c-0.779-0.777-1.778-1.188-2.889-1.188c-1.072,0-2.051,0.411-2.832,1.19c-0.777,0.779-1.188,1.778-1.188,2.89
		c0,1.074,0.411,2.053,1.189,2.831S-331.296-200.271-330.222-200.271z"/>
	<path d="M-325.909-172.651c-0.081,0.153-0.129,0.221-0.414,0.221c-0.105,0-0.179-0.021-0.29-0.133
		c-0.084-0.083-0.13-0.164-0.13-0.348v-26.46h-6.6v26.399c0,2.019,0.68,3.694,2.02,4.981c1.324,1.273,3.007,1.919,5,1.919
		c1.259,0,2.418-0.299,3.448-0.889c1.066-0.614,1.837-1.412,2.289-2.372l0.521-1.106l-5.024-3.767L-325.909-172.651z"/>
	<path d="M-274.358-189.837c-0.871-2.843-2.979-5.045-5.934-6.199c-3.397-1.327-6.919-2.255-10.324-3.15
		c-2.128-0.562-4.327-1.142-6.426-1.807c-4.814-1.525-9.475-3.73-10.957-9.486c-1.568-6.089-3.786-13.154-8.341-19.401
		c-0.229-0.312-0.448-0.659-0.708-1.069c-1.087-1.71-2.574-4.052-5.543-4.717c-0.659-0.146-1.361-0.196-2.05-0.151
		c-6.476,0.417-12.3,1.014-17.996,4.104c-6.42,3.482-12.591,8.217-18.866,14.473c-9.482,9.457-10.864,18.772-4.62,31.148
		c3.056,6.058,5.85,12.57,3.578,19.724l-0.256,1.073c-0.137,0.587-0.276,1.19-0.396,1.813c-1.681,8.991,1.552,15.308,8.648,16.896
		c1.913,0.427,4.107,0.474,6.482,0.142c2.291-0.325,4.458-1,6.57-1.657c1.328-0.416,2.834-0.888,4.271-1.198
		c0.979-0.212,1.824-0.319,2.511-0.319c0.64,0,1.005,0.094,1.195,0.171c5.396,2.204,10.682,4.827,14.684,6.866
		c1.977,1.006,3.887,1.516,5.679,1.516c0.001,0,0.001,0,0.001,0c2.591,0,5.011-1.054,7.193-3.134
		c3.527-3.365,2.397-7.132,1.653-9.613l-0.058-0.199c-0.111-0.371-0.226-0.751-0.315-1.12l-0.03-0.124
		c-0.644-2.642-1.31-5.373-1.746-8.062c-0.09-0.56-0.093-0.894,0.896-1.256c1.539-0.563,3.05-1.133,4.74-1.771
		c2.294-0.867,4.895-1.849,7.407-2.728c6.616-2.308,12.92-4.908,17.316-11.281C-274.055-183.313-273.42-186.769-274.358-189.837z
		 M-312.333-162.371c0.473,2.934,1.199,5.904,1.843,8.535l0.027,0.108c0.128,0.526,0.283,1.053,0.444,1.592
		c0.716,2.395,0.709,2.903-0.052,3.628c-1.898,1.813-3.48,1.937-6.062,0.619c-4.108-2.091-9.541-4.785-15.135-7.068
		c-1.01-0.414-2.136-0.616-3.443-0.616c-1.12,0-2.354,0.148-3.772,0.454c-1.647,0.355-3.244,0.853-4.81,1.34
		c-1.852,0.579-3.767,1.179-5.607,1.44c-1.651,0.234-3.134,0.216-4.349-0.056c-4.985-1.115-4.706-6.74-4.097-9.99
		c0.103-0.541,0.232-1.104,0.354-1.619l0.083-0.355c0.028-0.123,0.055-0.24,0.074-0.334c2.886-9.226-0.537-17.266-3.976-24.081
		c-5.013-9.937-4.029-16.736,3.511-24.252c5.867-5.852,11.592-10.253,17.499-13.456c4.636-2.515,9.781-3.026,15.538-3.397
		l0.117-0.004c0.098,0,0.184,0.009,0.26,0.025c0.555,0.124,1.201,1.139,1.854,2.164c0.282,0.444,0.576,0.903,0.886,1.327
		c3.956,5.426,5.952,11.825,7.383,17.37c2.225,8.638,9.144,11.847,14.922,13.677c2.209,0.7,4.536,1.315,6.589,1.858l0.153,0.041
		c3.221,0.847,6.552,1.722,9.637,2.927c1.229,0.482,2.086,1.334,2.411,2.398c0.402,1.316,0.058,2.905-0.945,4.358
		c-3.38,4.896-8.731,7.072-14.383,9.045c-2.672,0.935-5.384,1.96-7.558,2.782l-0.256,0.096c-1.444,0.546-2.938,1.109-4.418,1.649
		C-311.091-168.889-312.902-165.902-312.333-162.371z"/>
</g>
<g>
	<path d="M105.193-360.272c1.111,0,2.11-0.411,2.892-1.19c0.777-0.779,1.188-1.758,1.188-2.83c0-1.11-0.41-2.109-1.191-2.893
		c-0.779-0.777-1.778-1.188-2.889-1.188c-1.072,0-2.051,0.411-2.832,1.19c-0.777,0.779-1.188,1.778-1.188,2.89
		c0,1.074,0.411,2.053,1.189,2.831S104.119-360.272,105.193-360.272z"/>
	<path d="M109.507-332.653c-0.081,0.153-0.129,0.221-0.414,0.221c-0.105,0-0.179-0.021-0.29-0.133
		c-0.084-0.083-0.13-0.164-0.13-0.348v-26.46h-6.6v26.399c0,2.019,0.68,3.694,2.02,4.981c1.324,1.273,3.007,1.919,5,1.919
		c1.259,0,2.418-0.299,3.448-0.889c1.066-0.614,1.837-1.412,2.289-2.372l0.521-1.106l-5.024-3.767L109.507-332.653z"/>
	<path d="M161.058-349.838c-0.871-2.843-2.979-5.045-5.934-6.199c-3.397-1.327-6.919-2.255-10.324-3.15
		c-2.128-0.562-4.327-1.142-6.426-1.807c-4.814-1.525-9.475-3.73-10.957-9.486c-1.568-6.089-3.786-13.154-8.341-19.401
		c-0.229-0.312-0.448-0.659-0.708-1.069c-1.087-1.71-2.574-4.052-5.543-4.717c-0.659-0.146-1.361-0.196-2.05-0.151
		c-6.476,0.417-12.3,1.014-17.996,4.104c-6.42,3.482-12.591,8.217-18.866,14.473c-9.482,9.457-10.864,18.772-4.62,31.148
		c3.056,6.058,5.85,12.57,3.578,19.724l-0.256,1.073c-0.137,0.587-0.276,1.19-0.396,1.813c-1.681,8.991,1.552,15.308,8.648,16.896
		c1.913,0.427,4.107,0.474,6.482,0.142c2.291-0.325,4.458-1,6.57-1.657c1.328-0.416,2.834-0.888,4.271-1.198
		c0.979-0.212,1.824-0.319,2.511-0.319c0.64,0,1.005,0.094,1.195,0.171c5.396,2.204,10.682,4.827,14.684,6.866
		c1.977,1.005,3.887,1.515,5.679,1.515c0.001,0,0.001,0,0.001,0c2.591,0,5.011-1.053,7.193-3.133
		c3.527-3.365,2.397-7.132,1.653-9.613l-0.058-0.199c-0.111-0.371-0.226-0.751-0.315-1.12l-0.03-0.124
		c-0.644-2.642-1.31-5.373-1.746-8.062c-0.09-0.56-0.093-0.894,0.896-1.256c1.539-0.563,3.05-1.133,4.74-1.771
		c2.294-0.867,4.895-1.849,7.407-2.728c6.616-2.308,12.92-4.908,17.316-11.281C161.36-343.314,161.995-346.77,161.058-349.838z
		 M123.083-322.373c0.473,2.934,1.199,5.904,1.843,8.535l0.027,0.108c0.128,0.526,0.283,1.053,0.444,1.592
		c0.716,2.395,0.709,2.903-0.052,3.628c-1.898,1.813-3.48,1.937-6.062,0.619c-4.108-2.091-9.541-4.785-15.135-7.068
		c-1.01-0.414-2.136-0.616-3.443-0.616c-1.12,0-2.354,0.148-3.772,0.454c-1.647,0.355-3.244,0.853-4.81,1.34
		c-1.852,0.579-3.767,1.179-5.607,1.44c-1.651,0.234-3.134,0.216-4.349-0.056c-4.985-1.115-4.706-6.74-4.097-9.99
		c0.103-0.541,0.232-1.104,0.354-1.619l0.083-0.355c0.028-0.123,0.055-0.24,0.074-0.334c2.886-9.226-0.537-17.266-3.976-24.081
		c-5.013-9.937-4.029-16.736,3.511-24.252c5.867-5.852,11.592-10.253,17.499-13.456c4.636-2.515,9.781-3.026,15.538-3.397
		l0.117-0.004c0.098,0,0.184,0.009,0.26,0.025c0.555,0.124,1.201,1.139,1.854,2.164c0.282,0.444,0.576,0.903,0.886,1.327
		c3.956,5.426,5.952,11.825,7.383,17.37c2.225,8.638,9.144,11.847,14.922,13.677c2.209,0.7,4.536,1.315,6.589,1.858l0.153,0.041
		c3.221,0.847,6.552,1.722,9.637,2.927c1.229,0.482,2.086,1.334,2.411,2.398c0.402,1.316,0.058,2.905-0.945,4.358
		c-3.38,4.896-8.731,7.072-14.383,9.045c-2.672,0.935-5.384,1.96-7.558,2.782l-0.256,0.096c-1.444,0.546-2.938,1.109-4.418,1.649
		C124.324-328.89,122.514-325.904,123.083-322.373z"/>
</g>
<path stroke="#000000" stroke-miterlimit="10" d="M27.895-393.046c-5.799-9.148-12.279-18.051-18.546-26.659L9.206-419.9
	c-3.083-4.238-6.272-8.62-9.332-12.969c-1.4-1.99-2.932-2.758-5.285-2.652c-2.871,0.13-5.804,0.153-8.648,0.175l-0.062,0
	c-2.229,0.018-4.534,0.036-6.808,0.107c-5.765,0.179-11.627,0.4-17.295,0.615l-0.176,0.006c-11.06,0.42-22.496,0.854-33.739,0.988
	c-22.767,0.27-45.139,3.401-64.021,6.428c-0.169,0.027-0.345,0.066-0.521,0.115c-1.45,0.404-2.956,1.513-3.579,2.636
	c-7.456,13.443-11.092,27.887-10.801,42.93c0.025,1.32,1.509,3.067,2.833,3.339l5.75,1.184c10.71,2.209,21.784,4.493,32.755,6.388
	c14.833,2.561,30.698,5.062,48.504,7.644c18.479,2.679,37.102,5.269,55.113,7.772l0.842,0.117
	c8.066,1.122,16.133,2.243,24.197,3.375c2.303,0.322,4.603,0.657,6.904,0.991l0.15,0.022c4.607,0.669,9.373,1.36,14.078,1.945
	c1.831,0.228,3.679,0.228,5.644,0.227l0.097,0c0.896,0,1.822,0,2.787,0.023l1.638,0.04l-0.534-1.539
	C43.814-366.899,35.374-381.244,27.895-393.046z M47.016-350.769c-0.39-0.001-0.774-0.001-1.152-0.002l-0.146,0
	c-1.885,0-3.667,0-5.362-0.21c-4.734-0.588-9.537-1.286-14.183-1.961c-2.304-0.335-4.607-0.669-6.914-0.993
	c-8.089-1.135-16.181-2.26-24.273-3.386l-0.77-0.107c-18.06-2.51-36.733-5.106-55.099-7.77c-17.796-2.582-33.642-5.078-48.444-7.634
	c-10.976-1.896-22.063-4.183-32.784-6.395l-5.648-1.164c-0.312-0.079-0.997-0.869-1.034-1.183
	c-0.282-14.64,3.256-28.702,10.52-41.794c0.339-0.611,1.326-1.306,2.201-1.549c0.091-0.025,0.179-0.045,0.266-0.059
	c18.799-3.014,41.064-6.132,63.688-6.4c11.322-0.135,22.748-0.569,33.797-0.989l0.404-0.015c5.591-0.212,11.371-0.431,17.053-0.606
	c2.214-0.069,4.472-0.087,6.656-0.105l0.16-0.002c2.855-0.021,5.81-0.044,8.732-0.177c1.587-0.072,2.365,0.324,3.33,1.696
	c3.132,4.45,6.367,8.895,9.497,13.196c6.248,8.583,12.709,17.459,18.463,26.538C33.149-380.519,41.23-366.821,47.016-350.769z"/>
<rect x="-116.141" y="-423.019" fill="none" width="136.5" height="67.5"/>
<text transform="matrix(1 0 0 1 -116.1406 -379.3994)" font-family="'Bellota-Regular'" font-size="60">ulož</text>
<g>
	<path d="M215.391-207.566c-5.951-17.101-14.462-31.569-22.004-43.468c-5.822-9.188-12.31-18.101-18.616-26.764l-0.252-0.348
		c-3.041-4.179-6.186-8.501-9.205-12.794c-1.815-2.578-3.994-3.648-7.011-3.497c-2.834,0.128-5.864,0.151-8.636,0.173
		c-2.225,0.018-4.524,0.036-6.854,0.107c-5.769,0.18-11.636,0.4-17.311,0.615l-0.173,0.007c-11.024,0.419-22.423,0.853-33.688,0.986
		c-22.895,0.271-45.359,3.415-64.312,6.454c-0.242,0.038-0.494,0.093-0.743,0.162c-1.979,0.552-3.905,1.995-4.792,3.594
		c-7.632,13.758-11.35,28.541-11.052,43.938c0.043,2.246,2.196,4.801,4.43,5.258l5.75,1.185c10.697,2.208,21.759,4.49,32.818,6.401
		c14.861,2.565,30.745,5.068,48.558,7.652c18.392,2.666,36.938,5.244,54.874,7.738l1.369,0.19
		c7.973,1.108,15.946,2.216,23.918,3.336c2.299,0.322,4.596,0.655,6.888,0.989l0.32,0.047c4.565,0.661,9.286,1.346,13.956,1.926
		c1.896,0.236,3.798,0.238,5.81,0.24c0.933,0.001,1.899,0.001,2.915,0.026l4.522,0.11L215.391-207.566z M204.405-209.884
		c-4.785-0.595-9.756-1.318-14.142-1.956l-0.525-0.076c-2.132-0.309-4.264-0.618-6.398-0.917
		c-8.089-1.135-16.182-2.261-24.274-3.387l-1.435-0.2c-17.796-2.474-36.198-5.031-54.424-7.676
		c-17.761-2.576-33.59-5.07-48.391-7.625c-10.918-1.886-21.956-4.162-32.722-6.383L17-239.149
		c-0.165-14.063,3.292-27.573,10.261-40.137c0.11-0.151,0.599-0.509,1.052-0.632c18.721-3.002,40.894-6.107,63.396-6.376
		c11.322-0.135,22.696-0.566,33.697-0.983l0.556-0.021c5.587-0.212,11.362-0.431,17.041-0.605c2.181-0.068,4.395-0.087,6.617-0.104
		l0.151-0.002c2.723-0.021,5.81-0.044,8.807-0.18c0.085-0.003,0.168-0.005,0.247-0.005c0.597,0,0.757,0,1.357,0.855
		c3.104,4.409,6.307,8.811,9.427,13.1l0.097,0.132c6.226,8.553,12.663,17.397,18.384,26.422
		c6.678,10.536,14.205,23.226,19.852,37.993C206.699-209.705,205.516-209.746,204.405-209.884z"/>
	<path d="M78.323-240.853c-0.216,0.334-0.362,0.334-0.48,0.334c-0.136,0-0.203-0.03-0.298-0.135
		c-0.113-0.126-0.182-0.435-0.182-0.82l0.063-26.344h-6.6l-0.063,22.375c-0.879,1.658-1.958,2.882-3.21,3.643
		c-1.335,0.812-2.979,1.223-4.891,1.223c-1.839,0-3.135-0.442-3.853-1.315c-0.788-0.956-1.188-2.411-1.188-4.325v-13.68
		c0-1.743-0.454-3.394-1.351-4.907c-0.881-1.481-1.915-2.601-3.073-3.325l-1.013-0.634l-4.374,4.375l1.198,1.056
		c1.336,1.177,2.013,3.141,2.013,5.835l0.002,12.921c0.182,3.367,1.283,5.951,3.273,7.681c1.952,1.697,4.645,2.559,8.004,2.559
		c3.485,0,6.583-1.145,9.24-3.406c0.338,0.614,0.792,1.182,1.363,1.699c1.34,1.212,2.92,1.827,4.697,1.827
		c1.169,0,2.236-0.217,3.177-0.646c0.978-0.45,1.854-1.211,2.604-2.263l0.828-1.162l-4.993-3.948L78.323-240.853z"/>
	<path d="M93.377-241.099c-0.081,0.153-0.129,0.221-0.414,0.221c-0.105,0-0.179-0.021-0.292-0.134
		c-0.083-0.083-0.128-0.162-0.128-0.347v-40.02h-6.6v39.96c0,2.019,0.68,3.694,2.02,4.98c1.323,1.273,3.006,1.919,5,1.919
		c1.259,0,2.418-0.299,3.447-0.889c1.065-0.611,1.836-1.409,2.29-2.37l0.522-1.106l-5.024-3.768L93.377-241.099z"/>
	<path d="M122.689-266.191c-2.449-1.478-5.243-2.227-8.306-2.227c-3.103,0-5.917,0.749-8.365,2.227
		c-2.445,1.477-4.387,3.55-5.77,6.162c-1.37,2.586-2.065,5.537-2.065,8.771c0,3.232,0.684,6.172,2.032,8.737
		c1.363,2.597,3.298,4.652,5.751,6.111c2.445,1.454,5.257,2.191,8.357,2.191c3.103,0,5.917-0.749,8.365-2.226
		c2.445-1.476,4.386-3.538,5.768-6.129c1.371-2.567,2.066-5.51,2.066-8.745c0-3.234-0.695-6.177-2.066-8.747
		C127.074-262.654,125.134-264.716,122.689-266.191z M114.384-262.178c1.893,0,3.519,0.437,4.97,1.335
		c1.45,0.897,2.545,2.121,3.346,3.739c0.813,1.644,1.225,3.591,1.225,5.786c0,3.331-0.868,5.93-2.653,7.944
		c-1.737,1.962-3.99,2.915-6.887,2.915c-1.934,0-3.579-0.437-5.031-1.336c-1.449-0.896-2.543-2.12-3.345-3.74
		c-0.812-1.64-1.224-3.565-1.224-5.724c0-2.162,0.414-4.112,1.229-5.796c0.801-1.653,1.894-2.893,3.339-3.789
		C110.806-261.741,112.451-262.178,114.384-262.178z"/>
	<polygon points="149.205,-268.778 159.264,-280.298 151.214,-280.298 147.076,-275.694 142.887,-280.298 134.919,-280.298 
		144.897,-268.778 	"/>
	<path d="M156.441-242.18c-1.391,0.942-2.226,1.316-2.683,1.465c-0.646,0.211-1.397,0.317-2.235,0.317
		c-2.207,0-4.248-0.351-6.063-1.041l-2.604-0.999l15.447-22.516v-2.745h-24.479v6.24h14.075l-16.955,24.772l5.544,3.657l2.532-3.961
		l4.728,1.56c4.848,1.547,9.059,1.865,12.16,0.66c1.194-0.465,2.498-1.202,3.872-2.19l1.109-0.798l-3.122-5.32L156.441-242.18z"/>
</g>
<g>
	<path fill="#FFFFFF" d="M230.111,90.167c-8.373-18.279-19.301-33.383-28.887-45.746c-7.402-9.547-15.51-18.719-23.391-27.635
		l-0.314-0.357c-3.801-4.301-7.73-8.748-11.52-13.178c-2.277-2.66-4.799-3.613-8.119-3.131c-3.119,0.439-6.467,0.783-9.527,1.098
		c-2.457,0.252-4.998,0.516-7.566,0.838c-6.359,0.805-12.822,1.664-19.072,2.496l-0.191,0.027
		c-12.145,1.619-24.699,3.295-37.139,4.625c-25.283,2.703-49.789,8.537-70.422,13.885c-0.264,0.068-0.537,0.154-0.805,0.258
		c-2.131,0.816-4.107,2.615-4.92,4.477c-6.994,16.01-9.553,32.742-7.607,49.734c0.283,2.479,2.93,5.076,5.449,5.348l6.48,0.707
		c12.057,1.316,24.527,2.68,36.955,3.631C66.213,88.521,84.037,89.62,104,90.606c20.611,1.02,41.387,1.922,61.477,2.795l1.535,0.068
		c8.93,0.389,17.861,0.777,26.791,1.178c2.576,0.115,5.148,0.242,7.719,0.371l0.359,0.02c5.115,0.252,10.406,0.512,15.631,0.664
		c2.121,0.063,4.223-0.137,6.447-0.346c1.031-0.098,2.1-0.197,3.227-0.277l5.01-0.352L230.111,90.167z M217.723,88.757
		c-5.352-0.154-10.924-0.432-15.838-0.678l-0.588-0.029c-2.391-0.115-4.779-0.234-7.172-0.34
		c-9.061-0.408-18.125-0.803-27.191-1.197l-1.607-0.07c-19.932-0.869-40.545-1.764-60.973-2.775
		c-19.904-0.984-37.666-2.08-54.297-3.352c-12.27-0.939-24.711-2.297-36.846-3.621l-5.742-0.621
		c-1.658-15.533,0.746-30.83,7.133-45.451c0.105-0.178,0.607-0.625,1.096-0.809c20.381-5.283,44.568-11.045,69.416-13.701
		c12.504-1.338,25.031-3.008,37.15-4.625l0.611-0.082c6.154-0.82,12.518-1.668,18.777-2.457c2.404-0.305,4.85-0.557,7.305-0.811
		l0.166-0.018c3.008-0.309,6.418-0.658,9.719-1.123c0.094-0.012,0.186-0.023,0.271-0.031c0.66-0.063,0.838-0.08,1.59,0.803
		c3.895,4.549,7.898,9.08,11.797,13.492l0.121,0.137c7.779,8.803,15.826,17.904,23.098,27.281
		c8.488,10.947,18.141,24.186,25.934,39.92C220.277,88.716,218.967,88.794,217.723,88.757z"/>
</g>
<g>
	<path fill="#FFFFFF" d="M208.057-59.566c-5.951-17.101-14.462-31.569-22.004-43.468c-5.822-9.188-12.31-18.101-18.616-26.764
		l-0.252-0.348c-3.041-4.179-6.186-8.501-9.205-12.794c-1.815-2.578-3.994-3.648-7.011-3.497c-2.834,0.128-5.864,0.151-8.636,0.173
		c-2.225,0.018-4.524,0.036-6.854,0.107c-5.769,0.18-11.636,0.4-17.311,0.615l-0.173,0.007c-11.024,0.419-22.423,0.853-33.688,0.986
		c-22.895,0.271-45.359,3.415-64.312,6.454c-0.242,0.038-0.494,0.093-0.743,0.162c-1.979,0.552-3.905,1.995-4.792,3.594
		C6.829-120.58,3.111-105.797,3.409-90.4c0.043,2.246,2.196,4.801,4.43,5.258l5.75,1.185c10.697,2.208,21.759,4.49,32.818,6.401
		c14.861,2.565,30.745,5.068,48.558,7.652c18.392,2.666,36.938,5.244,54.874,7.738l1.369,0.19
		c7.973,1.108,15.946,2.216,23.918,3.336c2.299,0.322,4.596,0.655,6.888,0.989l0.32,0.047c4.565,0.661,9.286,1.346,13.956,1.926
		c1.896,0.236,3.798,0.238,5.81,0.24c0.933,0.001,1.899,0.001,2.915,0.026l4.522,0.11L208.057-59.566z M197.071-61.884
		c-4.785-0.595-9.756-1.318-14.142-1.956l-0.525-0.076c-2.132-0.309-4.264-0.618-6.398-0.917
		c-8.089-1.135-16.182-2.261-24.274-3.387l-1.435-0.2c-17.796-2.474-36.198-5.031-54.424-7.676
		c-17.761-2.576-33.59-5.07-48.391-7.625c-10.918-1.886-21.956-4.162-32.722-6.383l-5.095-1.046
		c-0.165-14.063,3.292-27.573,10.261-40.137c0.11-0.151,0.599-0.509,1.052-0.632c18.721-3.002,40.894-6.107,63.396-6.376
		c11.322-0.135,22.696-0.566,33.697-0.983l0.556-0.021c5.587-0.212,11.362-0.431,17.041-0.605c2.181-0.068,4.395-0.087,6.617-0.104
		l0.151-0.002c2.723-0.021,5.81-0.044,8.807-0.18c0.085-0.003,0.168-0.005,0.247-0.005c0.597,0,0.757,0,1.357,0.855
		c3.104,4.409,6.307,8.811,9.427,13.1l0.097,0.132c6.226,8.553,12.663,17.397,18.384,26.422
		c6.678,10.536,14.205,23.226,19.852,37.993C199.365-61.705,198.182-61.746,197.071-61.884z"/>
	<path fill="#FFFFFF" d="M70.989-92.853c-0.216,0.334-0.362,0.334-0.48,0.334c-0.136,0-0.203-0.03-0.298-0.135
		c-0.113-0.126-0.182-0.435-0.182-0.82l0.063-26.344h-6.6L63.43-97.442c-0.879,1.658-1.958,2.882-3.21,3.643
		c-1.335,0.812-2.979,1.223-4.891,1.223c-1.839,0-3.135-0.442-3.853-1.315c-0.788-0.956-1.188-2.411-1.188-4.325v-13.68
		c0-1.743-0.454-3.394-1.351-4.907c-0.881-1.481-1.915-2.601-3.073-3.325l-1.013-0.634l-4.374,4.375l1.198,1.056
		c1.336,1.177,2.013,3.141,2.013,5.835l0.002,12.921c0.182,3.367,1.283,5.951,3.273,7.681c1.952,1.697,4.645,2.559,8.004,2.559
		c3.485,0,6.583-1.145,9.24-3.406c0.338,0.614,0.792,1.182,1.363,1.699c1.34,1.212,2.92,1.827,4.697,1.827
		c1.169,0,2.236-0.217,3.177-0.646c0.978-0.45,1.854-1.211,2.604-2.263l0.828-1.162l-4.993-3.948L70.989-92.853z"/>
	<path fill="#FFFFFF" d="M86.043-93.099c-0.081,0.153-0.129,0.221-0.414,0.221c-0.105,0-0.179-0.021-0.292-0.134
		c-0.083-0.083-0.128-0.162-0.128-0.347v-40.02h-6.6v39.96c0,2.019,0.68,3.694,2.02,4.98c1.323,1.273,3.006,1.919,5,1.919
		c1.259,0,2.418-0.299,3.447-0.889c1.065-0.611,1.836-1.409,2.29-2.37l0.522-1.106l-5.024-3.768L86.043-93.099z"/>
	<path fill="#FFFFFF" d="M115.355-118.191c-2.449-1.478-5.243-2.227-8.306-2.227c-3.103,0-5.917,0.749-8.365,2.227
		c-2.445,1.477-4.387,3.55-5.77,6.162c-1.37,2.586-2.065,5.537-2.065,8.771c0,3.232,0.684,6.172,2.032,8.737
		c1.363,2.597,3.298,4.652,5.751,6.111c2.445,1.454,5.257,2.191,8.357,2.191c3.103,0,5.917-0.749,8.365-2.226
		c2.445-1.476,4.386-3.538,5.768-6.129c1.371-2.567,2.066-5.51,2.066-8.745c0-3.234-0.695-6.177-2.066-8.747
		C119.74-114.654,117.8-116.716,115.355-118.191z M107.05-114.178c1.893,0,3.519,0.437,4.97,1.335
		c1.45,0.897,2.545,2.121,3.346,3.739c0.813,1.644,1.225,3.591,1.225,5.786c0,3.331-0.868,5.93-2.653,7.944
		c-1.737,1.962-3.99,2.915-6.887,2.915c-1.934,0-3.579-0.437-5.031-1.336c-1.449-0.896-2.543-2.12-3.345-3.74
		c-0.812-1.64-1.224-3.565-1.224-5.724c0-2.162,0.414-4.112,1.229-5.796c0.801-1.653,1.894-2.893,3.339-3.789
		C103.472-113.741,105.117-114.178,107.05-114.178z"/>
	<polygon fill="#FFFFFF" points="141.871,-120.778 151.93,-132.298 143.88,-132.298 139.742,-127.694 135.553,-132.298 
		127.585,-132.298 137.563,-120.778 	"/>
	<path fill="#FFFFFF" d="M149.107-94.18c-1.391,0.942-2.226,1.316-2.683,1.465c-0.646,0.211-1.397,0.317-2.235,0.317
		c-2.207,0-4.248-0.351-6.063-1.041l-2.604-0.999l15.447-22.516v-2.745h-24.479v6.24h14.075l-16.955,24.772l5.544,3.657l2.532-3.961
		l4.728,1.56c4.848,1.547,9.059,1.865,12.16,0.66c1.194-0.465,2.498-1.202,3.872-2.19l1.109-0.798l-3.122-5.32L149.107-94.18z"/>
</g>
<rect x="-480.407" y="-100.83" fill="none" width="177.666" height="122.334"/>
<text transform="matrix(1 0 0 1 -480.4072 -57.2109)"><tspan x="0" y="0" font-family="'Bellota-Regular'" font-size="60">ulož</tspan><tspan x="0" y="72" font-family="'Bellota-Bold'" font-size="60">uložit</tspan></text>
<g>
	<path fill="#FFFFFF" d="M59.549,65.544c-0.271,0.465-0.525,0.527-0.758,0.527c-0.098,0-0.332-0.01-0.414-0.105
		c-0.094-0.107-0.146-0.334-0.146-0.635v-25.42h-6.916l-0.063,21.242c-1.33,1.727-2.553,2.973-3.641,3.711
		c-1.066,0.721-2.412,1.088-4,1.088c-1.715,0-2.928-0.422-3.605-1.252c-0.727-0.893-1.094-2.254-1.094-4.049V47.667
		c-0.047-1.807-0.549-3.525-1.492-5.107c-0.947-1.586-2.01-2.715-3.16-3.359l-0.635-0.357l-4.656,4.318l0.852,0.729
		c1.439,1.236,2.17,3.281,2.17,6.082v12.266c0.088,3.332,1.201,5.895,3.307,7.617c2.055,1.684,4.752,2.537,8.014,2.537
		c2.039,0,4.041-0.387,5.953-1.15c1.268-0.51,2.334-1.164,3.186-1.961c0.348,0.625,0.842,1.199,1.482,1.717
		c1.236,1.004,2.73,1.514,4.439,1.514c1.295,0,2.525-0.338,3.66-1.008c1.137-0.674,2.021-1.605,2.627-2.77l0.416-0.799l-4.99-3.299
		L59.549,65.544z"/>
	<path fill="#FFFFFF" d="M75.775,65.604c-0.264,0.527-0.494,0.527-0.605,0.527c-0.209,0-0.289-0.068-0.35-0.133
		c-0.074-0.08-0.15-0.193-0.15-0.428V26.292h-6.92v39.1c0,2.188,0.654,3.949,1.943,5.236c1.289,1.289,3.031,1.943,5.178,1.943
		c1.389,0,2.629-0.346,3.689-1.029c1.039-0.668,1.891-1.607,2.529-2.795l0.445-0.824l-5.266-3.305L75.775,65.604z"/>
	<path fill="#FFFFFF" d="M105.057,41.073c-2.408-1.447-5.156-2.182-8.166-2.182c-3.016,0-5.764,0.746-8.17,2.217
		c-2.404,1.467-4.322,3.514-5.701,6.08c-1.373,2.555-2.068,5.449-2.068,8.604c0,3.156,0.686,6.029,2.039,8.543
		c1.359,2.529,3.268,4.545,5.674,5.992c2.406,1.449,5.154,2.184,8.166,2.184c3.01,0,5.766-0.732,8.191-2.18
		c2.428-1.447,4.35-3.477,5.711-6.029c1.352-2.535,2.037-5.418,2.037-8.57c0-3.15-0.684-6.043-2.035-8.598
		C109.373,44.563,107.463,42.524,105.057,41.073z M96.891,45.331c2.721,0,4.84,0.91,6.477,2.779
		c1.648,1.883,2.482,4.447,2.482,7.621c0,3.135-0.834,5.68-2.48,7.561c-1.639,1.871-3.758,2.779-6.479,2.779
		c-2.725,0-4.855-0.91-6.512-2.783c-1.664-1.881-2.508-4.422-2.508-7.557c0-2.076,0.389-3.926,1.158-5.502
		c0.754-1.541,1.822-2.758,3.176-3.611C93.555,45.765,95.131,45.331,96.891,45.331z"/>
	<polygon fill="#FFFFFF" points="131.346,37.651 141.672,26.591 133.105,26.591 129.17,30.958 125.236,26.591 116.74,26.591 
		126.994,37.651 	"/>
	<path fill="#FFFFFF" d="M139.436,64.169c-1.164,0.863-2.127,1.445-2.859,1.73c-0.699,0.273-1.537,0.412-2.486,0.412
		c-1.848,0-3.803-0.326-5.789-0.965l-2.367-0.828l14.797-21.617v-3.109h-24.02v6.619h13.328l-16.148,23.701l5.365,4.09l2.752-3.969
		l4.467,1.453c4.723,1.461,8.895,1.783,12.113,0.549c1.281-0.49,2.717-1.334,4.266-2.508l0.695-0.525l-3.201-5.711L139.436,64.169z"
		/>
	<path fill="#FFFFFF" d="M150.109,36.032c1.105,0,2.098-0.418,2.947-1.242c0.857-0.832,1.293-1.801,1.293-2.879
		c0-1.117-0.436-2.105-1.293-2.938c-0.852-0.824-1.842-1.242-2.947-1.242c-1.07,0-2.035,0.422-2.867,1.254
		c-0.83,0.83-1.252,1.816-1.252,2.926c0,1.072,0.422,2.037,1.252,2.867C148.072,35.61,149.037,36.032,150.109,36.032z"/>
	<path fill="#FFFFFF" d="M154.736,65.604c-0.264,0.527-0.494,0.527-0.605,0.527c-0.209,0-0.289-0.068-0.35-0.133
		c-0.074-0.08-0.15-0.193-0.15-0.428V39.853h-6.92v25.539c0,2.188,0.652,3.949,1.941,5.236c1.289,1.289,3.031,1.943,5.178,1.943
		c1.389,0,2.631-0.346,3.691-1.029c1.037-0.668,1.889-1.607,2.529-2.795l0.443-0.824l-5.266-3.305L154.736,65.604z"/>
	<path fill="#FFFFFF" d="M176.084,61.794l-0.445,1.131c-0.375,0.955-0.902,1.717-1.564,2.266c-0.621,0.512-1.375,0.762-2.305,0.762
		c-0.816,0-1.367-0.307-1.787-0.992c-0.5-0.816-0.752-1.861-0.752-3.107v-15.5h9.18v-6.441h-9.18v-7.74h-6.92v29.682
		c0,3.266,0.795,5.875,2.361,7.75c1.609,1.93,3.998,2.908,7.098,2.908c4.232,0,7.439-2.123,9.535-6.313l0.402-0.805L176.084,61.794z
		"/>
</g>
<g>
	<path fill="#FFFFFF" d="M-96.889,234.167c-8.373-18.279-19.301-33.383-28.887-45.746c-7.402-9.547-15.51-18.719-23.391-27.635
		l-0.314-0.357c-3.801-4.301-7.73-8.748-11.52-13.178c-2.277-2.66-4.799-3.613-8.119-3.131c-3.119,0.439-6.467,0.783-9.527,1.098
		c-2.457,0.252-4.998,0.516-7.566,0.838c-6.359,0.805-12.822,1.664-19.072,2.496l-0.191,0.027
		c-12.145,1.619-24.699,3.295-37.139,4.625c-25.283,2.703-49.789,8.537-70.422,13.885c-0.264,0.068-0.537,0.154-0.805,0.258
		c-2.131,0.816-4.107,2.615-4.92,4.477c-6.994,16.01-9.553,32.742-7.607,49.734c0.283,2.479,2.93,5.076,5.449,5.348l6.48,0.707
		c12.057,1.316,24.527,2.68,36.955,3.631c16.697,1.277,34.521,2.377,54.484,3.363c20.611,1.02,41.387,1.922,61.477,2.795
		l1.535,0.068c8.93,0.389,17.861,0.777,26.791,1.178c2.576,0.115,5.148,0.242,7.719,0.371l0.359,0.02
		c5.115,0.252,10.406,0.512,15.631,0.664c2.121,0.063,4.223-0.137,6.447-0.346c1.031-0.098,2.1-0.197,3.227-0.277l5.01-0.352
		L-96.889,234.167z M-109.277,232.757c-5.352-0.154-10.924-0.432-15.838-0.678l-0.588-0.029c-2.391-0.115-4.779-0.234-7.172-0.34
		c-9.061-0.408-18.125-0.803-27.191-1.197l-1.607-0.07c-19.932-0.869-40.545-1.764-60.973-2.775
		c-19.904-0.984-37.666-2.08-54.297-3.352c-12.27-0.939-24.711-2.297-36.846-3.621l-5.742-0.621
		c-1.658-15.533,0.746-30.83,7.133-45.451c0.105-0.178,0.607-0.625,1.096-0.809c20.381-5.283,44.568-11.045,69.416-13.701
		c12.504-1.338,25.031-3.008,37.15-4.625l0.611-0.082c6.154-0.82,12.518-1.668,18.777-2.457c2.404-0.305,4.85-0.557,7.305-0.811
		l0.166-0.018c3.008-0.309,6.418-0.658,9.719-1.123c0.094-0.012,0.186-0.023,0.271-0.031c0.66-0.063,0.838-0.08,1.59,0.803
		c3.895,4.549,7.898,9.08,11.797,13.492l0.121,0.137c7.779,8.803,15.826,17.904,23.098,27.281
		c8.488,10.947,18.141,24.186,25.934,39.92C-106.723,232.716-108.033,232.794-109.277,232.757z"/>
</g>
<g>
	<path fill="#FFFFFF" d="M-267.451,209.544c-0.271,0.465-0.525,0.527-0.758,0.527c-0.098,0-0.332-0.01-0.414-0.105
		c-0.094-0.107-0.146-0.334-0.146-0.635v-25.42h-6.916l-0.063,21.242c-1.33,1.727-2.553,2.973-3.641,3.711
		c-1.066,0.721-2.412,1.088-4,1.088c-1.715,0-2.928-0.422-3.605-1.252c-0.727-0.893-1.094-2.254-1.094-4.049v-12.984
		c-0.047-1.807-0.549-3.525-1.492-5.107c-0.947-1.586-2.01-2.715-3.16-3.359l-0.635-0.357l-4.656,4.318l0.852,0.729
		c1.439,1.236,2.17,3.281,2.17,6.082v12.266c0.088,3.332,1.201,5.895,3.307,7.617c2.055,1.684,4.752,2.537,8.014,2.537
		c2.039,0,4.041-0.387,5.953-1.15c1.268-0.51,2.334-1.164,3.186-1.961c0.348,0.625,0.842,1.199,1.482,1.717
		c1.236,1.004,2.73,1.514,4.439,1.514c1.295,0,2.525-0.338,3.66-1.008c1.137-0.674,2.021-1.605,2.627-2.77l0.416-0.799l-4.99-3.299
		L-267.451,209.544z"/>
	<path fill="#FFFFFF" d="M-251.225,209.604c-0.264,0.527-0.494,0.527-0.605,0.527c-0.209,0-0.289-0.068-0.35-0.133
		c-0.074-0.08-0.15-0.193-0.15-0.428v-39.279h-6.92v39.1c0,2.188,0.654,3.949,1.943,5.236c1.289,1.289,3.031,1.943,5.178,1.943
		c1.389,0,2.629-0.346,3.689-1.029c1.039-0.668,1.891-1.607,2.529-2.795l0.445-0.824l-5.266-3.305L-251.225,209.604z"/>
	<path fill="#FFFFFF" d="M-221.943,185.073c-2.408-1.447-5.156-2.182-8.166-2.182c-3.016,0-5.764,0.746-8.17,2.217
		c-2.404,1.467-4.322,3.514-5.701,6.08c-1.373,2.555-2.068,5.449-2.068,8.604c0,3.156,0.686,6.029,2.039,8.543
		c1.359,2.529,3.268,4.545,5.674,5.992c2.406,1.449,5.154,2.184,8.166,2.184c3.01,0,5.766-0.732,8.191-2.18
		c2.428-1.447,4.35-3.477,5.711-6.029c1.352-2.535,2.037-5.418,2.037-8.57c0-3.15-0.684-6.043-2.035-8.598
		C-217.627,188.563-219.537,186.524-221.943,185.073z M-230.109,189.331c2.721,0,4.84,0.91,6.477,2.779
		c1.648,1.883,2.482,4.447,2.482,7.621c0,3.135-0.834,5.68-2.48,7.561c-1.639,1.871-3.758,2.779-6.479,2.779
		c-2.725,0-4.855-0.91-6.512-2.783c-1.664-1.881-2.508-4.422-2.508-7.557c0-2.076,0.389-3.926,1.158-5.502
		c0.754-1.541,1.822-2.758,3.176-3.611C-233.445,189.765-231.869,189.331-230.109,189.331z"/>
	<polygon fill="#FFFFFF" points="-195.654,181.651 -185.328,170.591 -193.895,170.591 -197.83,174.958 -201.764,170.591 
		-210.26,170.591 -200.006,181.651 	"/>
	<path fill="#FFFFFF" d="M-187.564,208.169c-1.164,0.863-2.127,1.445-2.859,1.73c-0.699,0.273-1.537,0.412-2.486,0.412
		c-1.848,0-3.803-0.326-5.789-0.965l-2.367-0.828l14.797-21.617v-3.109h-24.02v6.619h13.328l-16.148,23.701l5.365,4.09l2.752-3.969
		l4.467,1.453c4.723,1.461,8.895,1.783,12.113,0.549c1.281-0.49,2.717-1.334,4.266-2.508l0.695-0.525l-3.201-5.711L-187.564,208.169
		z"/>
	<path fill="#FFFFFF" d="M-176.891,180.032c1.105,0,2.098-0.418,2.947-1.242c0.857-0.832,1.293-1.801,1.293-2.879
		c0-1.117-0.436-2.105-1.293-2.938c-0.852-0.824-1.842-1.242-2.947-1.242c-1.07,0-2.035,0.422-2.867,1.254
		c-0.83,0.83-1.252,1.816-1.252,2.926c0,1.072,0.422,2.037,1.252,2.867C-178.928,179.61-177.963,180.032-176.891,180.032z"/>
	<path fill="#FFFFFF" d="M-172.264,209.604c-0.264,0.527-0.494,0.527-0.605,0.527c-0.209,0-0.289-0.068-0.35-0.133
		c-0.074-0.08-0.15-0.193-0.15-0.428v-25.719h-6.92v25.539c0,2.188,0.652,3.949,1.941,5.236c1.289,1.289,3.031,1.943,5.178,1.943
		c1.389,0,2.631-0.346,3.691-1.029c1.037-0.668,1.889-1.607,2.529-2.795l0.443-0.824l-5.266-3.305L-172.264,209.604z"/>
	<path fill="#FFFFFF" d="M-150.916,205.794l-0.445,1.131c-0.375,0.955-0.902,1.717-1.564,2.266
		c-0.621,0.512-1.375,0.762-2.305,0.762c-0.816,0-1.367-0.307-1.787-0.992c-0.5-0.816-0.752-1.861-0.752-3.107v-15.5h9.18v-6.441
		h-9.18v-7.74h-6.92v29.682c0,3.266,0.795,5.875,2.361,7.75c1.609,1.93,3.998,2.908,7.098,2.908c4.232,0,7.439-2.123,9.535-6.313
		l0.402-0.805L-150.916,205.794z"/>
</g>
</svg>
