<?xml version="1.0" encoding="utf-8"?>
<!-- Generator: Adobe Illustrator 16.0.3, SVG Export Plug-In . SVG Version: 6.00 Build 0)  -->
<!DOCTYPE svg PUBLIC "-//W3C//DTD SVG 1.1//EN" "http://www.w3.org/Graphics/SVG/1.1/DTD/svg11.dtd">
<svg version="1.1" id="Vrstva_1" xmlns="http://www.w3.org/2000/svg" xmlns:xlink="http://www.w3.org/1999/xlink" x="0px" y="0px"
	 width="446.723px" height="399.381px" viewBox="0 0 446.723 399.381" enable-background="new 0 0 446.723 399.381"
	 xml:space="preserve">
<path fill="#EDEDED" d="M491.423-263.838c-1.165-2.081-3.191-3.443-5.706-3.836c-3.135-0.489-6.328-0.611-9.416-0.729
	c-1.971-0.075-4.009-0.153-5.986-0.327c-4.713-0.417-9.432-1.512-12.026-6.67c-2.498-4.962-5.73-10.64-10.766-15.128
	c-0.289-0.257-0.567-0.54-0.865-0.842c-1.229-1.246-2.757-2.795-5.094-2.795c-0.516,0-1.043,0.079-1.564,0.235
	c-5.423,1.607-10.254,3.239-14.456,6.957c-2.695,2.384-5.247,5.11-7.706,8.202c-0.28-0.118-0.553-0.254-0.837-0.363
	c-4.668-1.784-10.13-2.124-15.98-0.999c-1.685,0.324-3.455,0.527-5.169,0.723c-1.316,0.149-2.808,0.318-4.257,0.554l-0.344,0.054
	c-1.483,0.235-3.329,0.528-4.616,1.687c-2.917,2.628-5.198,5.099-6.976,7.551c-1.585,2.186-2.81,4.838-3.449,7.47
	c-0.646,2.661-0.262,6.524,5.243,9.818c1.134,0.679,2.275,1.396,3.46,2.139c3.833,2.408,7.787,4.881,12.228,6.416
	c-2.809,1.578-5.185,3.468-7.129,5.645c-4.393,4.918-6.566,11.306-6.339,18.974c0.046,1.555,0.123,3.112,0.221,4.67
	c0.22,3.469,0.552,6.929,0.906,10.347c0.123,1.192,0.248,2.384,0.373,3.565l0.02,0.184c0.22,2.065,0.439,4.13,0.64,6.196
	c0.099,1.017,0.807,2.093,1.684,2.698c0.03,0.021,0.062,0.034,0.092,0.054c0.118,0.076,0.236,0.149,0.358,0.207
	c0.001,0.001,0.003,0.001,0.005,0.002c0.151,0.071,0.305,0.128,0.459,0.166c1.552,0.385,3.056,0.719,4.53,1.018
	c3.792,0.769,7.342,1.255,10.711,1.467c1.311,0.082,2.598,0.131,3.858,0.131l0,0c0,0,0,0,0,0c6.024,0,11.606-0.932,16.943-2.809
	c1.494-0.525,2.973-1.112,4.433-1.789c5.982-2.774,9.821-5.96,12.831-10.65l0.507-0.785c0.758-1.176,1.521-2.362,2.229-3.578
	c0.021-0.036,0.043-0.072,0.064-0.108c0.071-0.123,0.139-0.247,0.208-0.371c1.363-2.403,2.486-4.936,2.904-7.76
	c0.087-0.587,0.134-1.19,0.155-1.804c0.422-0.073,0.811-0.105,1.132-0.049c5.121,0.879,10.231,2.15,14.11,3.159
	c4.295,1.121,7.601-0.1,9.891-3.576c2.088-3.172,0.604-5.858-0.479-7.821c-0.204-0.368-0.408-0.737-0.583-1.094l-0.054-0.113
	c-1.079-2.212-2.193-4.499-3.103-6.807c-0.298-0.754-0.396-1.567,0.881-2.4c1.25-0.815,2.494-1.643,3.737-2.472
	c1.927-1.284,3.92-2.612,5.915-3.871c5.151-3.249,9.98-6.678,12.451-12.88C492.79-258.71,492.688-261.575,491.423-263.838z
	 M444.047-222.009c0.032,0.465,0.068,0.94,0.113,1.442c0.001,0.005,0.001,0.01,0.002,0.016c-0.135,0.06-0.267,0.113-0.404,0.178
	c-1.349,0.634-2.667,1.405-3.844,2.094c-1.526,0.892-3.105,1.813-4.692,2.42c-1.494,0.571-2.867,0.861-4.079,0.861
	c-5.27,0-6.246-5.549-6.359-8.858c-0.018-0.506-0.013-1.025-0.007-1.538l0.002-0.666c0.133-1.591,0.078-3.104-0.124-4.548
	c4.277-0.499,8.575-1.949,10.666-7.576c0.147-0.398,0.954-1.013,1.492-1.423l0.273-0.21c0.193-0.149,0.373-0.314,0.562-0.469
	c2.038,1.508,3.536,3.668,4.579,6.579c0.031,0.087,0.069,0.163,0.1,0.25c0.012,0.033,0.021,0.072,0.031,0.105
	c0.404,1.194,0.736,2.507,0.997,3.957c0.087,0.479,0.159,0.965,0.222,1.456c0.104,0.815,0.176,1.645,0.238,2.474
	c0.05,0.665,0.095,1.33,0.136,1.987l0.015,0.222c0.014,0.218,0.029,0.44,0.043,0.66C444.021-222.4,444.033-222.207,444.047-222.009z
	 M393.561-193.478c-1.334-0.271-2.693-0.571-4.096-0.917c-0.035-0.039-0.066-0.087-0.097-0.132
	c-0.014-0.021-0.034-0.043-0.044-0.061c-0.005-0.054-0.012-0.108-0.017-0.162c-0.199-2.028-0.414-4.057-0.637-6.148
	c-0.153-1.442-0.308-2.897-0.457-4.359c-0.006-0.062-0.013-0.122-0.02-0.184c-0.081-0.795-0.152-1.596-0.228-2.394
	c-0.07-0.736-0.146-1.47-0.21-2.208c-0.045-0.52-0.077-1.04-0.119-1.561c-0.081-1.013-0.167-2.025-0.231-3.037
	c-0.005-0.083-0.007-0.166-0.012-0.249c-0.089-1.444-0.163-2.887-0.205-4.321c-0.058-1.942,0.072-3.785,0.363-5.536
	c1.272-7.658,5.84-13.454,13.454-17c0.326,0.203,0.652,0.404,0.978,0.606l0.346,0.215c1.937,1.206,3.939,2.452,5.948,3.629
	c2.329,1.367,4.725,2.669,7.12,3.87c1.466,0.736,2.96,1.387,4.402,2.015l0.334,0.146c0.303,0.132,0.603,0.266,0.904,0.398
	c0.269,1.45,0.368,2.971,0.228,4.586l-0.009,0.86c-0.005,0.552-0.01,1.122,0.009,1.686c0.262,7.679,3.954,12.263,9.876,12.263
	c1.644,0,3.438-0.367,5.334-1.093c1.854-0.71,3.557-1.704,5.223-2.677c0.792-0.464,1.607-0.923,2.429-1.357
	c-0.576,3.622-2.598,6.763-4.851,10.257l-0.504,0.78c-2.625,4.09-6.019,6.889-11.35,9.36c-6.198,2.874-12.706,4.271-19.897,4.271
	C403.238-191.93,398.632-192.444,393.561-193.478z M405.327-243.623c1.332-0.653,2.545-1.38,3.6-2.192
	c0.817-0.628,1.651-1.151,2.502-1.575c0.777,1.255,1.674,2.523,2.719,3.815c2.06,2.547,4.073,5.227,5.443,8.215
	c-0.884-0.393-1.766-0.795-2.618-1.223c-2.349-1.179-4.676-2.444-6.919-3.762c-1.692-0.993-3.394-2.044-5.088-3.098
	C405.09-243.5,405.206-243.563,405.327-243.623z M416.882-245.795c-0.754-0.933-1.419-1.841-2.013-2.736
	c2.516-0.44,5.171-0.084,7.978,1.074c4.536,1.872,8.251,3.575,11.523,5.277c-0.894,0.692-1.898,1.549-2.349,2.763
	c-1.271,3.422-3.335,4.827-8.167,5.341C422.41-238.618,419.604-242.429,416.882-245.795z M437.232-244.655
	c-1.137-0.612-2.321-1.222-3.57-1.834c-0.087-0.043-0.17-0.085-0.258-0.128c-0.474-0.231-0.961-0.462-1.454-0.695
	c-0.072-0.034-0.14-0.067-0.212-0.102c-1.096-0.514-2.245-1.034-3.45-1.563c-0.045-0.02-0.088-0.04-0.134-0.06
	c-0.164-0.072-0.338-0.146-0.505-0.218c-1.105-0.48-2.25-0.967-3.461-1.467c-0.685-0.283-1.366-0.519-2.044-0.722
	c-0.162-0.049-0.324-0.097-0.485-0.141c-2.972-0.812-5.862-0.86-8.609-0.153c-2.597-5.603-1.858-10.81,2.112-17.14
	c1.225-1.954,2.469-3.77,3.732-5.486c1.605,0.855,3.183,1.822,4.728,2.786c1.239,0.773,2.52,1.573,3.818,2.31
	c0.778,0.442,1.564,0.918,2.324,1.379c2.064,1.251,4.198,2.545,6.544,3.407c3.102,1.138,5.557,3.103,7.505,6.006
	c0.46,0.688,0.641,2.217,0.345,2.923C442.222-250.924,439.978-247.4,437.232-244.655z M401.166-245.825
	c-0.365-0.267-0.82-0.598-1.434-0.771c-4.65-1.322-8.867-3.97-12.944-6.53l-0.094-0.059c-1.125-0.706-2.285-1.435-3.439-2.126
	c-3.969-2.376-3.971-4.534-3.627-5.949c0.535-2.197,1.556-4.409,2.877-6.23c1.631-2.25,3.751-4.541,6.482-7.001
	c0.513-0.462,1.84-0.671,2.816-0.825l0.344-0.056c1.338-0.217,2.729-0.376,4.1-0.534c1.779-0.204,3.619-0.414,5.436-0.763
	c2.051-0.395,4.047-0.594,5.933-0.594c2.875,0,5.57,0.47,8.018,1.389c-1.167,1.615-2.317,3.314-3.45,5.121
	c-4.565,7.279-5.397,13.646-2.424,20.257c-1.019,0.515-2.011,1.142-2.975,1.882c-1.34,1.031-2.99,1.927-4.904,2.663
	c-0.192,0.074-0.369,0.159-0.558,0.234C401.27-245.752,401.223-245.784,401.166-245.825z M488.434-257.289
	c-2.08,5.221-6.417,8.279-11.057,11.204c-2.004,1.264-4.002,2.595-5.989,3.919l-0.261,0.173c-1.146,0.763-2.295,1.527-3.447,2.28
	c-2.419,1.576-3.255,4.063-2.236,6.651c0.959,2.437,2.105,4.787,3.213,7.058l0.05,0.103c0.199,0.409,0.423,0.817,0.672,1.269
	c1.037,1.877,1.497,2.838,0.62,4.169c-1.09,1.656-2.336,2.395-4.039,2.395c-0.609,0-1.292-0.097-2.029-0.288
	c-3.932-1.024-9.121-2.316-14.399-3.224c-0.595-0.102-1.23-0.108-1.918-0.021c-0.017-0.215-0.031-0.434-0.047-0.649
	c-0.033-0.483-0.071-0.966-0.102-1.449c-0.13-2.067-0.264-4.204-0.644-6.322c-0.602-3.336-1.545-6.097-2.865-8.364
	c-1.002-1.72-2.222-3.154-3.68-4.328c2.822-2.981,5.137-6.711,7.128-11.469c0.749-1.786,0.448-4.594-0.67-6.261
	c-2.376-3.543-5.39-5.948-9.215-7.353c-2.02-0.742-4.008-1.946-5.932-3.111c-0.787-0.479-1.601-0.971-2.411-1.43
	c-1.263-0.716-2.558-1.526-3.7-2.24c-1.428-0.892-2.887-1.792-4.392-2.621c2.177-2.674,4.427-5.042,6.788-7.131
	c3.66-3.238,8.109-4.733,13.121-6.219c0.208-0.061,0.4-0.092,0.572-0.092c0.863,0,1.7,0.847,2.593,1.75
	c0.334,0.338,0.68,0.687,1.027,0.997c4.592,4.094,7.613,9.416,9.962,14.081c3.399,6.755,9.728,8.142,14.86,8.595
	c2.065,0.183,4.147,0.262,6.161,0.339c2.979,0.112,6.058,0.229,9.008,0.689c1.425,0.223,2.555,0.961,3.18,2.077
	C489.098-260.785,489.127-259.027,488.434-257.289z"/>
<rect x="543.624" y="-269.244" fill="none" width="51" height="41.333"/>
<text transform="matrix(1 0 0 1 543.624 -260.7236)"><tspan x="0" y="0" font-family="'MyriadPro-Regular'" font-size="12">3px </tspan><tspan x="0" y="14.4" font-family="'MyriadPro-Regular'" font-size="12">pridano</tspan></text>
<path fill="#DADADA" d="M320.915-162.066c-0.902-14.127-4.292-26.826-7.488-37.387c-2.476-8.17-5.51-16.268-8.446-24.104
	c-1.459-3.896-2.969-7.928-4.385-11.902c-0.799-2.236-2.163-3.467-4.423-3.986c-2.198-0.504-4.398-1.098-6.527-1.67l-0.161-0.043
	c-1.665-0.448-3.382-0.909-5.084-1.326c-4.368-1.068-8.814-2.123-13.124-3.146l-0.334-0.078c-3.431-0.814-6.915-1.646-10.407-2.49
	c0.552-3.381,1.041-6.77,1.515-10.079l0.24-1.677c0.146-1.011-0.109-2.79-1.406-3.545c-2.07-1.21-4.193-2.391-6.247-3.533
	c-1.398-0.777-2.796-1.554-4.186-2.345l-0.375-0.212c-1.247-0.706-2.424-1.373-3.401-2.184c-3.302-2.736-7.106-4.376-11.308-4.874
	c-1.581-0.185-4.161,1.07-4.868,2.85c-0.922,2.323-1.558,4.731-2.173,7.061l-0.368,1.386c-0.806,2.991-1.596,5.985-2.388,8.979
	c-10.608-1.926-20.892-3.221-30.151-4.263c-1.662-0.191-3.714,0.505-4.807,1.613c-8.638,8.757-14.541,19.107-17.545,30.757
	c-0.42,1.627,0.621,3.9,2.143,4.68l4.113,2.107c7.638,3.92,15.535,7.971,23.445,11.711c3.292,1.557,6.673,3.133,10.139,4.732
	c-0.899,4.135-1.824,8.336-2.785,12.467c-1.444,6.213-3.164,12.494-4.827,18.57l-0.645,2.355c-0.613,2.248-0.048,3.895,1.833,5.336
	c0.79,0.605,1.655,1.029,2.491,1.441c2.08,1.021,2.749,1.471,2.702,2.891c-0.069,2.209,2.912,2.701,2.94,2.705l1.054,0.168
	c1.801,0.291,3.663,0.592,5.562,0.686c0.875,0.043,1.769,0.127,2.667,0.213c1.363,0.129,2.773,0.262,4.167,0.262c0,0,0,0,0,0
	c1.641,0,3.036-0.191,4.264-0.582c3.496-1.115,6.692-2.941,9.783-4.709c1.167-0.666,2.332-1.332,3.511-1.957
	c1.053-0.561,2.15-2.18,1.989-3.434l0.825-9.004c0.01-0.119,0.156-0.463,0.253-0.689c0.187-0.438,0.419-0.984,0.528-1.615
	c0.156-0.898,0.195-1.768,0.232-2.607c0.034-0.752,0.065-1.461,0.18-2.113c0.213-1.215,0.479-2.453,0.741-3.666
	c9.488,4.141,18.909,8.223,27.529,11.957c6.066,2.629,12.133,5.258,18.197,7.893c1.612,0.699,3.22,1.408,4.829,2.117l0.405,0.178
	c3.311,1.457,6.734,2.965,10.139,4.381c1.412,0.59,2.846,0.988,4.38,1.414l0.116,0.031c0.653,0.182,1.328,0.369,2.03,0.582
	l3.112,0.945L320.915-162.066z M232.079-264.251l0.38-1.434c0.565-2.137,1.148-4.345,1.94-6.376
	c0.151-0.129,0.445-0.292,0.624-0.345c3.308,0.422,6.31,1.735,8.927,3.903c1.263,1.046,2.658,1.837,4.015,2.607l0.374,0.212
	c1.4,0.796,2.809,1.579,4.216,2.362l0.199,0.111c1.735,0.966,3.523,1.96,5.269,2.97l-0.2,1.39c-0.454,3.167-0.922,6.407-1.445,9.635
	c-3.683-0.907-7.365-1.833-11.007-2.798c-5.201-1.378-10.426-2.549-15.598-3.564C230.538-258.47,231.3-261.361,232.079-264.251z
	 M249.67-232.994c2.667,1.119,3.985,3.734,3.359,6.662c-0.366,1.711-0.738,3.42-1.109,5.131l-0.065,0.299
	c-1.017,4.668-2.168,9.959-3.132,15.053c-0.404,2.127-0.628,4.273-0.853,6.43c-0.164,1.568-0.333,3.189-0.577,4.742
	c-0.004,0.027-0.01,0.055-0.015,0.082c-2.537-1.111-5.071-2.223-7.587-3.33c-7.741-3.408-14.967-6.65-21.837-9.799
	c0.027-0.125,0.055-0.252,0.081-0.375c1.198-5.531,2.437-11.252,3.744-16.85c1.099-4.703,2.403-9.469,3.665-14.078l0.026-0.096
	c0.596-2.171,1.19-4.342,1.768-6.516l1.474-5.574c5.176,1.012,10.403,2.181,15.597,3.557c3.778,1.002,7.593,1.961,11.405,2.897
	c-0.012,0.063-0.022,0.13-0.034,0.193c-0.051,0.271-0.569,0.964-1.179,1.365c-2.401,1.579-4.996,3.71-6.039,7.548l-0.51,1.9
	L249.67-232.994z M181.305-225.533l-3.771-1.932c0,0-0.001-0.002-0.001-0.002c2.83-10.742,8.314-20.293,16.292-28.383
	c0.129-0.108,0.616-0.309,1.026-0.309l0.06,0.002c9.073,1.021,19.137,2.288,29.498,4.156l-1.395,5.272
	c-0.575,2.165-1.167,4.325-1.759,6.487c-1.281,4.676-2.606,9.512-3.73,14.326c-1.271,5.445-2.474,10.984-3.638,16.361
	c-3.125-1.443-6.186-2.873-9.181-4.289C196.845-217.559,188.964-221.604,181.305-225.533z M246.311-189.701
	c-0.305,1.398-0.619,2.844-0.878,4.316c-0.162,0.928-0.203,1.846-0.239,2.658c-0.031,0.703-0.063,1.428-0.174,2.072
	c-0.025,0.148-0.15,0.439-0.251,0.676c-0.231,0.541-0.519,1.215-0.578,2l-0.841,9.178c-0.001,0-0.001,0.002-0.002,0.004
	c-1.121,0.6-2.236,1.236-3.349,1.873c-2.897,1.656-5.893,3.369-8.964,4.35c-0.8,0.254-1.776,0.377-2.983,0.377
	c-0.675,0-1.415-0.035-2.395-0.117c-0.452-0.039-0.906-0.082-1.382-0.125c-0.955-0.092-1.905-0.18-2.833-0.225
	c-1.628-0.076-3.338-0.354-5.056-0.631l-0.547-0.088c-0.561-3.133-3.172-4.414-4.977-5.299c-0.678-0.332-1.319-0.648-1.78-1
	c-0.305-0.234-0.396-0.346-0.402-0.346c-0.001-0.039,0.002-0.18,0.089-0.498l0.656-2.398c1.668-6.094,3.393-12.396,4.854-18.682
	c0.902-3.881,1.775-7.832,2.598-11.607c6.599,3.018,13.545,6.135,20.99,9.412c2.824,1.244,5.672,2.492,8.522,3.738
	C246.362-189.943,246.337-189.82,246.311-189.701z M313.218-165.951c-3.344-1.393-6.726-2.881-9.997-4.32l-0.498-0.219
	c-1.604-0.707-3.208-1.414-4.815-2.113c-5.47-2.377-10.943-4.748-16.416-7.121l-1.784-0.771c-8.885-3.85-18.621-8.066-28.416-12.346
	c0.071-0.393,0.152-0.781,0.214-1.178c0.265-1.68,0.441-3.377,0.612-5.018c0.218-2.088,0.423-4.061,0.795-6.023
	c0.942-4.977,2.04-10.025,3.103-14.91c0.397-1.824,0.794-3.648,1.185-5.475c0.914-4.277-0.732-8.305-4.153-10.553
	c0.791-1.504,2.075-2.582,3.701-3.652c1.176-0.771,2.662-2.307,3.015-4.098c3.399,0.822,6.789,1.631,10.128,2.423l0.514,0.122
	c4.244,1.008,8.62,2.045,12.918,3.098c1.69,0.414,3.399,0.873,5.145,1.344c2.067,0.557,4.41,1.188,6.69,1.711
	c0.714,0.164,0.879,0.268,1.177,1.104c1.448,4.061,3.023,8.264,4.412,11.975c2.911,7.768,5.921,15.801,8.351,23.824
	c2.873,9.488,5.912,20.752,7.056,33.17C315.115-165.273,314.129-165.574,313.218-165.951z"/>
<path fill="#FFFFFF" d="M998.265,375.761c-2.845-44.654-13.557-84.835-23.66-118.25c-7.83-25.89-17.458-51.625-26.769-76.512
	l-0.231-0.621c-4.569-12.222-9.294-24.859-13.73-37.33c-2.138-6.002-5.621-9.154-11.648-10.542
	c-6.975-1.604-14.033-3.508-20.858-5.349l-0.148-0.041c-5.366-1.446-10.915-2.941-16.451-4.298
	c-13.996-3.429-28.222-6.811-41.979-10.081l-0.426-0.102c-12.225-2.905-24.188-5.754-36.103-8.649
	c2.038-12.147,3.847-24.734,5.307-34.896l0.789-5.488c0.348-2.389-0.307-6.419-2.847-7.896c-6.573-3.831-13.331-7.578-19.904-11.223
	c-4.376-2.426-8.9-4.934-13.341-7.452l-1.187-0.671c-3.929-2.219-7.991-4.513-11.345-7.279
	c-10.022-8.28-21.564-13.242-34.304-14.749c-0.26-0.03-0.53-0.046-0.81-0.046c-3.775,0-9.676,3.234-11.178,7.01
	c-2.865,7.198-4.868,14.751-6.807,22.063l-0.07,0.266c-0.368,1.389-0.736,2.777-1.111,4.163c-2.674,9.899-5.3,19.761-8.395,31.429
	c-36.532-6.762-71.893-11.09-98.678-14.11c-4.232-0.473-9.799,1.403-12.513,4.161c-27.027,27.446-45.498,59.876-54.898,96.389
	c-0.934,3.627,1.681,9.31,5.087,11.056l13.025,6.688c24.252,12.461,49.33,25.347,74.479,37.257l34.578,15.756
	c-3.466,15.922-6.428,29.322-9.547,42.704c-4.603,19.738-10.07,39.653-15.358,58.912l-2.124,7.744
	c-1.589,5.802-0.244,9.689,4.645,13.42c2.25,1.718,4.854,2.992,7.379,4.229c5.998,2.937,10.735,5.257,10.506,12.321
	c-0.123,3.973,6.453,5.163,6.528,5.176c1.129,0.175,2.258,0.356,3.387,0.538l0.125,0.021c5.608,0.9,11.408,1.831,17.229,2.116
	c2.822,0.137,5.783,0.416,8.681,0.689c4.263,0.4,8.67,0.814,12.95,0.814c4.879,0,8.993-0.553,12.575-1.69
	c10.816-3.441,20.86-9.163,30.573-14.696c3.683-2.099,7.491-4.268,11.27-6.268c1.691-0.894,2.968-2.204,4.138-3.405
	c0.419-0.43,0.837-0.86,1.274-1.256l4.271-3.854l-4.982-1.151l2.498-27.157c0.069-0.92,0.554-2.054,1.074-3.272
	c0.579-1.359,1.179-2.765,1.459-4.383c0.461-2.658,0.58-5.306,0.694-7.865c0.111-2.502,0.217-4.865,0.62-7.156
	c0.79-4.474,1.771-8.974,2.722-13.325l0.494-2.278c30.902,13.52,61.465,26.781,91.035,39.611l3.095,1.343
	c18.25,7.919,36.498,15.838,54.739,23.781c5.316,2.313,10.617,4.652,15.923,6.994l0.392,0.173
	c10.616,4.683,21.593,9.524,32.501,14.069c4.311,1.799,8.787,3.042,13.525,4.358l0.255,0.07c2.14,0.596,4.353,1.211,6.639,1.907
	l5.288,1.61L998.265,375.761z M668.514,239.315l70.502,32.127c9.921,4.374,19.863,8.741,29.806,13.096
	c-0.265,1.23-0.531,2.458-0.797,3.678c-0.962,4.416-1.956,8.983-2.764,13.551c-0.475,2.699-0.597,5.399-0.716,8.028
	c-0.104,2.351-0.214,4.781-0.602,7.012c-0.146,0.841-0.589,1.879-1.022,2.896c-0.674,1.574-1.438,3.358-1.587,5.344l-2.841,30.875
	c-0.272,0.222-0.52,0.391-0.748,0.513c-3.89,2.057-7.878,4.329-11.47,6.376c-9.399,5.354-19.118,10.892-29.249,14.111
	c-2.886,0.919-6.333,1.366-10.538,1.366c-2.251,0-4.696-0.12-7.929-0.389c-1.453-0.122-2.905-0.259-4.361-0.396l-0.188-0.018
	c-2.881-0.269-5.859-0.547-8.769-0.689c-5.379-0.256-10.904-1.143-16.252-2.002l-0.243-0.038c-1.173-0.19-2.345-0.379-3.52-0.563
	c-0.193-0.03-0.468-0.112-0.764-0.228c-0.583-9.934-8.176-13.65-14.303-16.648c-2.323-1.138-4.517-2.212-6.236-3.524
	c-2.724-2.078-3.074-3.068-2.207-6.231l2.11-7.698c5.308-19.328,10.796-39.314,15.436-59.21
	C662.516,266.699,665.75,252.004,668.514,239.315z M698.902,87.35c-1.735,6.55-3.472,13.101-5.214,19.647
	c-1.82,6.832-3.728,13.773-5.572,20.485l-0.039,0.144c-4.081,14.849-8.301,30.203-11.874,45.457
	c-4.206,17.949-8.179,36.249-12.022,53.949l-0.458,2.109c-11.342-5.239-22.398-10.408-32.882-15.372
	c-25.112-11.893-50.206-24.789-74.475-37.261l-12.734-6.537c-0.394-0.296-1.2-1.97-1.219-2.515
	c9.064-35.161,26.871-66.4,52.927-92.858c1.144-1.161,4.088-2.162,6.179-1.922c26.504,2.987,61.477,7.265,97.582,13.925
	L698.902,87.35z M670.947,228.122c3.814-17.56,7.758-35.717,11.924-53.496c3.545-15.126,7.744-30.405,11.808-45.194
	c1.556-5.658,3.687-13.408,5.627-20.692c1.608-6.035,3.208-12.073,4.808-18.11l0.73-2.758c18.924,3.634,36.218,7.548,52.839,11.959
	c11.814,3.135,24.776,6.427,39.599,10.058l-0.145,0.832c-0.167,0.97-0.335,1.939-0.514,2.904c-0.404,2.187-3.027,5.096-5.226,6.537
	c-7.49,4.909-14.838,10.979-17.856,22.062l-0.867,3.203l3.086,1.288c9.914,4.144,15.021,14.182,12.707,24.979
	c-1.158,5.396-2.334,10.788-3.509,16.179l-0.267,1.221c-3.399,15.575-6.915,31.682-9.946,47.651
	c-1.263,6.651-1.972,13.431-2.659,20.004c-0.528,5.063-1.075,10.298-1.882,15.418c-0.224,1.413-0.485,2.905-0.831,4.725
	c-9.439-4.136-18.867-8.277-28.254-12.416c-25.813-11.382-49.384-21.983-72.031-32.397L670.947,228.122z M805.582,62.633
	l-0.797,5.525c-1.51,10.515-3.217,22.393-5.19,34.203c-14.621-3.585-27.368-6.823-38.939-9.894
	c-16.646-4.417-33.946-8.339-52.854-11.981c2.654-10.005,5.48-20.632,8.264-30.931c0.395-1.45,0.778-2.903,1.163-4.354l0.03-0.116
	c1.884-7.107,3.831-14.457,6.55-21.287c0.279-0.704,3.266-2.7,4.863-2.7h0.023c11.379,1.359,21.693,5.806,30.661,13.216
	c3.82,3.154,8.143,5.593,12.321,7.951l1.195,0.677c4.385,2.487,8.674,4.868,13.423,7.499l0.163,0.092
	c6.252,3.466,12.712,7.049,18.987,10.691C805.549,61.612,805.642,62.219,805.582,62.633z M777.967,273.221
	c0.825-5.236,1.382-10.564,1.926-15.767c0.672-6.421,1.366-13.061,2.579-19.449c3.016-15.879,6.524-31.956,9.918-47.505l0.156-0.721
	c1.212-5.555,2.424-11.109,3.614-16.667c2.826-13.169-2.753-25.43-14.242-31.491c2.817-7.487,8.498-12.01,14.246-15.78
	c3.488-2.285,7.374-6.568,8.193-10.985c0.164-0.886,0.317-1.777,0.472-2.669l0.117-0.676c11.558,2.808,22.997,5.531,35.636,8.534
	l0.98,0.233c13.542,3.22,27.546,6.55,41.373,9.938c5.367,1.314,10.796,2.776,16.046,4.19l0.381,0.103
	c6.875,1.855,13.983,3.773,21.14,5.42c3.536,0.813,4.858,2.03,6.151,5.662c4.563,12.82,9.363,25.656,14.007,38.069
	c9.271,24.782,18.856,50.408,26.61,76.045c9.521,31.481,19.669,69.253,22.964,111.109c-0.468-0.131-0.933-0.26-1.395-0.389
	l-0.368-0.102c-4.493-1.25-8.736-2.43-12.607-4.043c-10.972-4.573-22.043-9.458-32.749-14.182
	c-5.313-2.345-10.628-4.688-15.956-7.01c-18.041-7.854-36.095-15.688-54.146-23.524l-3.696-1.604
	c-30.146-13.08-61.31-26.603-92.512-40.257C777.288,277.242,777.66,275.165,777.967,273.221z"/>
<path fill="#FFFFFF" d="M443.132,114.923c-4.034-7.102-11.084-11.756-19.851-13.104c-12.02-1.85-24.372-2.314-36.347-2.766
	l-0.146-0.006c-7.69-0.29-15.642-0.591-23.376-1.264c-18.43-1.605-38.738-6.121-49.627-27.442
	c-9.603-18.802-22.012-40.301-41.245-57.195c-1.179-1.033-2.373-2.227-3.527-3.383C264.431,5.187,259.237,0,251.535,0
	c-1.674,0-3.404,0.257-5.139,0.765c-20.769,6.068-39.252,12.217-55.128,26.058c-10.801,9.417-20.848,20.005-30.697,32.351
	c-1.815-0.799-3.361-1.437-4.82-1.988c-10.83-4.094-22.784-6.17-35.532-6.17c-8.031,0-16.462,0.831-25.059,2.469
	c-6.746,1.283-13.746,2.073-20.553,2.842c-5.379,0.609-10.941,1.239-16.401,2.115l-1.361,0.215c-5.625,0.885-12,1.887-16.276,5.7
	C29.348,74.367,20.585,83.749,13.782,93.036c-5.943,8.11-10.539,17.958-12.94,27.729c-3.291,13.404,3.086,24.966,18.954,34.364
	c4.56,2.7,9.147,5.552,13.583,8.311c16.305,10.134,33.159,20.607,52.392,26.189c-37.923,18.908-57.266,51.566-55.971,94.586
	c0.172,5.727,0.455,11.598,0.863,17.951l0.087,1.227c0.171,2.581,0.352,5.162,0.552,7.741c1.161,14.951,2.781,29.94,4.35,44.462
	l0.686,6.362c0.584,5.44,1.267,11.863,1.896,18.253c0.06,0.606,0.217,1.266,0.466,1.958c1.215,3.371,4.363,6.548,7.167,7.231
	c11.963,2.924,23.493,5.227,34.269,6.846c14.035,2.108,26.997,3.134,39.628,3.134h0.002c29.661,0,56.546-5.694,82.193-17.408
	c22.776-10.405,37.366-22.322,48.785-39.846l2.371-3.629c6.366-9.729,12.949-19.788,16.975-30.855
	c2.614-7.188,3.902-14.15,3.928-21.256c2.672-0.603,4.983-0.749,6.856-0.434c20.158,3.413,40.158,8.319,55.329,12.213
	c3.75,0.962,7.306,1.449,10.57,1.449c10.17-0.001,18.136-4.523,24.354-13.826c7.056-10.559,2.033-19.519-2.001-26.714l-0.064-0.116
	c-0.788-1.407-1.604-2.863-2.311-4.295l-0.197-0.399c-4.238-8.569-8.622-17.43-12.202-26.388c-2.164-5.414-0.622-9.713,4.716-13.142
	c4.765-3.062,9.438-6.127,14.677-9.569c7.515-4.933,15.286-10.033,23.031-14.847c19.611-12.187,37.983-25.025,47.256-47.964
	C447.911,132.76,447.584,122.762,443.132,114.923z M347.83,230.484c3.665,9.173,8.118,18.179,12.435,26.908l0.19,0.386
	c0.789,1.595,1.656,3.144,2.493,4.638l0.051,0.093c3.883,6.928,6.95,12.399,2.287,19.376c-4.875,7.297-10.777,10.695-18.572,10.695
	c-2.661,0-5.611-0.41-8.767-1.219c-15.293-3.925-35.468-8.873-55.902-12.335c-1.051-0.177-2.164-0.267-3.309-0.267
	c-1.591,0-3.304,0.174-5.107,0.518c-0.074-0.679-0.15-1.288-0.232-1.854c-0.151-1.731-0.281-3.461-0.401-5.179
	c-0.128-1.828-0.245-3.655-0.36-5.458c-0.159-2.484-0.322-4.996-0.513-7.518c-0.342-4.537-0.874-10.508-1.959-16.452
	c-1.274-6.97-3.003-13.409-5.141-19.14c-4.772-12.793-11.724-22.386-21.23-29.287c11.423-11.426,20.871-26.182,28.862-45.065
	c2.5-5.905,1.439-15.573-2.314-21.112c-8.873-13.099-20.117-21.983-34.376-27.163c-8.185-2.975-16.114-7.728-23.783-12.324
	c-3.03-1.817-6.164-3.696-9.317-5.469c-4.9-2.753-9.833-5.799-14.604-8.745c-6.432-3.973-13.681-8.449-21.169-12.248
	c9.247-11.453,18.674-21.322,28.791-30.144c14.796-12.9,32.522-18.778,52.483-24.611c1.098-0.321,2.165-0.484,3.17-0.484
	c4.792,0,8.726,3.927,12.533,7.728c1.239,1.237,2.521,2.517,3.84,3.676c18.34,16.108,30.322,36.897,39.623,55.108
	c12.448,24.38,34.926,29.477,55.273,31.246c7.886,0.688,15.883,0.989,23.616,1.281l0.264,0.011
	c11.734,0.44,23.867,0.896,35.53,2.688c6.601,1.016,11.862,4.437,14.813,9.632c3.385,5.958,3.564,13.731,0.493,21.327
	c-8.478,20.979-25.864,33.083-44.451,44.632c-7.977,4.958-15.767,10.074-23.299,15.022l-0.84,0.55
	c-4.469,2.933-9.09,5.965-13.659,8.9C347.131,214.055,344.419,221.949,347.83,230.484z M172.025,229.139
	c-5.521-2.379-11.231-4.84-16.683-7.548c-9.193-4.563-18.353-9.491-27.227-14.647c-7.968-4.626-15.858-9.487-23.527-14.214
	c-1.107-0.683-2.215-1.362-3.323-2.041l-0.167-0.103c0.093-0.036,0.187-0.072,0.281-0.107c5.242-1.985,10.105-4.281,14.455-6.824
	c2.615-1.529,5.084-3.171,7.338-4.881c3.752-2.841,7.671-5.21,11.664-7.051c3.35,5.712,7.4,11.441,12.363,17.488
	c9.245,11.265,19.477,24.503,24.854,39.939L172.025,229.139z M154.447,166.902c8.442-0.361,17.348,1.361,26.547,5.102
	c5.896,2.397,11.603,4.794,16.96,7.122c12.852,5.586,24.051,10.948,34.184,16.369c-1.086,0.909-2.065,1.695-3.018,2.424
	l-1.047,0.795c-3.578,2.706-7.633,5.772-9.264,10.112c-6.488,17.287-19.077,21.663-38.584,23.148
	c-5.006-18.033-16.21-33.346-27.597-47.221c-4.355-5.307-8.085-10.548-11.102-15.598
	C145.764,167.846,150.104,167.088,154.447,166.902z M261.54,283.404c-5.052,2.335-9.937,5.147-14.681,7.879
	c-6.083,3.504-12.374,7.127-18.853,9.571c-6.216,2.343-11.977,3.53-17.123,3.53c-17.075,0-27.339-13.562-28.161-37.208
	c-0.071-2.031-0.049-4.156-0.03-6.033l0.005-0.608c0.006-0.742,0.012-1.475,0.005-2.062c0.567-6.526,0.267-13.095-0.891-19.545
	c16.765-1.319,35.067-4.947,43.576-27.614c0.912-2.431,4.106-4.847,6.926-6.979l1.063-0.806c1.729-1.323,3.462-2.742,5.163-4.226
	c12.885,8.853,20.744,23.108,24.703,44.777c1.09,5.972,1.616,12.12,1.987,17.349c0.138,1.94,0.261,3.877,0.385,5.824l0.011,0.17
	c0.223,3.479,0.453,7.077,0.784,10.806c0.14,0.98,0.253,1.968,0.342,3.001C265.099,281.84,263.349,282.569,261.54,283.404z
	 M233.571,107.681c12.818,4.654,22.944,12.666,30.957,24.492c2.405,3.554,3.226,10.685,1.656,14.397
	c-7.883,18.63-17.204,33.013-28.48,43.939c-0.125-0.074-0.252-0.146-0.381-0.217c-2.558-1.388-5.245-2.802-7.986-4.205
	c-1.176-0.602-2.361-1.203-3.566-1.806l-0.104-0.052c-10.726-5.355-22.749-10.779-36.757-16.582
	c-1.728-0.716-3.475-1.436-5.265-2.164c-9.185-3.734-18.247-5.628-26.932-5.628c-6.341,0-12.601,1.018-18.621,3.027
	c-11.308-22.821-8.951-44.645,7.591-70.635c5.512-8.661,11.218-16.846,16.966-24.339c7.583,3.747,14.884,8.256,21.963,12.628
	c4.805,2.968,9.773,6.036,14.816,8.87c3.063,1.721,6.175,3.587,9.185,5.391C216.542,99.553,224.742,104.468,233.571,107.681z
	 M139.757,88.476c-18.018,28.311-20.589,52.121-8.274,77.051c-4.301,2.014-8.521,4.58-12.56,7.64
	c-5.507,4.172-12.248,7.783-20.038,10.732c-1.438,0.545-2.882,1.117-4.294,1.701c-0.274,0.114-0.542,0.231-0.811,0.35l-0.088,0.038
	c-0.152-0.106-0.304-0.215-0.457-0.324l-0.086-0.061c-1.282-0.929-2.736-1.981-4.587-2.506
	c-18.652-5.249-35.342-15.622-51.483-25.655l-0.245-0.151c-4.394-2.729-8.937-5.55-13.462-8.232
	c-13.063-7.737-18.2-16.44-15.704-26.605c2.185-8.894,6.368-17.857,11.778-25.24c6.511-8.887,14.948-17.909,25.793-27.585
	c2.744-2.444,8.044-3.275,12.721-4.01l1.351-0.213c5.254-0.844,10.682-1.459,15.979-2.061l0.227-0.025
	c6.871-0.776,13.976-1.578,20.954-2.907c8.22-1.566,16.234-2.36,23.82-2.36c11.822,0,22.919,1.929,32.981,5.733
	c0.918,0.347,1.868,0.725,2.834,1.127C150.548,72.236,145.052,80.157,139.757,88.476z M61.413,215.563l0.364-0.357
	c1.644-1.661,3.329-3.242,5.007-4.698c0.18-0.155,0.366-0.308,0.551-0.46l0.419-0.347c0.773-0.652,1.555-1.301,2.355-1.935
	c5.21-4.118,11.111-7.882,17.54-11.189c1.921-0.989,3.705-1.857,5.433-2.646c2.609,1.597,5.215,3.197,7.825,4.807l0.38,0.234
	c7.578,4.669,15.414,9.497,23.306,14.078c9.007,5.229,18.303,10.23,27.629,14.862c5.599,2.779,11.368,5.267,16.946,7.672
	l0.193,0.083c1.714,0.739,3.423,1.484,5.131,2.232c1.411,6.664,1.805,13.252,1.201,20.16l-0.007,0.176
	c0,0.816-0.007,1.633-0.014,2.453l-0.003,0.41c-0.02,2.054-0.041,4.177,0.032,6.325c0.972,27.954,13.795,43.987,35.182,43.987
	c5.999,0,12.594-1.34,19.603-3.983c6.995-2.638,13.577-6.428,19.942-10.094c4.563-2.628,9.282-5.346,14.059-7.55
	c0.778-0.36,1.561-0.701,2.396-1.044c-0.919,17.28-10.229,31.504-20.068,46.536l-1.965,3.005
	c-9.338,14.335-21.087,24.676-38.096,33.531c-2.443,1.271-5.04,2.535-7.719,3.759c-6.154,2.812-12.473,5.295-18.781,7.383
	c-19.102,6.318-38.889,9.391-60.491,9.391c-4.04,0-8.212-0.114-12.398-0.339c-18.278-0.98-37.848-4.067-59.815-9.435
	c-0.588-0.198-2.225-2.142-2.315-3.049c-0.795-8.065-1.68-16.261-2.541-24.237l-0.048-0.443c-1.396-12.92-2.979-27.563-4.144-42.016
	l-0.181-2.17c-0.032-0.406-0.06-0.813-0.088-1.22l-0.07-0.992c-0.671-9.002-1.106-16.995-1.33-24.437
	C35.994,256.119,44.265,233.091,61.413,215.563z"/>
</svg>
