<?xml version="1.0" encoding="utf-8"?>
<!-- Generator: Adobe Illustrator 16.0.3, SVG Export Plug-In . SVG Version: 6.00 Build 0)  -->
<!DOCTYPE svg PUBLIC "-//W3C//DTD SVG 1.1//EN" "http://www.w3.org/Graphics/SVG/1.1/DTD/svg11.dtd">
<svg version="1.1" id="Vrstva_1" xmlns="http://www.w3.org/2000/svg" xmlns:xlink="http://www.w3.org/1999/xlink" x="0px" y="0px"
	 width="252.544px" height="116.871px" viewBox="0 0 252.544 116.871" enable-background="new 0 0 252.544 116.871"
	 xml:space="preserve">
<path d="M-1663.88-1520.693c-0.759,0-1.719-0.639-2.88-1.92l-11.1-12.42l2.58-2.34l11.4,13.2l11.46-13.2l2.58,2.34l-11.04,12.42
	C-1662.04-1521.333-1663.04-1520.693-1663.88-1520.693z"/>
<path d="M-1536.532-1535.001c-0.759,0-1.719-0.639-2.88-1.92l-11.1-12.42l2.58-2.34l11.4,13.2l11.46-13.2l2.58,2.34l-11.04,12.42
	C-1534.692-1535.64-1535.692-1535.001-1536.532-1535.001z"/>
<path d="M-1687.459-1701.163c0-0.759,0.639-1.719,1.92-2.88l12.42-11.1l2.34,2.58l-13.2,11.4l13.2,11.46l-2.34,2.58l-12.42-11.04
	C-1686.82-1699.322-1687.459-1700.322-1687.459-1701.163z M-1674.979-1701.163c0-0.759,0.639-1.719,1.92-2.88l12.42-11.1l2.34,2.58
	l-13.2,11.4l13.2,11.46l-2.34,2.58l-12.42-11.04C-1674.34-1699.322-1674.979-1700.322-1674.979-1701.163z"/>
<path d="M-1640.239-1701.103l-12.96-11.46l2.22-2.46l12.36,11.04c0.439,0.4,0.919,0.9,1.44,1.5c0.32,0.52,0.48,0.98,0.48,1.38
	c0,0.76-0.64,1.72-1.92,2.88l-12.36,11.04l-2.22-2.46L-1640.239-1701.103z M-1627.759-1701.103l-12.96-11.46l2.22-2.46l12.36,11.04
	c0.439,0.4,0.919,0.9,1.44,1.5c0.32,0.52,0.48,0.98,0.48,1.38c0,0.76-0.64,1.72-1.92,2.88l-12.36,11.04l-2.22-2.46
	L-1627.759-1701.103z"/>
<path d="M-1639.181-1646.006c0-0.759,0.639-1.719,1.92-2.88l12.42-11.1l2.34,2.58l-13.2,11.4l13.2,11.46l-2.34,2.58l-12.42-11.04
	C-1638.542-1644.166-1639.181-1645.166-1639.181-1646.006z"/>
<path d="M-1593.641-1535.608l11.46-12.96l2.46,2.22l-11.04,12.36c-0.4,0.439-0.9,0.919-1.5,1.439c-0.521,0.32-0.98,0.48-1.38,0.48
	c-0.761,0-1.721-0.641-2.88-1.92l-11.04-12.36l2.46-2.22L-1593.641-1535.608z"/>
<path d="M-1593.641-1527.129l11.46-12.96l2.46,2.221l-11.04,12.359c-0.4,0.439-0.9,0.92-1.5,1.44
	c-0.521,0.319-0.98,0.479-1.38,0.479c-0.761,0-1.721-0.64-2.88-1.92l-11.04-12.359l2.46-2.221L-1593.641-1527.129z"/>
<path d="M-1606.841-1525.269h26.4v3.36h-26.4V-1525.269z"/>
<path d="M-1624.219-1451.381l11.46-12.96l2.46,2.22l-11.04,12.36c-0.4,0.439-0.9,0.919-1.5,1.439c-0.521,0.32-0.98,0.48-1.38,0.48
	c-0.761,0-1.721-0.641-2.88-1.92l-11.04-12.36l2.46-2.22L-1624.219-1451.381z"/>
<path d="M-1624.219-1442.901l11.46-12.96l2.46,2.221l-11.04,12.359c-0.4,0.439-0.9,0.92-1.5,1.44
	c-0.521,0.319-0.98,0.479-1.38,0.479c-0.761,0-1.721-0.64-2.88-1.92l-11.04-12.359l2.46-2.221L-1624.219-1442.901z"/>
<path d="M-1637.419-1441.042h26.4v3.36h-26.4V-1441.042z"/>
<path d="M-1548.26-1706.083h35.22v3.36h-35.22V-1706.083z"/>
<path d="M-1635.594-1647.656h35.22v3.36h-35.22V-1647.656z"/>
<path d="M-1486.4-1694.322l17.4-7.86l-17.4-7.32v-3.84l20.82,9.12v4.32l-20.82,9.54V-1694.322z"/>
<path d="M-1457.18-1700.022v-4.32l20.639-9.12v3.84l-17.219,7.32l17.219,7.86v3.96L-1457.18-1700.022z"/>
<path d="M-1417.73-1687.752c-3.141-1.82-5.621-4.32-7.439-7.5c-1.822-3.18-2.73-6.71-2.73-10.59v-1.14c0-3.92,0.9-7.49,2.699-10.71
	c1.801-3.219,4.26-5.75,7.381-7.59c3.119-1.839,6.578-2.76,10.379-2.76c3.84,0,7.32,0.92,10.441,2.76
	c3.119,1.84,5.58,4.371,7.379,7.59c1.801,3.22,2.701,6.79,2.701,10.71v1.14c0,3.96-0.881,7.521-2.641,10.68
	c-1.762,3.161-4.18,5.64-7.26,7.44c-3.082,1.8-6.541,2.7-10.381,2.7C-1411.082-1685.022-1414.592-1685.933-1417.73-1687.752z
	 M-1398.801-1690.663c2.559-1.52,4.58-3.609,6.061-6.27c1.479-2.66,2.219-5.629,2.219-8.91v-1.14c0-3.32-0.75-6.33-2.25-9.03
	c-1.5-2.7-3.539-4.819-6.119-6.36c-2.58-1.539-5.451-2.31-8.609-2.31c-3.121,0-5.961,0.78-8.521,2.34
	c-2.561,1.56-4.58,3.69-6.059,6.39c-1.48,2.7-2.221,5.691-2.221,8.97v1.14c0,3.28,0.74,6.25,2.221,8.91
	c1.479,2.661,3.51,4.75,6.09,6.27c2.58,1.521,5.449,2.28,8.609,2.28S-1401.361-1689.142-1398.801-1690.663z"/>
<circle fill="none" stroke="#000000" stroke-width="3.4" stroke-miterlimit="10" cx="-1516.66" cy="-1540.88" r="19.842"/>
<rect x="-1695.366" y="-1556.603" transform="matrix(0.7071 -0.7071 0.7071 0.7071 601.0273 -1645.4384)" width="19.32" height="16.759"/>
<g>
	<path d="M-1436.239-1286.205c-0.5-0.5-0.75-1.09-0.75-1.771c0-0.72,0.25-1.329,0.75-1.83c0.5-0.499,1.09-0.75,1.771-0.75
		c0.72,0,1.329,0.251,1.83,0.75c0.499,0.501,0.75,1.11,0.75,1.83c0,0.681-0.251,1.271-0.75,1.771c-0.501,0.5-1.11,0.75-1.83,0.75
		C-1435.149-1285.455-1435.739-1285.705-1436.239-1286.205z M-1431.919-1255.186c0.38,0.381,0.83,0.57,1.35,0.57
		c0.8,0,1.381-0.34,1.74-1.021l2.641,1.979c-0.321,0.682-0.881,1.251-1.681,1.711c-0.801,0.459-1.7,0.689-2.7,0.689
		c-1.6,0-2.92-0.5-3.96-1.5c-1.04-0.999-1.56-2.299-1.56-3.9v-24.899h3.6v24.96
		C-1432.489-1256.035-1432.3-1255.565-1431.919-1255.186z"/>
</g>
<path d="M-1380.039-1273.082c-0.733-2.395-2.524-4.257-5.045-5.241c-3.293-1.287-6.751-2.2-10.161-3.098
	c-2.146-0.566-4.363-1.151-6.496-1.827c-4.976-1.576-10.287-4.062-11.956-10.542c-1.533-5.949-3.694-12.848-8.099-18.889
	c-0.263-0.358-0.516-0.76-0.765-1.151c-1-1.574-2.245-3.529-4.602-4.058c-0.515-0.114-1.062-0.156-1.628-0.118
	c-6.295,0.405-11.949,0.98-17.378,3.925c-6.291,3.413-12.35,8.063-18.521,14.217c-9.062,9.036-10.321,17.557-4.341,29.41
	c3.196,6.335,6.111,13.163,3.669,20.854l-0.21,0.896c-0.137,0.588-0.278,1.192-0.396,1.813c-1.537,8.222,1.194,13.745,7.501,15.157
	c1.746,0.39,3.748,0.429,5.944,0.12c2.177-0.309,4.288-0.967,6.333-1.604c1.443-0.452,2.936-0.916,4.401-1.232
	c2.048-0.443,3.601-0.473,4.591-0.071c5.45,2.226,10.771,4.866,14.797,6.918c4.289,2.183,7.917,1.721,11.157-1.366
	c2.86-2.729,1.965-5.721,1.249-8.108l-0.032-0.11c-0.126-0.422-0.257-0.854-0.359-1.276l-0.029-0.121
	c-0.652-2.676-1.326-5.444-1.77-8.179c-0.23-1.431,0.361-2.353,1.862-2.903c1.534-0.561,3.04-1.129,4.725-1.766
	c2.433-0.919,4.945-1.867,7.443-2.74c6.371-2.223,12.437-4.717,16.576-10.718
	C-1379.799-1267.469-1379.236-1270.454-1380.039-1273.082z M-1415.099-1246.295c0.458,2.84,1.147,5.672,1.816,8.408l0.03,0.12
	c0.122,0.502,0.271,1.003,0.425,1.517c0.699,2.341,1.025,3.733-0.453,5.143c-2.336,2.23-4.657,2.462-7.778,0.871
	c-4.072-2.073-9.457-4.745-15.024-7.018c-1.57-0.646-3.616-0.668-6.329-0.084c-1.588,0.343-3.147,0.829-4.678,1.306
	c-1.913,0.599-3.896,1.217-5.846,1.494c-1.849,0.262-3.491,0.233-4.886-0.077c-4.539-1.016-6.451-5.292-5.243-11.733
	c0.106-0.562,0.241-1.146,0.367-1.686l0.057-0.239c0.043-0.188,0.087-0.375,0.105-0.478c2.761-8.724-0.545-16.462-3.859-23.032
	c-5.296-10.496-4.199-18.025,3.79-25.99c5.967-5.95,11.802-10.437,17.844-13.712c4.903-2.66,10.22-3.193,16.161-3.576
	c0.286-0.018,0.553,0,0.795,0.055c1.166,0.26,1.938,1.479,2.775,2.795c0.271,0.426,0.553,0.868,0.851,1.276
	c4.108,5.634,6.158,12.201,7.623,17.88c2.029,7.878,8.177,10.801,13.923,12.621c2.228,0.706,4.551,1.317,6.671,1.878
	c3.265,0.858,6.639,1.746,9.803,2.981c1.664,0.652,2.836,1.844,3.298,3.356c0.537,1.759,0.119,3.816-1.146,5.648
	c-3.636,5.269-9.227,7.552-15.122,9.609c-2.594,0.907-5.214,1.896-7.527,2.771l-0.251,0.094c-1.449,0.548-2.949,1.113-4.432,1.654
	C-1414.147-1251.412-1415.553-1249.113-1415.099-1246.295z"/>
<g>
	<path fill="#FFFFFF" d="M-1318.794-1283.955c1.111,0,2.11-0.411,2.892-1.19c0.777-0.779,1.188-1.758,1.188-2.83
		c0-1.11-0.41-2.109-1.191-2.893c-0.779-0.777-1.778-1.188-2.889-1.188c-1.072,0-2.051,0.411-2.832,1.19
		c-0.777,0.779-1.188,1.778-1.188,2.89c0,1.074,0.411,2.053,1.189,2.831S-1319.868-1283.955-1318.794-1283.955z"/>
	<path fill="#FFFFFF" d="M-1314.48-1256.336c-0.081,0.153-0.129,0.221-0.414,0.221c-0.105,0-0.179-0.021-0.29-0.133
		c-0.084-0.083-0.13-0.164-0.13-0.348v-26.46h-6.6v26.399c0,2.019,0.68,3.694,2.02,4.981c1.324,1.273,3.007,1.919,5,1.919
		c1.259,0,2.418-0.299,3.448-0.889c1.066-0.614,1.837-1.412,2.289-2.372l0.521-1.106l-5.024-3.767L-1314.48-1256.336z"/>
	<path fill="#FFFFFF" d="M-1262.93-1273.521c-0.871-2.843-2.979-5.045-5.934-6.199c-3.397-1.327-6.919-2.255-10.324-3.15
		c-2.128-0.562-4.327-1.142-6.426-1.807c-4.814-1.525-9.475-3.73-10.957-9.486c-1.568-6.089-3.786-13.154-8.341-19.401
		c-0.229-0.312-0.448-0.659-0.708-1.069c-1.087-1.71-2.574-4.052-5.543-4.717c-0.659-0.146-1.361-0.196-2.05-0.151
		c-6.476,0.417-12.3,1.014-17.996,4.104c-6.42,3.482-12.591,8.217-18.866,14.473c-9.482,9.457-10.864,18.772-4.62,31.148
		c3.056,6.058,5.85,12.57,3.578,19.724l-0.256,1.073c-0.137,0.587-0.276,1.19-0.396,1.813c-1.681,8.991,1.552,15.308,8.648,16.896
		c1.913,0.427,4.107,0.474,6.482,0.142c2.291-0.325,4.458-1,6.57-1.657c1.328-0.416,2.834-0.888,4.271-1.198
		c0.979-0.212,1.824-0.319,2.511-0.319c0.64,0,1.005,0.094,1.195,0.171c5.396,2.204,10.682,4.827,14.684,6.866
		c1.977,1.006,3.887,1.516,5.679,1.516c0.001,0,0.001,0,0.001,0c2.591,0,5.011-1.054,7.193-3.134
		c3.527-3.365,2.397-7.132,1.653-9.613l-0.058-0.199c-0.111-0.371-0.226-0.751-0.315-1.12l-0.03-0.124
		c-0.644-2.642-1.31-5.373-1.746-8.062c-0.09-0.56-0.093-0.894,0.896-1.256c1.539-0.563,3.05-1.133,4.74-1.771
		c2.294-0.867,4.895-1.849,7.407-2.728c6.616-2.308,12.92-4.908,17.316-11.281
		C-1262.627-1266.997-1261.992-1270.453-1262.93-1273.521z M-1300.904-1246.056c0.473,2.934,1.199,5.904,1.843,8.535l0.027,0.108
		c0.128,0.526,0.283,1.053,0.444,1.592c0.716,2.395,0.709,2.903-0.052,3.628c-1.898,1.813-3.48,1.937-6.062,0.619
		c-4.108-2.091-9.541-4.785-15.135-7.068c-1.01-0.414-2.136-0.616-3.443-0.616c-1.12,0-2.354,0.148-3.772,0.454
		c-1.647,0.355-3.244,0.853-4.81,1.34c-1.852,0.579-3.767,1.179-5.607,1.44c-1.651,0.234-3.134,0.216-4.349-0.056
		c-4.985-1.115-4.706-6.74-4.097-9.99c0.103-0.541,0.232-1.104,0.354-1.619l0.083-0.355c0.028-0.123,0.055-0.24,0.074-0.334
		c2.886-9.226-0.537-17.266-3.976-24.081c-5.013-9.937-4.029-16.736,3.511-24.252c5.867-5.852,11.592-10.253,17.499-13.456
		c4.636-2.515,9.781-3.026,15.538-3.397l0.117-0.004c0.098,0,0.184,0.009,0.26,0.025c0.555,0.124,1.201,1.139,1.854,2.164
		c0.282,0.444,0.576,0.903,0.886,1.327c3.956,5.426,5.952,11.825,7.383,17.37c2.225,8.638,9.144,11.847,14.922,13.677
		c2.209,0.7,4.536,1.315,6.589,1.858l0.153,0.041c3.221,0.847,6.552,1.722,9.637,2.927c1.229,0.482,2.086,1.334,2.411,2.398
		c0.402,1.316,0.058,2.905-0.945,4.358c-3.38,4.896-8.731,7.072-14.383,9.045c-2.672,0.935-5.384,1.96-7.558,2.782l-0.256,0.096
		c-1.444,0.546-2.938,1.109-4.418,1.649C-1299.663-1252.573-1301.474-1249.587-1300.904-1246.056z"/>
</g>
<g>
	<path d="M-149.439-342.549c1.111,0,2.11-0.411,2.892-1.19c0.777-0.779,1.188-1.758,1.188-2.83c0-1.11-0.41-2.109-1.191-2.893
		c-0.779-0.777-1.778-1.188-2.889-1.188c-1.072,0-2.051,0.411-2.832,1.19c-0.777,0.779-1.188,1.778-1.188,2.89
		c0,1.074,0.411,2.053,1.189,2.831S-150.514-342.549-149.439-342.549z"/>
	<path d="M-145.126-314.93c-0.081,0.153-0.129,0.221-0.414,0.221c-0.105,0-0.179-0.021-0.29-0.133
		c-0.084-0.083-0.13-0.164-0.13-0.348v-26.46h-6.6v26.399c0,2.019,0.68,3.694,2.02,4.981c1.324,1.273,3.007,1.919,5,1.919
		c1.259,0,2.418-0.299,3.448-0.889c1.066-0.614,1.837-1.412,2.289-2.372l0.521-1.106l-5.024-3.767L-145.126-314.93z"/>
	<path d="M-93.575-332.115c-0.871-2.843-2.979-5.045-5.934-6.199c-3.397-1.327-6.919-2.255-10.324-3.15
		c-2.128-0.562-4.327-1.142-6.426-1.807c-4.814-1.525-9.475-3.73-10.957-9.486c-1.568-6.089-3.786-13.154-8.341-19.401
		c-0.229-0.312-0.448-0.659-0.708-1.069c-1.087-1.71-2.574-4.052-5.543-4.717c-0.659-0.146-1.361-0.196-2.05-0.151
		c-6.476,0.417-12.3,1.014-17.996,4.104c-6.42,3.482-12.591,8.217-18.866,14.473c-9.482,9.457-10.864,18.772-4.62,31.148
		c3.056,6.058,5.85,12.57,3.578,19.724l-0.256,1.073c-0.137,0.587-0.276,1.19-0.396,1.813c-1.681,8.991,1.552,15.308,8.648,16.896
		c1.913,0.427,4.107,0.474,6.482,0.142c2.291-0.325,4.458-1,6.57-1.657c1.328-0.416,2.834-0.888,4.271-1.198
		c0.979-0.212,1.824-0.319,2.511-0.319c0.64,0,1.005,0.094,1.195,0.171c5.396,2.204,10.682,4.827,14.684,6.866
		c1.977,1.006,3.887,1.516,5.679,1.516c0.001,0,0.001,0,0.001,0c2.591,0,5.011-1.054,7.193-3.134
		c3.527-3.365,2.397-7.132,1.653-9.613l-0.058-0.199c-0.111-0.371-0.226-0.751-0.315-1.12l-0.03-0.124
		c-0.644-2.642-1.31-5.373-1.746-8.062c-0.09-0.56-0.093-0.894,0.896-1.256c1.539-0.563,3.05-1.133,4.74-1.771
		c2.294-0.867,4.895-1.849,7.407-2.728c6.616-2.308,12.92-4.908,17.316-11.281C-93.272-325.591-92.638-329.047-93.575-332.115z
		 M-131.55-304.649c0.473,2.934,1.199,5.904,1.843,8.535l0.027,0.108c0.128,0.526,0.283,1.053,0.444,1.592
		c0.716,2.395,0.709,2.903-0.052,3.628c-1.898,1.813-3.48,1.937-6.062,0.619c-4.108-2.091-9.541-4.785-15.135-7.068
		c-1.01-0.414-2.136-0.616-3.443-0.616c-1.12,0-2.354,0.148-3.772,0.454c-1.647,0.355-3.244,0.853-4.81,1.34
		c-1.852,0.579-3.767,1.179-5.607,1.44c-1.651,0.234-3.134,0.216-4.349-0.056c-4.985-1.115-4.706-6.74-4.097-9.99
		c0.103-0.541,0.232-1.104,0.354-1.619l0.083-0.355c0.028-0.123,0.055-0.24,0.074-0.334c2.886-9.226-0.537-17.266-3.976-24.081
		c-5.013-9.937-4.029-16.736,3.511-24.252c5.867-5.852,11.592-10.253,17.499-13.456c4.636-2.515,9.781-3.026,15.538-3.397
		l0.117-0.004c0.098,0,0.184,0.009,0.26,0.025c0.555,0.124,1.201,1.139,1.854,2.164c0.282,0.444,0.576,0.903,0.886,1.327
		c3.956,5.426,5.952,11.825,7.383,17.37c2.225,8.638,9.144,11.847,14.922,13.677c2.209,0.7,4.536,1.315,6.589,1.858l0.153,0.041
		c3.221,0.847,6.552,1.722,9.637,2.927c1.229,0.482,2.086,1.334,2.411,2.398c0.402,1.316,0.058,2.905-0.945,4.358
		c-3.38,4.896-8.731,7.072-14.383,9.045c-2.672,0.935-5.384,1.96-7.558,2.782l-0.256,0.096c-1.444,0.546-2.938,1.109-4.418,1.649
		C-130.309-311.167-132.119-308.181-131.55-304.649z"/>
</g>
<g>
	<path d="M-1101.48-1445.457c1.111,0,2.11-0.411,2.892-1.19c0.777-0.779,1.188-1.758,1.188-2.83c0-1.11-0.41-2.109-1.191-2.893
		c-0.779-0.777-1.778-1.188-2.889-1.188c-1.072,0-2.051,0.411-2.832,1.19c-0.777,0.779-1.188,1.778-1.188,2.89
		c0,1.074,0.411,2.053,1.189,2.831S-1102.555-1445.457-1101.48-1445.457z"/>
	<path d="M-1097.167-1417.837c-0.081,0.153-0.129,0.221-0.414,0.221c-0.105,0-0.179-0.021-0.29-0.133
		c-0.084-0.083-0.13-0.164-0.13-0.348v-26.46h-6.6v26.399c0,2.019,0.68,3.694,2.02,4.981c1.324,1.273,3.007,1.919,5,1.919
		c1.259,0,2.418-0.299,3.448-0.889c1.066-0.614,1.837-1.412,2.289-2.372l0.521-1.106l-5.024-3.767L-1097.167-1417.837z"/>
	<path d="M-1045.616-1435.023c-0.871-2.843-2.979-5.045-5.934-6.199c-3.397-1.327-6.919-2.255-10.324-3.15
		c-2.128-0.562-4.327-1.142-6.426-1.807c-4.814-1.525-9.475-3.73-10.957-9.486c-1.568-6.089-3.786-13.154-8.341-19.401
		c-0.229-0.312-0.448-0.659-0.708-1.069c-1.087-1.71-2.574-4.052-5.543-4.717c-0.659-0.146-1.361-0.196-2.05-0.151
		c-6.476,0.417-12.3,1.014-17.996,4.104c-6.42,3.482-12.591,8.217-18.866,14.473c-9.482,9.457-10.864,18.772-4.62,31.148
		c3.056,6.058,5.85,12.57,3.578,19.724l-0.256,1.073c-0.137,0.587-0.276,1.19-0.396,1.813c-1.681,8.991,1.552,15.308,8.648,16.896
		c1.913,0.427,4.107,0.474,6.482,0.142c2.291-0.325,4.458-1,6.57-1.657c1.328-0.416,2.834-0.888,4.271-1.198
		c0.979-0.212,1.824-0.319,2.511-0.319c0.64,0,1.005,0.094,1.195,0.171c5.396,2.204,10.682,4.827,14.684,6.866
		c1.977,1.005,3.887,1.515,5.679,1.515c0.001,0,0.001,0,0.001,0c2.591,0,5.011-1.053,7.193-3.133
		c3.527-3.365,2.397-7.132,1.653-9.613l-0.058-0.199c-0.111-0.371-0.226-0.751-0.315-1.12l-0.03-0.124
		c-0.644-2.642-1.31-5.373-1.746-8.062c-0.09-0.56-0.093-0.894,0.896-1.256c1.539-0.563,3.05-1.133,4.74-1.771
		c2.294-0.867,4.895-1.849,7.407-2.728c6.616-2.308,12.92-4.908,17.316-11.281
		C-1045.313-1428.499-1044.679-1431.955-1045.616-1435.023z M-1083.591-1407.557c0.473,2.934,1.199,5.904,1.843,8.535l0.027,0.108
		c0.128,0.526,0.283,1.053,0.444,1.592c0.716,2.395,0.709,2.903-0.052,3.628c-1.898,1.813-3.48,1.937-6.062,0.619
		c-4.108-2.091-9.541-4.785-15.135-7.068c-1.01-0.414-2.136-0.616-3.443-0.616c-1.12,0-2.354,0.148-3.772,0.454
		c-1.647,0.355-3.244,0.853-4.81,1.34c-1.852,0.579-3.767,1.179-5.607,1.44c-1.651,0.234-3.134,0.216-4.349-0.056
		c-4.985-1.115-4.706-6.74-4.097-9.99c0.103-0.541,0.232-1.104,0.354-1.619l0.083-0.355c0.028-0.123,0.055-0.24,0.074-0.334
		c2.886-9.226-0.537-17.266-3.976-24.081c-5.013-9.937-4.029-16.736,3.511-24.252c5.867-5.852,11.592-10.253,17.499-13.456
		c4.636-2.515,9.781-3.026,15.538-3.397l0.117-0.004c0.098,0,0.184,0.009,0.26,0.025c0.555,0.124,1.201,1.139,1.854,2.164
		c0.282,0.444,0.576,0.903,0.886,1.327c3.956,5.426,5.952,11.825,7.383,17.37c2.225,8.638,9.144,11.847,14.922,13.677
		c2.209,0.7,4.536,1.315,6.589,1.858l0.153,0.041c3.221,0.847,6.552,1.722,9.637,2.927c1.229,0.482,2.086,1.334,2.411,2.398
		c0.402,1.316,0.058,2.905-0.945,4.358c-3.38,4.896-8.731,7.072-14.383,9.045c-2.672,0.935-5.384,1.96-7.558,2.782l-0.256,0.096
		c-1.444,0.546-2.938,1.109-4.418,1.649C-1082.35-1414.075-1084.16-1411.088-1083.591-1407.557z"/>
</g>
<path stroke="#000000" stroke-miterlimit="10" d="M-1178.779-1478.23c-5.799-9.148-12.279-18.051-18.546-26.659l-0.143-0.196
	c-3.083-4.238-6.272-8.62-9.332-12.969c-1.4-1.99-2.932-2.758-5.285-2.652c-2.871,0.13-5.804,0.153-8.648,0.175l-0.062,0
	c-2.229,0.018-4.534,0.036-6.808,0.107c-5.765,0.179-11.627,0.4-17.295,0.615l-0.176,0.006c-11.06,0.42-22.496,0.854-33.739,0.988
	c-22.767,0.27-45.139,3.401-64.021,6.428c-0.169,0.027-0.345,0.066-0.521,0.115c-1.45,0.404-2.956,1.513-3.579,2.636
	c-7.456,13.443-11.092,27.887-10.801,42.93c0.025,1.32,1.509,3.067,2.833,3.339l5.75,1.184c10.71,2.209,21.784,4.493,32.755,6.388
	c14.833,2.561,30.698,5.062,48.504,7.644c18.479,2.679,37.102,5.269,55.113,7.772l0.842,0.117
	c8.066,1.122,16.133,2.243,24.197,3.375c2.303,0.322,4.603,0.657,6.904,0.991l0.15,0.022c4.607,0.669,9.373,1.36,14.078,1.945
	c1.831,0.228,3.679,0.228,5.644,0.227l0.097,0c0.896,0,1.822,0,2.787,0.023l1.638,0.04l-0.534-1.539
	C-1162.859-1452.083-1171.3-1466.428-1178.779-1478.23z M-1159.658-1435.953c-0.39-0.001-0.774-0.001-1.152-0.002l-0.146,0
	c-1.885,0-3.667,0-5.362-0.21c-4.734-0.588-9.537-1.286-14.183-1.961c-2.304-0.335-4.607-0.669-6.914-0.993
	c-8.089-1.135-16.181-2.26-24.273-3.386l-0.77-0.107c-18.06-2.51-36.733-5.106-55.099-7.77c-17.796-2.582-33.642-5.078-48.444-7.634
	c-10.976-1.896-22.063-4.183-32.784-6.395l-5.648-1.164c-0.312-0.079-0.997-0.869-1.034-1.183
	c-0.282-14.64,3.256-28.702,10.52-41.794c0.339-0.611,1.326-1.306,2.201-1.549c0.091-0.025,0.179-0.045,0.266-0.059
	c18.799-3.014,41.064-6.132,63.688-6.4c11.322-0.135,22.748-0.569,33.797-0.989l0.404-0.015c5.591-0.212,11.371-0.431,17.053-0.606
	c2.214-0.069,4.472-0.087,6.656-0.105l0.16-0.002c2.855-0.021,5.81-0.044,8.732-0.177c1.587-0.072,2.365,0.324,3.33,1.696
	c3.132,4.45,6.367,8.895,9.497,13.196c6.248,8.583,12.709,17.459,18.463,26.538
	C-1173.524-1465.704-1165.443-1452.006-1159.658-1435.953z"/>
<path stroke="#000000" stroke-miterlimit="10" d="M-608.754-1054.357c-5.799-9.148-12.279-18.051-18.546-26.658l-0.143-0.195
	c-3.083-4.238-6.272-8.62-9.332-12.969c-1.4-1.99-2.932-2.758-5.285-2.652c-2.871,0.131-5.804,0.153-8.648,0.176h-0.062
	c-2.229,0.018-4.534,0.036-6.808,0.107c-5.765,0.178-11.627,0.4-17.295,0.615l-0.176,0.006c-11.06,0.42-22.496,0.854-33.739,0.988
	c-22.767,0.27-45.139,3.4-64.021,6.428c-0.169,0.027-0.345,0.066-0.521,0.115c-1.45,0.403-2.956,1.512-3.579,2.635
	c-7.456,13.443-11.092,27.887-10.801,42.93c0.025,1.32,1.509,3.068,2.833,3.34l5.75,1.184c10.71,2.209,21.784,4.493,32.755,6.388
	c14.833,2.562,30.698,5.062,48.504,7.644c18.479,2.68,37.102,5.27,55.113,7.772l0.842,0.117c8.066,1.122,16.133,2.243,24.197,3.375
	c2.303,0.322,4.603,0.657,6.904,0.991l0.15,0.021c4.607,0.67,9.373,1.361,14.078,1.945c1.831,0.229,3.679,0.229,5.644,0.227
	l0.097,0.001c0.896-0.001,1.822,0,2.787,0.023l1.638,0.04l-0.534-1.539C-592.834-1028.21-601.274-1042.555-608.754-1054.357z
	 M-589.633-1012.08c-0.39-0.001-0.774-0.001-1.152-0.002l-0.146,0.001c-1.885-0.001-3.667,0-5.362-0.21
	c-4.734-0.588-9.537-1.287-14.183-1.961c-2.304-0.336-4.607-0.67-6.914-0.994c-8.089-1.135-16.181-2.26-24.273-3.385l-0.77-0.107
	c-18.06-2.51-36.733-5.106-55.099-7.77c-17.796-2.582-33.642-5.078-48.444-7.635c-10.976-1.895-22.063-4.182-32.784-6.395
	l-5.648-1.164c-0.312-0.078-0.997-0.868-1.034-1.182c-0.282-14.641,3.256-28.702,10.52-41.795c0.339-0.611,1.326-1.306,2.201-1.549
	c0.091-0.025,0.179-0.045,0.266-0.059c18.799-3.015,41.064-6.133,63.688-6.4c11.322-0.135,22.748-0.57,33.797-0.99l0.404-0.015
	c5.591-0.212,11.371-0.431,17.053-0.606c2.214-0.068,4.472-0.087,6.656-0.104l0.16-0.002c2.855-0.021,5.81-0.044,8.732-0.177
	c1.587-0.072,2.365,0.324,3.33,1.696c3.132,4.45,6.367,8.896,9.497,13.196c6.248,8.584,12.709,17.459,18.463,26.537
	C-603.499-1041.83-595.418-1028.133-589.633-1012.08z"/>
<path fill="#FFFFFF" d="M251.231,113.554c-9.726-23.391-18.285-39.095-29.289-55.284c-8.54-12.565-15.868-24.717-24.888-36.467
	l-0.306-0.398c-4.405-5.743-8.961-11.681-13.349-17.574c-2.2-2.955-4.427-4.058-7.627-3.792c-3.471,0.283-7.045,0.426-10.501,0.563
	l-0.31,0.011c-2.632,0.104-5.614,0.221-8.497,0.41c-7.091,0.462-14.297,0.989-21.265,1.5l-0.452,0.031
	c-13.717,1.004-27.901,2.043-41.934,2.658c-28.424,1.246-55.937,6.467-79.104,11.41c-0.235,0.051-0.479,0.12-0.722,0.206
	c-1.971,0.693-3.841,2.437-4.546,4.241C0.974,40.202-1.558,60.584,0.922,81.648c0.256,2.181,2.579,4.802,4.603,5.193l7.584,1.479
	c13.597,2.653,27.657,5.397,41.538,7.606c18.855,3.004,39.007,5.885,61.604,8.807c23.522,3.041,47.075,5.934,69.852,8.73l4.28,0.527
	c9.149,1.124,12.297-1.753,21.445-0.616c2.482,0.308,4.963,0.629,7.446,0.949l1.493,0.193c5.505,0.715,11.743,1.525,17.852,2.177
	c1.128,0.12,2.316,0.176,3.739,0.176c1.123,0,2.264-0.035,3.432-0.071l0.127-0.003c1.111-0.036,2.259-0.069,3.458-0.073l3.169-0.009
	L251.231,113.554z M245.961,112.145l-0.561,0.018c-1.111,0.033-2.194,0.065-3.254,0.065c-1.288,0-2.343-0.048-3.32-0.152
	c-5.868-0.625-11.843-1.398-17.621-2.146l-0.329-0.043c-2.923-0.38-5.845-0.758-8.769-1.121
	c-10.252-1.273-14.505,1.467-24.759,0.209l-0.976-0.12c-21.659-2.66-46.209-5.674-69.822-8.728
	c-22.619-2.927-42.731-5.802-61.484-8.788c-14.038-2.234-28.136-4.991-41.771-7.657l-7.121-1.382
	c-0.241-0.118-0.87-0.822-0.943-0.983C2.848,61.053,5.283,41.449,12.47,23.049c0.26-0.663,1.231-1.508,2.085-1.808
	c0.076-0.027,0.151-0.049,0.225-0.064c23.005-4.91,50.314-10.095,78.442-11.327c14.09-0.617,28.262-1.656,42.047-2.666l0.504-0.036
	c7.551-0.553,14.357-1.047,21.186-1.493c2.824-0.186,5.717-0.298,8.272-0.398l0.195-0.009c3.555-0.138,7.23-0.281,10.903-0.58
	c0.199-0.016,0.388-0.024,0.567-0.024c1.303,0,2.042,0.458,3.162,1.961c4.499,6.04,9.126,12.072,13.602,17.904l0.113,0.147
	c8.981,11.705,16.27,23.809,24.702,36.213C228.798,76.055,236.58,90.464,245.961,112.145z"/>
<path stroke="#000000" stroke-miterlimit="10" d="M-211.479-846.525c-5.799-9.148-12.279-18.051-18.546-26.658l-0.143-0.195
	c-3.083-4.238-6.272-8.62-9.332-12.969c-1.4-1.99-2.932-2.758-5.285-2.652c-2.871,0.131-5.804,0.153-8.648,0.176h-0.062
	c-2.229,0.018-4.534,0.036-6.808,0.107c-5.765,0.178-11.627,0.4-17.295,0.615l-0.176,0.006c-11.06,0.42-22.496,0.854-33.739,0.988
	c-22.767,0.27-45.139,3.4-64.021,6.428c-0.169,0.027-0.345,0.066-0.521,0.115c-1.45,0.403-2.956,1.512-3.579,2.635
	c-7.456,13.443-11.092,27.887-10.801,42.93c0.025,1.32,1.509,3.068,2.833,3.34l5.75,1.184c10.71,2.209,21.784,4.493,32.755,6.388
	c14.833,2.562,30.698,5.062,48.504,7.644c18.479,2.68,37.102,5.27,55.113,7.772l0.842,0.117c8.066,1.122,16.133,2.243,24.197,3.375
	c2.303,0.322,4.603,0.657,6.904,0.991l0.15,0.021c4.607,0.67,9.373,1.361,14.078,1.945c1.831,0.229,3.679,0.229,5.644,0.227
	l0.097,0.001c0.896-0.001,1.822,0,2.787,0.023l1.638,0.04l-0.534-1.539C-195.56-820.378-204-834.723-211.479-846.525z
	 M-192.358-804.248c-0.39-0.001-0.774-0.001-1.152-0.002l-0.146,0.001c-1.885-0.001-3.667,0-5.362-0.21
	c-4.734-0.588-9.537-1.287-14.183-1.961c-2.304-0.336-4.607-0.67-6.914-0.994c-8.089-1.135-16.181-2.26-24.273-3.385l-0.77-0.107
	c-18.06-2.51-36.733-5.106-55.099-7.77c-17.796-2.582-33.642-5.078-48.444-7.635c-10.976-1.895-22.063-4.182-32.784-6.395
	l-5.648-1.164c-0.312-0.078-0.997-0.868-1.034-1.182c-0.282-14.641,3.256-28.702,10.52-41.795c0.339-0.611,1.326-1.306,2.201-1.549
	c0.091-0.025,0.179-0.045,0.266-0.059c18.799-3.015,41.064-6.133,63.688-6.4c11.322-0.135,22.748-0.57,33.797-0.99l0.404-0.015
	c5.591-0.212,11.371-0.431,17.053-0.606c2.214-0.068,4.472-0.087,6.656-0.104l0.16-0.002c2.855-0.021,5.81-0.044,8.732-0.177
	c1.587-0.072,2.365,0.324,3.33,1.696c3.132,4.45,6.367,8.896,9.497,13.196c6.248,8.584,12.709,17.459,18.463,26.537
	C-206.225-833.998-198.144-820.301-192.358-804.248z"/>
<rect x="-1322.814" y="-1508.203" fill="none" width="136.5" height="67.5"/>
<text transform="matrix(1 0 0 1 -1322.8145 -1464.584)" font-family="'Bellota-Regular'" font-size="60">ulož</text>
<g>
	<path d="M-571.659-1159.506c-5.951-17.101-14.462-31.569-22.004-43.468c-5.822-9.188-12.31-18.101-18.616-26.764l-0.252-0.348
		c-3.041-4.179-6.186-8.501-9.205-12.794c-1.815-2.578-3.994-3.648-7.011-3.497c-2.834,0.128-5.864,0.151-8.636,0.173
		c-2.225,0.018-4.524,0.036-6.854,0.107c-5.769,0.18-11.636,0.4-17.311,0.615l-0.173,0.007c-11.024,0.419-22.423,0.853-33.688,0.986
		c-22.895,0.271-45.359,3.415-64.312,6.454c-0.242,0.038-0.494,0.093-0.743,0.162c-1.979,0.552-3.905,1.995-4.792,3.594
		c-7.632,13.758-11.35,28.541-11.052,43.938c0.043,2.246,2.196,4.801,4.43,5.258l5.75,1.185c10.697,2.208,21.759,4.49,32.818,6.401
		c14.861,2.565,30.745,5.068,48.558,7.652c18.392,2.666,36.938,5.244,54.874,7.738l1.369,0.19
		c7.973,1.108,15.946,2.216,23.918,3.336c2.299,0.322,4.596,0.655,6.888,0.989l0.32,0.047c4.565,0.661,9.286,1.346,13.956,1.926
		c1.896,0.236,3.798,0.238,5.81,0.24c0.933,0.001,1.899,0.001,2.915,0.026l4.522,0.11L-571.659-1159.506z M-582.645-1161.823
		c-4.785-0.595-9.756-1.318-14.142-1.956l-0.525-0.076c-2.132-0.309-4.264-0.618-6.398-0.917
		c-8.089-1.135-16.182-2.261-24.274-3.387l-1.435-0.2c-17.796-2.474-36.198-5.031-54.424-7.676
		c-17.761-2.576-33.59-5.07-48.391-7.625c-10.918-1.886-21.956-4.162-32.722-6.383l-5.095-1.046
		c-0.165-14.063,3.292-27.573,10.261-40.137c0.11-0.151,0.599-0.509,1.052-0.632c18.721-3.002,40.894-6.107,63.396-6.376
		c11.322-0.135,22.696-0.566,33.697-0.983l0.556-0.021c5.587-0.212,11.362-0.431,17.041-0.605c2.181-0.068,4.395-0.087,6.617-0.104
		l0.151-0.002c2.723-0.021,5.81-0.044,8.807-0.18c0.085-0.003,0.168-0.005,0.247-0.005c0.597,0,0.757,0,1.357,0.855
		c3.104,4.409,6.307,8.811,9.427,13.1l0.097,0.132c6.226,8.553,12.663,17.397,18.384,26.422
		c6.678,10.536,14.205,23.226,19.852,37.993C-580.351-1161.645-581.534-1161.686-582.645-1161.823z"/>
	<path d="M-708.727-1192.792c-0.216,0.334-0.362,0.334-0.48,0.334c-0.136,0-0.203-0.03-0.298-0.135
		c-0.113-0.126-0.182-0.435-0.182-0.82l0.063-26.344h-6.6l-0.063,22.375c-0.879,1.658-1.958,2.882-3.21,3.643
		c-1.335,0.812-2.979,1.223-4.891,1.223c-1.839,0-3.135-0.442-3.853-1.315c-0.788-0.956-1.188-2.411-1.188-4.325v-13.68
		c0-1.743-0.454-3.394-1.351-4.907c-0.881-1.481-1.915-2.601-3.073-3.325l-1.013-0.634l-4.374,4.375l1.198,1.056
		c1.336,1.177,2.013,3.141,2.013,5.835l0.002,12.921c0.182,3.367,1.283,5.951,3.273,7.681c1.952,1.697,4.645,2.559,8.004,2.559
		c3.485,0,6.583-1.145,9.24-3.406c0.338,0.614,0.792,1.182,1.363,1.699c1.34,1.212,2.92,1.827,4.697,1.827
		c1.169,0,2.236-0.217,3.177-0.646c0.978-0.45,1.854-1.211,2.604-2.263l0.828-1.162l-4.993-3.948L-708.727-1192.792z"/>
	<path d="M-693.673-1193.038c-0.081,0.153-0.129,0.221-0.414,0.221c-0.105,0-0.179-0.021-0.292-0.134
		c-0.083-0.083-0.128-0.162-0.128-0.347v-40.02h-6.6v39.96c0,2.019,0.68,3.694,2.02,4.98c1.323,1.273,3.006,1.919,5,1.919
		c1.259,0,2.418-0.299,3.447-0.889c1.065-0.611,1.836-1.409,2.29-2.37l0.522-1.106l-5.024-3.768L-693.673-1193.038z"/>
	<path d="M-664.36-1218.131c-2.449-1.478-5.243-2.227-8.306-2.227c-3.103,0-5.917,0.749-8.365,2.227
		c-2.445,1.477-4.387,3.55-5.77,6.162c-1.37,2.586-2.065,5.537-2.065,8.771c0,3.232,0.684,6.172,2.032,8.737
		c1.363,2.597,3.298,4.652,5.751,6.111c2.445,1.454,5.257,2.191,8.357,2.191c3.103,0,5.917-0.749,8.365-2.226
		c2.445-1.476,4.386-3.538,5.768-6.129c1.371-2.567,2.066-5.51,2.066-8.745c0-3.234-0.695-6.177-2.066-8.747
		C-659.976-1214.594-661.916-1216.655-664.36-1218.131z M-672.666-1214.117c1.893,0,3.519,0.437,4.97,1.335
		c1.45,0.897,2.545,2.121,3.346,3.739c0.813,1.644,1.225,3.591,1.225,5.786c0,3.331-0.868,5.93-2.653,7.944
		c-1.737,1.962-3.99,2.915-6.887,2.915c-1.934,0-3.579-0.437-5.031-1.336c-1.449-0.896-2.543-2.12-3.345-3.74
		c-0.812-1.64-1.224-3.565-1.224-5.724c0-2.162,0.414-4.112,1.229-5.796c0.801-1.653,1.894-2.893,3.339-3.789
		C-676.244-1213.681-674.599-1214.117-672.666-1214.117z"/>
	<polygon points="-637.845,-1220.718 -627.786,-1232.237 -635.836,-1232.237 -639.974,-1227.634 -644.163,-1232.237 
		-652.131,-1232.237 -642.152,-1220.718 	"/>
	<path d="M-630.608-1194.119c-1.391,0.942-2.226,1.316-2.683,1.465c-0.646,0.211-1.397,0.317-2.235,0.317
		c-2.207,0-4.248-0.351-6.063-1.041l-2.604-0.999l15.447-22.516v-2.745h-24.479v6.24h14.075l-16.955,24.772l5.544,3.657l2.532-3.961
		l4.728,1.56c4.848,1.547,9.059,1.865,12.16,0.66c1.194-0.465,2.498-1.202,3.872-2.19l1.109-0.798l-3.122-5.32L-630.608-1194.119z"
		/>
</g>
<g>
	<path d="M-938.748-969.197c-9.262-24.639-22.15-45.364-33.537-62.389c-8.793-13.145-18.541-25.865-28.017-38.231l-0.379-0.495
		c-4.569-5.966-9.294-12.134-13.837-18.265c-2.73-3.683-5.937-5.158-10.316-4.832c-4.114,0.288-8.518,0.431-12.544,0.561
		c-3.231,0.104-6.573,0.215-9.957,0.401c-8.38,0.469-16.898,0.999-25.137,1.514l-0.253,0.018
		c-16.009,1.003-32.559,2.041-48.925,2.64c-33.268,1.215-65.805,6.59-93.241,11.686c-0.351,0.064-0.716,0.151-1.075,0.263
		c-2.856,0.871-5.603,3.039-6.834,5.395c-10.601,20.269-15.475,41.887-14.49,64.256c0.144,3.263,3.362,6.898,6.627,7.482
		l8.399,1.518c15.625,2.823,31.787,5.746,47.93,8.126c21.689,3.196,44.867,6.265,70.848,9.381c26.823,3.219,53.873,6.3,80.03,9.279
		l1.998,0.229c11.627,1.325,23.256,2.65,34.882,3.992c3.354,0.387,6.701,0.787,10.046,1.19l0.468,0.06
		c6.657,0.797,13.543,1.621,20.353,2.298c2.764,0.276,5.527,0.209,8.451,0.14c1.356-0.034,2.761-0.066,4.24-0.067l6.574-0.001
		L-938.748-969.197z M-954.798-972.173c-6.976-0.692-14.228-1.564-20.623-2.335l-0.765-0.093c-3.112-0.369-6.221-0.743-9.335-1.1
		c-11.796-1.364-23.598-2.709-35.401-4.054l-2.093-0.24c-25.951-2.96-52.79-6.016-79.375-9.207c-25.904-3.108-49-6.166-70.604-9.349
		c-15.938-2.351-32.062-5.263-47.788-8.104l-7.442-1.337c-0.743-20.438,3.798-40.194,13.478-58.705
		c0.154-0.223,0.851-0.76,1.505-0.956c27.101-5.032,59.217-10.342,91.909-11.536c16.453-0.603,32.966-1.637,48.941-2.639
		l0.807-0.052c8.112-0.507,16.5-1.032,24.748-1.488c3.167-0.179,6.384-0.283,9.613-0.39l0.219-0.009
		c3.956-0.127,8.441-0.271,12.795-0.576c0.124-0.007,0.245-0.014,0.357-0.016c0.868-0.021,1.102-0.027,2.003,1.193
		c4.669,6.297,9.483,12.582,14.171,18.701l0.146,0.189c9.354,12.208,19.029,24.831,27.667,37.743
		c10.083,15.074,21.477,33.247,30.213,54.51C-951.459-971.993-953.177-972.011-954.798-972.173z"/>
</g>
<g>
	<path fill="#FFFFFF" d="M-998.617-1144.751c-5.951-17.101-14.462-31.569-22.004-43.468c-5.822-9.188-12.31-18.101-18.616-26.764
		l-0.252-0.348c-3.041-4.179-6.186-8.501-9.205-12.794c-1.815-2.578-3.994-3.648-7.011-3.497c-2.834,0.128-5.864,0.151-8.636,0.173
		c-2.225,0.018-4.524,0.036-6.854,0.107c-5.769,0.18-11.636,0.4-17.311,0.615l-0.173,0.007c-11.024,0.419-22.423,0.853-33.688,0.986
		c-22.895,0.271-45.359,3.415-64.312,6.454c-0.242,0.038-0.494,0.093-0.743,0.162c-1.979,0.552-3.905,1.995-4.792,3.594
		c-7.632,13.758-11.35,28.541-11.052,43.938c0.043,2.246,2.196,4.801,4.43,5.258l5.75,1.185c10.697,2.208,21.759,4.49,32.818,6.401
		c14.861,2.565,30.745,5.068,48.558,7.652c18.392,2.666,36.938,5.244,54.874,7.738l1.369,0.19
		c7.973,1.108,15.946,2.216,23.918,3.336c2.299,0.322,4.596,0.655,6.888,0.989l0.32,0.047c4.565,0.661,9.286,1.346,13.956,1.926
		c1.896,0.236,3.798,0.238,5.81,0.24c0.933,0.001,1.899,0.001,2.915,0.026l4.522,0.11L-998.617-1144.751z M-1009.603-1147.068
		c-4.785-0.595-9.756-1.318-14.142-1.956l-0.525-0.076c-2.132-0.309-4.264-0.618-6.398-0.917
		c-8.089-1.135-16.182-2.261-24.274-3.387l-1.435-0.2c-17.796-2.474-36.198-5.031-54.424-7.676
		c-17.761-2.576-33.59-5.07-48.391-7.625c-10.918-1.886-21.956-4.162-32.722-6.383l-5.095-1.046
		c-0.165-14.063,3.292-27.573,10.261-40.137c0.11-0.151,0.599-0.509,1.052-0.632c18.721-3.002,40.894-6.107,63.396-6.376
		c11.322-0.135,22.696-0.566,33.697-0.983l0.556-0.021c5.587-0.212,11.362-0.431,17.041-0.605c2.181-0.068,4.395-0.087,6.617-0.104
		l0.151-0.002c2.723-0.021,5.81-0.044,8.807-0.18c0.085-0.003,0.168-0.005,0.247-0.005c0.597,0,0.757,0,1.357,0.855
		c3.104,4.409,6.307,8.811,9.427,13.1l0.097,0.132c6.226,8.553,12.663,17.397,18.384,26.422
		c6.678,10.536,14.205,23.226,19.852,37.993C-1007.309-1146.89-1008.492-1146.931-1009.603-1147.068z"/>
	<path fill="#FFFFFF" d="M-1135.685-1178.037c-0.216,0.334-0.362,0.334-0.48,0.334c-0.136,0-0.203-0.03-0.298-0.135
		c-0.113-0.126-0.182-0.435-0.182-0.82l0.063-26.344h-6.6l-0.063,22.375c-0.879,1.658-1.958,2.882-3.21,3.643
		c-1.335,0.812-2.979,1.223-4.891,1.223c-1.839,0-3.135-0.442-3.853-1.315c-0.788-0.956-1.188-2.411-1.188-4.325v-13.68
		c0-1.743-0.454-3.394-1.351-4.907c-0.881-1.481-1.915-2.601-3.073-3.325l-1.013-0.634l-4.374,4.375l1.198,1.056
		c1.336,1.177,2.013,3.141,2.013,5.835l0.002,12.921c0.182,3.367,1.283,5.951,3.273,7.681c1.952,1.697,4.645,2.559,8.004,2.559
		c3.485,0,6.583-1.145,9.24-3.406c0.338,0.614,0.792,1.182,1.363,1.699c1.34,1.212,2.92,1.827,4.697,1.827
		c1.169,0,2.236-0.217,3.177-0.646c0.978-0.45,1.854-1.211,2.604-2.263l0.828-1.162l-4.993-3.948L-1135.685-1178.037z"/>
	<path fill="#FFFFFF" d="M-1120.631-1178.283c-0.081,0.153-0.129,0.221-0.414,0.221c-0.105,0-0.179-0.021-0.292-0.134
		c-0.083-0.083-0.128-0.162-0.128-0.347v-40.02h-6.6v39.96c0,2.019,0.68,3.694,2.02,4.98c1.323,1.273,3.006,1.919,5,1.919
		c1.259,0,2.418-0.299,3.447-0.889c1.065-0.611,1.836-1.409,2.29-2.37l0.522-1.106l-5.024-3.768L-1120.631-1178.283z"/>
	<path fill="#FFFFFF" d="M-1091.318-1203.376c-2.449-1.478-5.243-2.227-8.306-2.227c-3.103,0-5.917,0.749-8.365,2.227
		c-2.445,1.477-4.387,3.55-5.77,6.162c-1.37,2.586-2.065,5.537-2.065,8.771c0,3.232,0.684,6.172,2.032,8.737
		c1.363,2.597,3.298,4.652,5.751,6.111c2.445,1.454,5.257,2.191,8.357,2.191c3.103,0,5.917-0.749,8.365-2.226
		c2.445-1.476,4.386-3.538,5.768-6.129c1.371-2.567,2.066-5.51,2.066-8.745c0-3.234-0.695-6.177-2.066-8.747
		C-1086.934-1199.839-1088.874-1201.9-1091.318-1203.376z M-1099.624-1199.362c1.893,0,3.519,0.437,4.97,1.335
		c1.45,0.897,2.545,2.121,3.346,3.739c0.813,1.644,1.225,3.591,1.225,5.786c0,3.331-0.868,5.93-2.653,7.944
		c-1.737,1.962-3.99,2.915-6.887,2.915c-1.934,0-3.579-0.437-5.031-1.336c-1.449-0.896-2.543-2.12-3.345-3.74
		c-0.812-1.64-1.224-3.565-1.224-5.724c0-2.162,0.414-4.112,1.229-5.796c0.801-1.653,1.894-2.893,3.339-3.789
		C-1103.202-1198.926-1101.557-1199.362-1099.624-1199.362z"/>
	<polygon fill="#FFFFFF" points="-1064.803,-1205.963 -1054.744,-1217.482 -1062.794,-1217.482 -1066.932,-1212.879 
		-1071.121,-1217.482 -1079.089,-1217.482 -1069.11,-1205.963 	"/>
	<path fill="#FFFFFF" d="M-1057.566-1179.364c-1.391,0.942-2.226,1.316-2.683,1.465c-0.646,0.211-1.397,0.317-2.235,0.317
		c-2.207,0-4.248-0.351-6.063-1.041l-2.604-0.999l15.447-22.516v-2.745h-24.479v6.24h14.075l-16.955,24.772l5.544,3.657l2.532-3.961
		l4.728,1.56c4.848,1.547,9.059,1.865,12.16,0.66c1.194-0.465,2.498-1.202,3.872-2.19l1.109-0.798l-3.122-5.32L-1057.566-1179.364z"
		/>
</g>
<rect x="-1687.081" y="-1186.015" fill="none" width="177.666" height="122.334"/>
<text transform="matrix(1 0 0 1 -1687.0811 -1142.3955)"><tspan x="0" y="0" font-family="'Bellota-Regular'" font-size="60">ulož</tspan><tspan x="0" y="72" font-family="'Bellota-Bold'" font-size="60">uložit</tspan></text>
<g>
	<path d="M-1147.125-1019.641c-0.271,0.465-0.525,0.527-0.758,0.527c-0.098,0-0.332-0.01-0.414-0.105
		c-0.094-0.107-0.146-0.334-0.146-0.635v-25.42h-6.916l-0.063,21.242c-1.33,1.727-2.553,2.973-3.641,3.711
		c-1.066,0.721-2.412,1.088-4,1.088c-1.715,0-2.928-0.422-3.605-1.252c-0.727-0.893-1.094-2.254-1.094-4.049v-12.984
		c-0.047-1.807-0.549-3.525-1.492-5.107c-0.947-1.586-2.01-2.715-3.16-3.359l-0.635-0.357l-4.656,4.318l0.852,0.729
		c1.439,1.236,2.17,3.281,2.17,6.082v12.266c0.088,3.332,1.201,5.895,3.307,7.617c2.055,1.684,4.752,2.537,8.014,2.537
		c2.039,0,4.041-0.387,5.953-1.15c1.268-0.51,2.334-1.164,3.186-1.961c0.348,0.625,0.842,1.199,1.482,1.717
		c1.236,1.004,2.73,1.514,4.439,1.514c1.295,0,2.525-0.338,3.66-1.008c1.137-0.674,2.021-1.605,2.627-2.77l0.416-0.799l-4.99-3.299
		L-1147.125-1019.641z"/>
	<path d="M-1130.898-1019.58c-0.264,0.527-0.494,0.527-0.605,0.527c-0.209,0-0.289-0.068-0.35-0.133
		c-0.074-0.08-0.15-0.193-0.15-0.428v-39.279h-6.92v39.1c0,2.188,0.654,3.949,1.943,5.236c1.289,1.289,3.031,1.943,5.178,1.943
		c1.389,0,2.629-0.346,3.689-1.029c1.039-0.668,1.891-1.607,2.529-2.795l0.445-0.824l-5.266-3.305L-1130.898-1019.58z"/>
	<path d="M-1101.617-1044.111c-2.408-1.447-5.156-2.182-8.166-2.182c-3.016,0-5.764,0.746-8.17,2.217
		c-2.404,1.467-4.322,3.514-5.701,6.08c-1.373,2.555-2.068,5.449-2.068,8.604c0,3.156,0.686,6.029,2.039,8.543
		c1.359,2.529,3.268,4.545,5.674,5.992c2.406,1.449,5.154,2.184,8.166,2.184c3.01,0,5.766-0.732,8.191-2.18
		c2.428-1.447,4.35-3.477,5.711-6.029c1.352-2.535,2.037-5.418,2.037-8.57c0-3.15-0.684-6.043-2.035-8.598
		C-1097.301-1040.621-1099.211-1042.66-1101.617-1044.111z M-1109.783-1039.854c2.721,0,4.84,0.91,6.477,2.779
		c1.648,1.883,2.482,4.447,2.482,7.621c0,3.135-0.834,5.68-2.48,7.561c-1.639,1.871-3.758,2.779-6.479,2.779
		c-2.725,0-4.855-0.91-6.512-2.783c-1.664-1.881-2.508-4.422-2.508-7.557c0-2.076,0.389-3.926,1.158-5.502
		c0.754-1.541,1.822-2.758,3.176-3.611C-1113.119-1039.42-1111.543-1039.854-1109.783-1039.854z"/>
	<polygon points="-1075.328,-1047.533 -1065.002,-1058.594 -1073.568,-1058.594 -1077.504,-1054.227 -1081.438,-1058.594 
		-1089.934,-1058.594 -1079.68,-1047.533 	"/>
	<path d="M-1067.238-1021.016c-1.164,0.863-2.127,1.445-2.859,1.73c-0.699,0.273-1.537,0.412-2.486,0.412
		c-1.848,0-3.803-0.326-5.789-0.965l-2.367-0.828l14.797-21.617v-3.109h-24.02v6.619h13.328l-16.148,23.701l5.365,4.09l2.752-3.969
		l4.467,1.453c4.723,1.461,8.895,1.783,12.113,0.549c1.281-0.49,2.717-1.334,4.266-2.508l0.695-0.525l-3.201-5.711
		L-1067.238-1021.016z"/>
	<path d="M-1056.564-1049.152c1.105,0,2.098-0.418,2.947-1.242c0.857-0.832,1.293-1.801,1.293-2.879
		c0-1.117-0.436-2.105-1.293-2.938c-0.852-0.824-1.842-1.242-2.947-1.242c-1.07,0-2.035,0.422-2.867,1.254
		c-0.83,0.83-1.252,1.816-1.252,2.926c0,1.072,0.422,2.037,1.252,2.867C-1058.602-1049.574-1057.637-1049.152-1056.564-1049.152z"/>
	<path d="M-1051.938-1019.58c-0.264,0.527-0.494,0.527-0.605,0.527c-0.209,0-0.289-0.068-0.35-0.133
		c-0.074-0.08-0.15-0.193-0.15-0.428v-25.719h-6.92v25.539c0,2.188,0.652,3.949,1.941,5.236c1.289,1.289,3.031,1.943,5.178,1.943
		c1.389,0,2.631-0.346,3.691-1.029c1.037-0.668,1.889-1.607,2.529-2.795l0.443-0.824l-5.266-3.305L-1051.938-1019.58z"/>
	<path d="M-1030.59-1023.391l-0.445,1.131c-0.375,0.955-0.902,1.717-1.564,2.266c-0.621,0.512-1.375,0.762-2.305,0.762
		c-0.816,0-1.367-0.307-1.787-0.992c-0.5-0.816-0.752-1.861-0.752-3.107v-15.5h9.18v-6.441h-9.18v-7.74h-6.92v29.682
		c0,3.266,0.795,5.875,2.361,7.75c1.609,1.93,3.998,2.908,7.098,2.908c4.232,0,7.439-2.123,9.535-6.313l0.402-0.805
		L-1030.59-1023.391z"/>
</g>
<g>
	<path fill="#FFFFFF" d="M-1303.563-851.018c-8.373-18.279-19.301-33.383-28.887-45.746c-7.402-9.547-15.51-18.719-23.391-27.635
		l-0.314-0.357c-3.801-4.301-7.73-8.748-11.52-13.178c-2.277-2.66-4.799-3.613-8.119-3.131c-3.119,0.439-6.467,0.783-9.527,1.098
		c-2.457,0.252-4.998,0.516-7.566,0.838c-6.359,0.805-12.822,1.664-19.072,2.496l-0.191,0.027
		c-12.145,1.619-24.699,3.295-37.139,4.625c-25.283,2.703-49.789,8.537-70.422,13.885c-0.264,0.068-0.537,0.154-0.805,0.258
		c-2.131,0.816-4.107,2.615-4.92,4.477c-6.994,16.01-9.553,32.742-7.607,49.734c0.283,2.479,2.93,5.076,5.449,5.348l6.48,0.707
		c12.057,1.316,24.527,2.68,36.955,3.631c16.697,1.277,34.521,2.377,54.484,3.363c20.611,1.02,41.387,1.922,61.477,2.795
		l1.535,0.068c8.93,0.389,17.861,0.777,26.791,1.178c2.576,0.115,5.148,0.242,7.719,0.371l0.359,0.02
		c5.115,0.252,10.406,0.512,15.631,0.664c2.121,0.063,4.223-0.137,6.447-0.346c1.031-0.098,2.1-0.197,3.227-0.277l5.01-0.352
		L-1303.563-851.018z M-1315.951-852.428c-5.352-0.154-10.924-0.432-15.838-0.678l-0.588-0.029c-2.391-0.115-4.779-0.234-7.172-0.34
		c-9.061-0.408-18.125-0.803-27.191-1.197l-1.607-0.07c-19.932-0.869-40.545-1.764-60.973-2.775
		c-19.904-0.984-37.666-2.08-54.297-3.352c-12.27-0.939-24.711-2.297-36.846-3.621l-5.742-0.621
		c-1.658-15.533,0.746-30.83,7.133-45.451c0.105-0.178,0.607-0.625,1.096-0.809c20.381-5.283,44.568-11.045,69.416-13.701
		c12.504-1.338,25.031-3.008,37.15-4.625l0.611-0.082c6.154-0.82,12.518-1.668,18.777-2.457c2.404-0.305,4.85-0.557,7.305-0.811
		l0.166-0.018c3.008-0.309,6.418-0.658,9.719-1.123c0.094-0.012,0.186-0.023,0.271-0.031c0.66-0.063,0.838-0.08,1.59,0.803
		c3.895,4.549,7.898,9.08,11.797,13.492l0.121,0.137c7.779,8.803,15.826,17.904,23.098,27.281
		c8.488,10.947,18.141,24.186,25.934,39.92C-1313.396-852.469-1314.707-852.391-1315.951-852.428z"/>
</g>
<g>
	<path fill="#FFFFFF" d="M-1474.125-875.641c-0.271,0.465-0.525,0.527-0.758,0.527c-0.098,0-0.332-0.01-0.414-0.105
		c-0.094-0.107-0.146-0.334-0.146-0.635v-25.42h-6.916l-0.063,21.242c-1.33,1.727-2.553,2.973-3.641,3.711
		c-1.066,0.721-2.412,1.088-4,1.088c-1.715,0-2.928-0.422-3.605-1.252c-0.727-0.893-1.094-2.254-1.094-4.049v-12.984
		c-0.047-1.807-0.549-3.525-1.492-5.107c-0.947-1.586-2.01-2.715-3.16-3.359l-0.635-0.357l-4.656,4.318l0.852,0.729
		c1.439,1.236,2.17,3.281,2.17,6.082v12.266c0.088,3.332,1.201,5.895,3.307,7.617c2.055,1.684,4.752,2.537,8.014,2.537
		c2.039,0,4.041-0.387,5.953-1.15c1.268-0.51,2.334-1.164,3.186-1.961c0.348,0.625,0.842,1.199,1.482,1.717
		c1.236,1.004,2.73,1.514,4.439,1.514c1.295,0,2.525-0.338,3.66-1.008c1.137-0.674,2.021-1.605,2.627-2.77l0.416-0.799l-4.99-3.299
		L-1474.125-875.641z"/>
	<path fill="#FFFFFF" d="M-1457.898-875.58c-0.264,0.527-0.494,0.527-0.605,0.527c-0.209,0-0.289-0.068-0.35-0.133
		c-0.074-0.08-0.15-0.193-0.15-0.428v-39.279h-6.92v39.1c0,2.188,0.654,3.949,1.943,5.236c1.289,1.289,3.031,1.943,5.178,1.943
		c1.389,0,2.629-0.346,3.689-1.029c1.039-0.668,1.891-1.607,2.529-2.795l0.445-0.824l-5.266-3.305L-1457.898-875.58z"/>
	<path fill="#FFFFFF" d="M-1428.617-900.111c-2.408-1.447-5.156-2.182-8.166-2.182c-3.016,0-5.764,0.746-8.17,2.217
		c-2.404,1.467-4.322,3.514-5.701,6.08c-1.373,2.555-2.068,5.449-2.068,8.604c0,3.156,0.686,6.029,2.039,8.543
		c1.359,2.529,3.268,4.545,5.674,5.992c2.406,1.449,5.154,2.184,8.166,2.184c3.01,0,5.766-0.732,8.191-2.18
		c2.428-1.447,4.35-3.477,5.711-6.029c1.352-2.535,2.037-5.418,2.037-8.57c0-3.15-0.684-6.043-2.035-8.598
		C-1424.301-896.621-1426.211-898.66-1428.617-900.111z M-1436.783-895.854c2.721,0,4.84,0.91,6.477,2.779
		c1.648,1.883,2.482,4.447,2.482,7.621c0,3.135-0.834,5.68-2.48,7.561c-1.639,1.871-3.758,2.779-6.479,2.779
		c-2.725,0-4.855-0.91-6.512-2.783c-1.664-1.881-2.508-4.422-2.508-7.557c0-2.076,0.389-3.926,1.158-5.502
		c0.754-1.541,1.822-2.758,3.176-3.611C-1440.119-895.42-1438.543-895.854-1436.783-895.854z"/>
	<polygon fill="#FFFFFF" points="-1402.328,-903.533 -1392.002,-914.594 -1400.568,-914.594 -1404.504,-910.227 -1408.438,-914.594 
		-1416.934,-914.594 -1406.68,-903.533 	"/>
	<path fill="#FFFFFF" d="M-1394.238-877.016c-1.164,0.863-2.127,1.445-2.859,1.73c-0.699,0.273-1.537,0.412-2.486,0.412
		c-1.848,0-3.803-0.326-5.789-0.965l-2.367-0.828l14.797-21.617v-3.109h-24.02v6.619h13.328l-16.148,23.701l5.365,4.09l2.752-3.969
		l4.467,1.453c4.723,1.461,8.895,1.783,12.113,0.549c1.281-0.49,2.717-1.334,4.266-2.508l0.695-0.525l-3.201-5.711
		L-1394.238-877.016z"/>
	<path fill="#FFFFFF" d="M-1383.564-905.152c1.105,0,2.098-0.418,2.947-1.242c0.857-0.832,1.293-1.801,1.293-2.879
		c0-1.117-0.436-2.105-1.293-2.938c-0.852-0.824-1.842-1.242-2.947-1.242c-1.07,0-2.035,0.422-2.867,1.254
		c-0.83,0.83-1.252,1.816-1.252,2.926c0,1.072,0.422,2.037,1.252,2.867C-1385.602-905.574-1384.637-905.152-1383.564-905.152z"/>
	<path fill="#FFFFFF" d="M-1378.938-875.58c-0.264,0.527-0.494,0.527-0.605,0.527c-0.209,0-0.289-0.068-0.35-0.133
		c-0.074-0.08-0.15-0.193-0.15-0.428v-25.719h-6.92v25.539c0,2.188,0.652,3.949,1.941,5.236c1.289,1.289,3.031,1.943,5.178,1.943
		c1.389,0,2.631-0.346,3.691-1.029c1.037-0.668,1.889-1.607,2.529-2.795l0.443-0.824l-5.266-3.305L-1378.938-875.58z"/>
	<path fill="#FFFFFF" d="M-1357.59-879.391l-0.445,1.131c-0.375,0.955-0.902,1.717-1.564,2.266
		c-0.621,0.512-1.375,0.762-2.305,0.762c-0.816,0-1.367-0.307-1.787-0.992c-0.5-0.816-0.752-1.861-0.752-3.107v-15.5h9.18v-6.441
		h-9.18v-7.74h-6.92v29.682c0,3.266,0.795,5.875,2.361,7.75c1.609,1.93,3.998,2.908,7.098,2.908c4.232,0,7.439-2.123,9.535-6.313
		l0.402-0.805L-1357.59-879.391z"/>
</g>
<rect x="-882.237" y="-817.123" fill="none" width="286" height="333.441"/>
<text transform="matrix(1 0 0 1 -882.2373 -773.4434)"><tspan x="0" y="0" font-family="'Bellota-Bold'" font-size="60">Uložit</tspan><tspan x="0" y="72" font-family="'Bellota-Bold'" font-size="60">Pozadí</tspan><tspan x="0" y="144" font-family="'Bellota-Bold'" font-size="60">Výstřižky</tspan><tspan x="0" y="216" font-family="'Bellota-Bold'" font-size="60">xX    </tspan></text>
<path fill="#FFFFFF" d="M52.226,76.477c-2.36-1.539-4.17-3.59-5.43-6.149c-1.261-2.56-1.891-5.34-1.891-8.34V42.727
	c0-0.6-0.16-1.13-0.479-1.59c-0.321-0.459-0.82-0.689-1.5-0.689c-0.96,0-1.66,0.34-2.101,1.02l-3.3-2.46
	c0.399-0.8,1.069-1.51,2.01-2.13c0.939-0.62,2.13-0.93,3.57-0.93c2.12,0,3.77,0.63,4.95,1.89c1.179,1.26,1.77,2.891,1.77,4.89
	v19.261c0,2.24,0.42,4.289,1.261,6.149c0.84,1.86,2.069,3.351,3.689,4.47c1.62,1.121,3.55,1.681,5.79,1.681
	c2.359,0,4.34-0.59,5.94-1.771c1.599-1.179,2.79-2.709,3.569-4.59c0.78-1.88,1.17-3.859,1.17-5.939V37.026h4.92v24.961
	c0,2.8-0.58,5.489-1.739,8.069c-1.161,2.58-2.91,4.681-5.25,6.3c-2.34,1.62-5.19,2.431-8.551,2.431
	C57.386,78.787,54.585,78.017,52.226,76.477z"/>
<path fill="#FFFFFF" d="M90.745,73.776c0.279,0.301,0.64,0.45,1.08,0.45c0.639,0,1.14-0.359,1.5-1.08l3.54,2.221
	c-0.561,1.04-1.29,1.851-2.19,2.43c-0.899,0.579-1.95,0.87-3.149,0.87c-1.881,0-3.371-0.551-4.471-1.65
	c-1.101-1.1-1.649-2.609-1.649-4.529V34.387h4.92v38.28C90.325,73.107,90.465,73.477,90.745,73.776z"/>
<path fill="#FFFFFF" d="M105.835,76.566c-2.26-1.359-4.03-3.229-5.31-5.609c-1.281-2.38-1.92-5.07-1.92-8.07s0.649-5.709,1.95-8.13
	c1.299-2.42,3.079-4.32,5.34-5.7c2.259-1.38,4.809-2.069,7.649-2.069c2.84,0,5.39,0.68,7.65,2.039
	c2.259,1.36,4.029,3.251,5.31,5.671s1.92,5.13,1.92,8.13s-0.64,5.699-1.92,8.1s-3.06,4.28-5.34,5.64c-2.28,1.36-4.84,2.04-7.68,2.04
	C110.645,78.606,108.095,77.927,105.835,76.566z M120.775,71.047c1.819-2.079,2.729-4.819,2.729-8.22c0-3.44-0.91-6.2-2.729-8.28
	c-1.821-2.079-4.23-3.12-7.23-3.12c-1.96,0-3.7,0.48-5.22,1.44c-1.521,0.96-2.7,2.3-3.54,4.02c-0.84,1.721-1.26,3.7-1.26,5.94
	c0,3.4,0.92,6.141,2.76,8.22c1.84,2.08,4.26,3.12,7.26,3.12S118.954,73.127,120.775,71.047z"/>
<path fill="#FFFFFF" d="M148.585,52.507h-14.22v-4.62h22.02v1.8l-15.359,22.44l3.6,1.26c2.12,0.681,4.16,1.021,6.12,1.021
	c1.08,0,2.029-0.16,2.85-0.48c0.819-0.319,1.85-0.939,3.091-1.86l2.22,3.96c-1.48,1.121-2.82,1.911-4.021,2.37
	c-1.199,0.46-2.54,0.69-4.02,0.69c-2.241,0-4.721-0.42-7.44-1.26l-5.16-1.681l-2.579,3.721l-3.78-2.88L148.585,52.507z
	 M135.686,34.687h5.76l4.38,4.86l4.38-4.86h5.82l-8.46,9.061h-3.48L135.686,34.687z"/>
<path fill="#FFFFFF" d="M164.604,41.167c-0.64-0.64-0.96-1.359-0.96-2.16c0-0.84,0.32-1.58,0.96-2.22s1.359-0.96,2.16-0.96
	c0.84,0,1.59,0.32,2.25,0.96s0.99,1.38,0.99,2.22c0,0.801-0.33,1.521-0.99,2.16c-0.66,0.641-1.41,0.96-2.25,0.96
	C165.964,42.127,165.244,41.808,164.604,41.167z M169.705,73.776c0.279,0.301,0.64,0.45,1.08,0.45c0.639,0,1.14-0.359,1.5-1.08
	l3.54,2.221c-0.561,1.04-1.29,1.851-2.19,2.43c-0.899,0.579-1.95,0.87-3.149,0.87c-1.881,0-3.371-0.551-4.471-1.65
	c-1.101-1.1-1.649-2.609-1.649-4.529v-24.54h4.92v24.72C169.285,73.107,169.425,73.477,169.705,73.776z"/>
<path fill="#FFFFFF" d="M182.095,76.057c-1.42-1.699-2.13-4.069-2.13-7.109V40.267h4.92v7.74h9.18v4.44h-9.18v16.5
	c0,1.439,0.3,2.649,0.9,3.63c0.6,0.98,1.479,1.47,2.64,1.47c1.159,0,2.14-0.33,2.94-0.99c0.799-0.66,1.419-1.55,1.859-2.67
	l3.84,2.46c-1.92,3.84-4.8,5.76-8.64,5.76C185.624,78.606,183.514,77.758,182.095,76.057z"/>
<path d="M-269.54,38.625c-0.44,0.36-0.7,1.021-0.78,1.98l-4.5-0.06c0-2.4,0.74-4.24,2.22-5.521c1.2-1.08,2.96-1.62,5.28-1.62h13.26
	c2.439,0,4.561,0.57,6.36,1.71c1.8,1.141,3.18,2.7,4.14,4.681c0.96,1.979,1.44,4.19,1.44,6.63c0,4.36-1.26,7.649-3.78,9.87
	c-2.52,2.22-5.82,3.329-9.899,3.329c-1.401,0-2.901-0.199-4.5-0.6v-4.38c1.68,0.28,3.099,0.42,4.26,0.42c6,0,9-2.859,9-8.58
	c0-2.84-0.7-4.97-2.101-6.39s-3.32-2.13-5.76-2.13h-7.56v36.659h-4.92v-36.54C-268.421,38.085-269.141,38.266-269.54,38.625z"/>
<path d="M-231.651,73.125c-2.26-1.359-4.03-3.229-5.31-5.609c-1.281-2.38-1.92-5.07-1.92-8.07s0.649-5.709,1.95-8.13
	c1.299-2.42,3.079-4.32,5.34-5.7c2.259-1.38,4.809-2.069,7.649-2.069c2.84,0,5.39,0.68,7.65,2.039
	c2.259,1.36,4.029,3.251,5.31,5.671s1.92,5.13,1.92,8.13s-0.64,5.699-1.92,8.1s-3.06,4.28-5.34,5.64c-2.28,1.36-4.84,2.04-7.68,2.04
	C-226.842,75.165-229.392,74.485-231.651,73.125z M-216.711,67.605c1.819-2.079,2.729-4.819,2.729-8.22c0-3.44-0.91-6.2-2.729-8.28
	c-1.821-2.079-4.23-3.12-7.23-3.12c-1.96,0-3.7,0.48-5.22,1.44c-1.521,0.96-2.7,2.3-3.54,4.02c-0.84,1.721-1.26,3.7-1.26,5.94
	c0,3.4,0.92,6.141,2.76,8.22c1.84,2.08,4.26,3.12,7.26,3.12S-218.532,69.686-216.711,67.605z"/>
<path d="M-188.901,49.065h-14.22v-4.62h22.02v1.8l-15.359,22.44l3.6,1.26c2.12,0.681,4.16,1.021,6.12,1.021
	c1.08,0,2.029-0.16,2.85-0.48c0.819-0.319,1.85-0.939,3.091-1.86l2.22,3.96c-1.48,1.121-2.82,1.911-4.021,2.37
	c-1.199,0.46-2.54,0.69-4.02,0.69c-2.241,0-4.721-0.42-7.44-1.26l-5.16-1.681l-2.579,3.721l-3.78-2.88L-188.901,49.065z"/>
<path d="M-168.472,73.035c-1.94-1.419-3.42-3.33-4.44-5.729c-1.02-2.4-1.529-5-1.529-7.8c0-3.04,0.579-5.761,1.739-8.16
	c1.16-2.4,2.87-4.3,5.13-5.7c2.26-1.399,4.97-2.1,8.131-2.1c0.919,0,2.069,0.05,3.449,0.149c1.381,0.101,2.551,0.23,3.511,0.39h4.02
	v24.9c0,0.561,0.13,0.99,0.39,1.29s0.65,0.45,1.171,0.45c0.68,0,1.22-0.34,1.619-1.021l3.36,2.221c-0.521,1-1.271,1.79-2.25,2.37
	c-0.98,0.579-2.03,0.869-3.15,0.869c-1.479,0-2.75-0.43-3.81-1.29c-1.061-0.859-1.63-1.869-1.71-3.029v0.06
	c-0.681,1.32-1.82,2.36-3.42,3.12c-1.601,0.76-3.36,1.14-5.28,1.14C-164.222,75.165-166.532,74.456-168.472,73.035z
	 M-156.922,69.466c1.239-0.841,2.18-1.899,2.82-3.181c0.359-0.68,0.569-1.26,0.63-1.739c0.06-0.48,0.09-1.021,0.09-1.62V48.405
	l-2.52-0.18c-2.001-0.159-3.341-0.24-4.021-0.24c-3.04,0-5.4,1.08-7.08,3.24s-2.52,4.9-2.52,8.22c0,3.081,0.739,5.73,2.22,7.95
	c1.479,2.22,3.52,3.33,6.12,3.33C-159.582,70.726-158.162,70.306-156.922,69.466z"/>
<path d="M-134.122,73.035c-2-1.419-3.49-3.319-4.47-5.7c-0.98-2.379-1.47-4.989-1.47-7.829c0-3.04,0.609-5.77,1.83-8.19
	c1.219-2.42,2.959-4.32,5.22-5.7c2.259-1.38,4.89-2.069,7.89-2.069c1.2,0,3.24,0.141,6.12,0.42v-13.08h4.92v38.1
	c0,0.561,0.13,0.99,0.39,1.29s0.65,0.45,1.171,0.45c0.68,0,1.22-0.36,1.619-1.08l3.421,2.22c-0.521,1.041-1.29,1.851-2.311,2.431
	c-1.02,0.579-2.11,0.869-3.27,0.869c-1.44-0.04-2.681-0.479-3.721-1.319s-1.6-1.82-1.68-2.94c-0.761,1.36-1.92,2.41-3.48,3.15
	c-1.56,0.739-3.18,1.109-4.859,1.109C-129.682,75.165-132.122,74.456-134.122,73.035z M-122.602,69.525
	c1.239-0.8,2.199-1.88,2.88-3.24c0.479-1.039,0.72-2.16,0.72-3.359V48.705c-0.36-0.039-1.02-0.159-1.979-0.359
	c-0.961-0.2-1.941-0.3-2.94-0.3c-3.72,0-6.521,1.02-8.4,3.06s-2.819,4.721-2.819,8.04c0,3.28,0.75,6.03,2.25,8.25
	s3.529,3.33,6.09,3.33C-125.242,70.726-123.842,70.326-122.602,69.525z"/>
<path d="M-97.223,70.335c0.279,0.301,0.64,0.45,1.08,0.45c0.639,0,1.14-0.359,1.5-1.08l3.54,2.221c-0.561,1.04-1.29,1.851-2.19,2.43
	c-0.899,0.579-1.95,0.87-3.149,0.87c-1.881,0-3.371-0.551-4.471-1.65c-1.101-1.1-1.649-2.609-1.649-4.529v-24.54h4.92v24.72
	C-97.643,69.666-97.503,70.035-97.223,70.335z M-102.083,38.865l5.94-11.7l4.38,2.4l-7.14,11.22L-102.083,38.865z"/>
<path d="M-644.032,30.679c-0.12,0-0.3,0.04-0.54,0.12c-0.321,0.16-0.521,0.34-0.601,0.54l-3.42-2.58
	c0.601-0.999,1.561-1.779,2.88-2.34c0.841-0.32,1.6-0.48,2.28-0.48c1.119,0,2.14,0.36,3.061,1.08c0.919,0.72,1.619,1.721,2.1,3
	l10.02,27.96l0.601,2.28l0.6-2.4l10.98-31.439h4.92l-14.28,41.279h-4.439l-12.9-35.88C-643.053,31.06-643.473,30.679-644.032,30.679
	z"/>
<path d="M-595.192,82.908c-1.439-0.86-2.57-2.039-3.39-3.539c-0.82-1.5-1.229-3.171-1.229-5.011c0-1.4,0.289-2.7,0.869-3.899
	c0.58-1.2,1.37-2.141,2.37-2.82c-2.68-0.36-4.77-1.32-6.27-2.88c-1.5-1.561-2.25-3.52-2.25-5.88v-12.36
	c0-3.12-0.84-5.399-2.521-6.84l3.301-3.06c0.999,0.561,1.929,1.56,2.79,3c0.859,1.439,1.31,2.979,1.35,4.619v13.141
	c0,2.08,0.459,3.62,1.38,4.62c0.92,1,2.34,1.5,4.26,1.5c1.561,0,2.92-0.301,4.08-0.9s2.36-1.62,3.601-3.06
	c0.68-0.8,1.02-1.66,1.02-2.58l0.061-19.32h4.92l-0.061,21.3v14.7c0,3.12-0.891,5.66-2.67,7.62c-1.78,1.959-4.07,2.939-6.87,2.939
	C-592.172,84.198-593.752,83.769-595.192,82.908z M-596.152,31.818l7.86-10.5l3.9,3.12l-9,9.84L-596.152,31.818z M-587.002,77.929
	c0.859-1.021,1.29-2.37,1.29-4.05v-9.66c-0.761,1-1.74,1.9-2.94,2.7c-1,0.681-1.84,1.2-2.52,1.56c-1.44,0.76-2.45,1.569-3.03,2.43
	s-0.87,1.97-0.87,3.33c0,1.6,0.41,2.87,1.23,3.811c0.819,0.939,1.93,1.41,3.33,1.41C-589.032,79.459-587.862,78.948-587.002,77.929z
	"/>
<path d="M-574.433,63.198l2.82-3.3c1.52,1.32,2.96,2.291,4.32,2.91c1.359,0.621,2.799,0.93,4.319,0.93c1.96,0,3.51-0.429,4.65-1.29
	c1.14-0.859,1.71-2.049,1.71-3.569c0-0.92-0.23-1.659-0.69-2.221c-0.46-0.56-1.12-1.05-1.979-1.47c-0.86-0.42-2.29-1.029-4.29-1.83
	c-2.2-0.879-3.91-1.649-5.13-2.31c-1.221-0.66-2.19-1.5-2.91-2.521c-0.72-1.02-1.08-2.289-1.08-3.81c0-2.479,0.879-4.479,2.64-6
	c1.76-1.52,4.04-2.28,6.84-2.28c1.641,0,3.29,0.271,4.95,0.811c1.659,0.54,2.971,1.229,3.931,2.069l-2.101,3.54
	c-1.8-1.319-3.899-1.979-6.3-1.979c-1.521,0-2.73,0.311-3.63,0.93c-0.9,0.621-1.351,1.47-1.351,2.55c0,1.12,0.45,1.99,1.351,2.61
	c0.899,0.62,2.449,1.37,4.649,2.25c2.48,1,4.42,1.9,5.82,2.7c1.399,0.801,2.46,1.73,3.18,2.79c0.721,1.06,1.08,2.391,1.08,3.989
	c0,2.841-1.04,5.141-3.119,6.9c-2.081,1.761-4.761,2.64-8.04,2.64C-567.193,68.238-571.072,66.559-574.433,63.198z"/>
<path d="M-543.743,65.688c-1.42-1.699-2.13-4.069-2.13-7.109V29.898h4.92v7.74h9.18v4.44h-9.18v16.5c0,1.439,0.3,2.649,0.9,3.63
	c0.6,0.98,1.479,1.47,2.64,1.47c1.159,0,2.14-0.33,2.94-0.99c0.799-0.66,1.419-1.55,1.859-2.67l3.84,2.46
	c-1.92,3.84-4.8,5.76-8.64,5.76C-540.214,68.238-542.324,67.39-543.743,65.688z"/>
<path d="M-506.214,37.219l-0.12,4.74c-1.601-0.44-2.901-0.66-3.9-0.66c-1.881,0-3.34,0.44-4.38,1.32c-1.2,0.96-2.24,2.24-3.12,3.84
	v21.239h-4.92V46.459c0-3.12-0.84-5.4-2.521-6.84l3.301-3.061c0.6,0.36,1.209,0.9,1.83,1.62c0.619,0.72,1.129,1.54,1.529,2.46
	c0.88-1.119,1.779-1.98,2.7-2.58c1.52-0.96,3.34-1.439,5.46-1.439C-509.194,36.619-507.814,36.819-506.214,37.219z M-524.154,24.559
	h5.76l4.38,4.86l4.38-4.86h5.82l-8.46,9.061h-3.479L-524.154,24.559z"/>
<path d="M-500.575,30.799c-0.64-0.64-0.96-1.359-0.96-2.16c0-0.84,0.32-1.58,0.96-2.22s1.359-0.96,2.16-0.96
	c0.84,0,1.59,0.32,2.25,0.96s0.99,1.38,0.99,2.22c0,0.801-0.33,1.521-0.99,2.16c-0.66,0.641-1.41,0.96-2.25,0.96
	C-499.216,31.759-499.936,31.439-500.575,30.799z M-495.475,63.408c0.279,0.301,0.64,0.45,1.08,0.45c0.639,0,1.14-0.359,1.5-1.08
	l3.54,2.221c-0.561,1.04-1.29,1.851-2.19,2.43c-0.899,0.579-1.95,0.87-3.149,0.87c-1.881,0-3.371-0.551-4.471-1.65
	c-1.101-1.1-1.649-2.609-1.649-4.529v-24.54h4.92v24.72C-495.895,62.739-495.755,63.108-495.475,63.408z"/>
<path d="M-470.815,42.139h-14.22v-4.62h22.02v1.8l-15.359,22.44l3.6,1.26c2.12,0.681,4.16,1.021,6.12,1.021
	c1.08,0,2.029-0.16,2.85-0.48c0.819-0.319,1.85-0.939,3.091-1.86l2.22,3.96c-1.48,1.121-2.82,1.911-4.021,2.37
	c-1.199,0.46-2.54,0.69-4.02,0.69c-2.241,0-4.721-0.42-7.44-1.26l-5.16-1.681l-2.579,3.721l-3.78-2.88L-470.815,42.139z
	 M-483.715,24.318h5.76l4.38,4.86l4.38-4.86h5.82l-8.46,9.061h-3.48L-483.715,24.318z"/>
<path d="M-449.936,23.959l0.061,17.34c0.68-1.359,1.859-2.5,3.539-3.42c1.681-0.92,3.36-1.38,5.04-1.38c1.84,0,3.5,0.42,4.98,1.26
	c1.479,0.84,2.64,1.99,3.479,3.45c0.841,1.46,1.261,3.11,1.261,4.949c0,2.121-0.501,3.911-1.5,5.37
	c-1.001,1.461-2.301,2.49-3.9,3.091l4.021,6.899c0.399,0.681,0.729,1.161,0.989,1.44c0.26,0.28,0.57,0.42,0.931,0.42
	c0.239,0,0.47-0.069,0.689-0.21c0.22-0.14,0.35-0.31,0.391-0.511l3.779,2.641c-0.4,0.88-1.07,1.601-2.01,2.16
	c-0.94,0.56-1.931,0.84-2.97,0.84c-1.08,0-2.061-0.261-2.94-0.78s-1.58-1.22-2.1-2.1l-5.34-9.36h-8.4v11.58h-4.8v-43.68H-449.936z
	 M-439.676,50.719c1.16-0.48,2.011-1.11,2.551-1.89c0.539-0.78,0.81-1.75,0.81-2.91c0-1.44-0.46-2.63-1.38-3.57
	c-0.921-0.939-2.16-1.41-3.72-1.41c-1.761,0-3.33,0.621-4.71,1.86c-1.381,1.24-2.391,3-3.03,5.28c-0.28,1-0.461,2.181-0.54,3.54
	h5.82C-442.516,51.619-441.115,51.318-439.676,50.719z"/>
<path d="M-411.596,82.908c-1.439-0.86-2.57-2.039-3.39-3.539c-0.82-1.5-1.229-3.171-1.229-5.011c0-1.4,0.289-2.7,0.869-3.899
	c0.58-1.2,1.37-2.141,2.37-2.82c-2.68-0.36-4.77-1.32-6.27-2.88c-1.5-1.561-2.25-3.52-2.25-5.88v-12.36
	c0-3.12-0.84-5.399-2.521-6.84l3.301-3.06c0.999,0.561,1.929,1.56,2.79,3c0.859,1.439,1.31,2.979,1.35,4.619v13.141
	c0,2.08,0.459,3.62,1.38,4.62c0.92,1,2.34,1.5,4.26,1.5c1.561,0,2.92-0.301,4.08-0.9s2.36-1.62,3.601-3.06
	c0.68-0.8,1.02-1.66,1.02-2.58l0.061-19.32h4.92l-0.061,21.3v14.7c0,3.12-0.891,5.66-2.67,7.62c-1.78,1.959-4.07,2.939-6.87,2.939
	C-408.575,84.198-410.155,83.769-411.596,82.908z M-403.405,77.929c0.859-1.021,1.29-2.37,1.29-4.05v-9.66
	c-0.761,1-1.74,1.9-2.94,2.7c-1,0.681-1.84,1.2-2.52,1.56c-1.44,0.76-2.45,1.569-3.03,2.43s-0.87,1.97-0.87,3.33
	c0,1.6,0.41,2.87,1.23,3.811c0.819,0.939,1.93,1.41,3.33,1.41C-405.436,79.459-404.266,78.948-403.405,77.929z"/>
<path d="M-1026.025-294.52c-2.36-1.539-4.17-3.59-5.43-6.149c-1.261-2.56-1.891-5.34-1.891-8.34v-19.261c0-0.6-0.16-1.13-0.479-1.59
	c-0.321-0.459-0.82-0.689-1.5-0.689c-0.96,0-1.66,0.34-2.101,1.02l-3.3-2.46c0.399-0.8,1.069-1.51,2.01-2.13
	c0.939-0.62,2.13-0.93,3.57-0.93c2.12,0,3.77,0.63,4.95,1.89c1.179,1.26,1.77,2.891,1.77,4.89v19.261c0,2.24,0.42,4.289,1.261,6.149
	c0.84,1.86,2.069,3.351,3.689,4.47c1.62,1.121,3.55,1.681,5.79,1.681c2.359,0,4.34-0.59,5.94-1.771
	c1.599-1.179,2.79-2.709,3.569-4.59c0.78-1.88,1.17-3.859,1.17-5.939v-24.961h4.92v24.961c0,2.8-0.58,5.489-1.739,8.069
	c-1.161,2.58-2.91,4.681-5.25,6.3c-2.34,1.62-5.19,2.431-8.551,2.431C-1020.865-292.209-1023.666-292.979-1026.025-294.52z"/>
<path d="M-987.506-297.22c0.279,0.301,0.64,0.45,1.08,0.45c0.639,0,1.14-0.359,1.5-1.08l3.54,2.221
	c-0.561,1.04-1.29,1.851-2.19,2.43c-0.899,0.579-1.95,0.87-3.149,0.87c-1.881,0-3.371-0.551-4.471-1.65
	c-1.101-1.1-1.649-2.609-1.649-4.529v-38.101h4.92v38.28C-987.926-297.889-987.786-297.52-987.506-297.22z"/>
<path d="M-972.416-294.43c-2.26-1.359-4.03-3.229-5.31-5.609c-1.281-2.38-1.92-5.07-1.92-8.07s0.649-5.709,1.95-8.13
	c1.299-2.42,3.079-4.32,5.34-5.7c2.259-1.38,4.809-2.069,7.649-2.069c2.84,0,5.39,0.68,7.65,2.039
	c2.259,1.36,4.029,3.251,5.31,5.671s1.92,5.13,1.92,8.13s-0.64,5.699-1.92,8.1s-3.06,4.28-5.34,5.64c-2.28,1.36-4.84,2.04-7.68,2.04
	C-967.606-292.39-970.156-293.069-972.416-294.43z M-957.476-299.949c1.819-2.079,2.729-4.819,2.729-8.22
	c0-3.44-0.91-6.2-2.729-8.28c-1.821-2.079-4.23-3.12-7.23-3.12c-1.96,0-3.7,0.48-5.22,1.44c-1.521,0.96-2.7,2.3-3.54,4.02
	c-0.84,1.721-1.26,3.7-1.26,5.94c0,3.4,0.92,6.141,2.76,8.22c1.84,2.08,4.26,3.12,7.26,3.12S-959.297-297.869-957.476-299.949z"/>
<path d="M-929.666-318.489h-14.22v-4.62h22.02v1.8l-15.359,22.44l3.6,1.26c2.12,0.681,4.16,1.021,6.12,1.021
	c1.08,0,2.029-0.16,2.85-0.48c0.819-0.319,1.85-0.939,3.091-1.86l2.22,3.96c-1.48,1.121-2.82,1.911-4.021,2.37
	c-1.199,0.46-2.54,0.69-4.02,0.69c-2.241,0-4.721-0.42-7.44-1.26l-5.16-1.681l-2.579,3.721l-3.78-2.88L-929.666-318.489z
	 M-942.565-336.31h5.76l4.38,4.86l4.38-4.86h5.82l-8.46,9.061h-3.48L-942.565-336.31z"/>
<path d="M-913.646-329.829c-0.64-0.64-0.96-1.359-0.96-2.16c0-0.84,0.32-1.58,0.96-2.22s1.359-0.96,2.16-0.96
	c0.84,0,1.59,0.32,2.25,0.96s0.99,1.38,0.99,2.22c0,0.801-0.33,1.521-0.99,2.16c-0.66,0.641-1.41,0.96-2.25,0.96
	C-912.287-328.869-913.007-329.188-913.646-329.829z M-908.546-297.22c0.279,0.301,0.64,0.45,1.08,0.45c0.639,0,1.14-0.359,1.5-1.08
	l3.54,2.221c-0.561,1.04-1.29,1.851-2.19,2.43c-0.899,0.579-1.95,0.87-3.149,0.87c-1.881,0-3.371-0.551-4.471-1.65
	c-1.101-1.1-1.649-2.609-1.649-4.529v-24.54h4.92v24.72C-908.966-297.889-908.826-297.52-908.546-297.22z"/>
<path d="M-896.156-294.939c-1.42-1.699-2.13-4.069-2.13-7.109v-28.681h4.92v7.74h9.18v4.44h-9.18v16.5c0,1.439,0.3,2.649,0.9,3.63
	c0.6,0.98,1.479,1.47,2.64,1.47c1.159,0,2.14-0.33,2.94-0.99c0.799-0.66,1.419-1.55,1.859-2.67l3.84,2.46
	c-1.92,3.84-4.8,5.76-8.64,5.76C-892.627-292.39-894.737-293.238-896.156-294.939z"/>
<path d="M-1036.404-234.928c-0.44,0.36-0.7,1.021-0.78,1.98l-4.5-0.06c0-2.4,0.74-4.24,2.22-5.521c1.2-1.08,2.96-1.62,5.28-1.62
	h13.26c2.439,0,4.561,0.57,6.36,1.71c1.8,1.141,3.18,2.7,4.14,4.681c0.96,1.979,1.44,4.19,1.44,6.63c0,4.36-1.26,7.649-3.78,9.87
	c-2.52,2.22-5.82,3.329-9.899,3.329c-1.401,0-2.901-0.199-4.5-0.6v-4.38c1.68,0.28,3.099,0.42,4.26,0.42c6,0,9-2.859,9-8.58
	c0-2.84-0.7-4.97-2.101-6.39s-3.32-2.13-5.76-2.13h-7.56v36.659h-4.92v-36.54C-1035.285-235.468-1036.005-235.287-1036.404-234.928z
	"/>
<path d="M-998.516-200.428c-2.26-1.359-4.03-3.229-5.31-5.609c-1.281-2.38-1.92-5.07-1.92-8.07s0.649-5.709,1.95-8.13
	c1.299-2.42,3.079-4.32,5.34-5.7c2.259-1.38,4.809-2.069,7.649-2.069c2.84,0,5.39,0.68,7.65,2.039
	c2.259,1.36,4.029,3.251,5.31,5.671s1.92,5.13,1.92,8.13s-0.64,5.699-1.92,8.1s-3.06,4.28-5.34,5.64c-2.28,1.36-4.84,2.04-7.68,2.04
	C-993.706-198.388-996.256-199.067-998.516-200.428z M-983.575-205.947c1.819-2.079,2.729-4.819,2.729-8.22
	c0-3.44-0.91-6.2-2.729-8.28c-1.821-2.079-4.23-3.12-7.23-3.12c-1.96,0-3.7,0.48-5.22,1.44c-1.521,0.96-2.7,2.3-3.54,4.02
	c-0.84,1.721-1.26,3.7-1.26,5.94c0,3.4,0.92,6.141,2.76,8.22c1.84,2.08,4.26,3.12,7.26,3.12S-985.396-203.867-983.575-205.947z"/>
<path d="M-955.766-224.487h-14.22v-4.62h22.02v1.8l-15.359,22.44l3.6,1.26c2.12,0.681,4.16,1.021,6.12,1.021
	c1.08,0,2.029-0.16,2.85-0.48c0.819-0.319,1.85-0.939,3.091-1.86l2.22,3.96c-1.48,1.121-2.82,1.911-4.021,2.37
	c-1.199,0.46-2.54,0.69-4.02,0.69c-2.241,0-4.721-0.42-7.44-1.26l-5.16-1.681l-2.579,3.721l-3.78-2.88L-955.766-224.487z"/>
<path d="M-935.336-200.518c-1.94-1.419-3.42-3.33-4.44-5.729c-1.02-2.4-1.529-5-1.529-7.8c0-3.04,0.579-5.761,1.739-8.16
	c1.16-2.4,2.87-4.3,5.13-5.7c2.26-1.399,4.97-2.1,8.131-2.1c0.919,0,2.069,0.05,3.449,0.149c1.381,0.101,2.551,0.23,3.511,0.39h4.02
	v24.9c0,0.561,0.13,0.99,0.39,1.29s0.65,0.45,1.171,0.45c0.68,0,1.22-0.34,1.619-1.021l3.36,2.221c-0.521,1-1.271,1.79-2.25,2.37
	c-0.98,0.579-2.03,0.869-3.15,0.869c-1.479,0-2.75-0.43-3.81-1.29c-1.061-0.859-1.63-1.869-1.71-3.029v0.06
	c-0.681,1.32-1.82,2.36-3.42,3.12c-1.601,0.76-3.36,1.14-5.28,1.14C-931.086-198.388-933.396-199.097-935.336-200.518z
	 M-923.786-204.087c1.239-0.841,2.18-1.899,2.82-3.181c0.359-0.68,0.569-1.26,0.63-1.739c0.06-0.48,0.09-1.021,0.09-1.62v-14.521
	l-2.52-0.18c-2.001-0.159-3.341-0.24-4.021-0.24c-3.04,0-5.4,1.08-7.08,3.24s-2.52,4.9-2.52,8.22c0,3.081,0.739,5.73,2.22,7.95
	c1.479,2.22,3.52,3.33,6.12,3.33C-926.446-202.827-925.026-203.247-923.786-204.087z"/>
<path d="M-900.986-200.518c-2-1.419-3.49-3.319-4.47-5.7c-0.98-2.379-1.47-4.989-1.47-7.829c0-3.04,0.609-5.77,1.83-8.19
	c1.219-2.42,2.959-4.32,5.22-5.7c2.259-1.38,4.89-2.069,7.89-2.069c1.2,0,3.24,0.141,6.12,0.42v-13.08h4.92v38.1
	c0,0.561,0.13,0.99,0.39,1.29s0.65,0.45,1.171,0.45c0.68,0,1.22-0.36,1.619-1.08l3.421,2.22c-0.521,1.041-1.29,1.851-2.311,2.431
	c-1.02,0.579-2.11,0.869-3.27,0.869c-1.44-0.04-2.681-0.479-3.721-1.319s-1.6-1.82-1.68-2.94c-0.761,1.36-1.92,2.41-3.48,3.15
	c-1.56,0.739-3.18,1.109-4.859,1.109C-896.546-198.388-898.986-199.097-900.986-200.518z M-889.466-204.027
	c1.239-0.8,2.199-1.88,2.88-3.24c0.479-1.039,0.72-2.16,0.72-3.359v-14.221c-0.36-0.039-1.02-0.159-1.979-0.359
	c-0.961-0.2-1.941-0.3-2.94-0.3c-3.72,0-6.521,1.02-8.4,3.06s-2.819,4.721-2.819,8.04c0,3.28,0.75,6.03,2.25,8.25
	s3.529,3.33,6.09,3.33C-892.106-202.827-890.706-203.227-889.466-204.027z"/>
<path d="M-864.087-203.218c0.279,0.301,0.64,0.45,1.08,0.45c0.639,0,1.14-0.359,1.5-1.08l3.54,2.221
	c-0.561,1.04-1.29,1.851-2.19,2.43c-0.899,0.579-1.95,0.87-3.149,0.87c-1.881,0-3.371-0.551-4.471-1.65
	c-1.101-1.1-1.649-2.609-1.649-4.529v-24.54h4.92v24.72C-864.507-203.887-864.367-203.518-864.087-203.218z M-868.947-234.688
	l5.94-11.7l4.38,2.4l-7.14,11.22L-868.947-234.688z"/>
<path d="M-1029.625-128.776c-0.12,0-0.3,0.04-0.54,0.12c-0.321,0.16-0.521,0.34-0.601,0.54l-3.42-2.58
	c0.601-0.999,1.561-1.779,2.88-2.34c0.841-0.32,1.6-0.48,2.28-0.48c1.119,0,2.14,0.36,3.061,1.08c0.919,0.72,1.619,1.721,2.1,3
	l10.02,27.96l0.601,2.28l0.6-2.4l10.98-31.439h4.92l-14.28,41.279h-4.439l-12.9-35.88
	C-1028.646-128.396-1029.065-128.776-1029.625-128.776z"/>
<path d="M-980.785-76.547c-1.439-0.86-2.57-2.039-3.39-3.539c-0.82-1.5-1.229-3.171-1.229-5.011c0-1.4,0.289-2.7,0.869-3.899
	c0.58-1.2,1.37-2.141,2.37-2.82c-2.68-0.36-4.77-1.32-6.27-2.88c-1.5-1.561-2.25-3.52-2.25-5.88v-12.36
	c0-3.12-0.84-5.399-2.521-6.84l3.301-3.06c0.999,0.561,1.929,1.56,2.79,3c0.859,1.439,1.31,2.979,1.35,4.619v13.141
	c0,2.08,0.459,3.62,1.38,4.62c0.92,1,2.34,1.5,4.26,1.5c1.561,0,2.92-0.301,4.08-0.9s2.36-1.62,3.601-3.06
	c0.68-0.8,1.02-1.66,1.02-2.58l0.061-19.32h4.92l-0.061,21.3v14.7c0,3.12-0.891,5.66-2.67,7.62c-1.78,1.959-4.07,2.939-6.87,2.939
	C-977.765-75.257-979.345-75.687-980.785-76.547z M-981.745-127.637l7.86-10.5l3.9,3.12l-9,9.84L-981.745-127.637z M-972.595-81.526
	c0.859-1.021,1.29-2.37,1.29-4.05v-9.66c-0.761,1-1.74,1.9-2.94,2.7c-1,0.681-1.84,1.2-2.52,1.56c-1.44,0.76-2.45,1.569-3.03,2.43
	s-0.87,1.97-0.87,3.33c0,1.6,0.41,2.87,1.23,3.811c0.819,0.939,1.93,1.41,3.33,1.41C-974.625-79.996-973.455-80.507-972.595-81.526z
	"/>
<path d="M-960.025-96.257l2.82-3.3c1.52,1.32,2.96,2.291,4.32,2.91c1.359,0.621,2.799,0.93,4.319,0.93c1.96,0,3.51-0.429,4.65-1.29
	c1.14-0.859,1.71-2.049,1.71-3.569c0-0.92-0.23-1.659-0.69-2.221c-0.46-0.56-1.12-1.05-1.979-1.47c-0.86-0.42-2.29-1.029-4.29-1.83
	c-2.2-0.879-3.91-1.649-5.13-2.31c-1.221-0.66-2.19-1.5-2.91-2.521c-0.72-1.02-1.08-2.289-1.08-3.81c0-2.479,0.879-4.479,2.64-6
	c1.76-1.52,4.04-2.28,6.84-2.28c1.641,0,3.29,0.271,4.95,0.811c1.659,0.54,2.971,1.229,3.931,2.069l-2.101,3.54
	c-1.8-1.319-3.899-1.979-6.3-1.979c-1.521,0-2.73,0.311-3.63,0.93c-0.9,0.621-1.351,1.47-1.351,2.55c0,1.12,0.45,1.99,1.351,2.61
	c0.899,0.62,2.449,1.37,4.649,2.25c2.48,1,4.42,1.9,5.82,2.7c1.399,0.801,2.46,1.73,3.18,2.79c0.721,1.06,1.08,2.391,1.08,3.989
	c0,2.841-1.04,5.141-3.119,6.9c-2.081,1.761-4.761,2.64-8.04,2.64C-952.786-91.217-956.665-92.896-960.025-96.257z"/>
<path d="M-929.336-93.767c-1.42-1.699-2.13-4.069-2.13-7.109v-28.681h4.92v7.74h9.18v4.44h-9.18v16.5c0,1.439,0.3,2.649,0.9,3.63
	c0.6,0.98,1.479,1.47,2.64,1.47c1.159,0,2.14-0.33,2.94-0.99c0.799-0.66,1.419-1.55,1.859-2.67l3.84,2.46
	c-1.92,3.84-4.8,5.76-8.64,5.76C-925.807-91.217-927.917-92.065-929.336-93.767z"/>
<path d="M-891.807-122.236l-0.12,4.74c-1.601-0.44-2.901-0.66-3.9-0.66c-1.881,0-3.34,0.44-4.38,1.32c-1.2,0.96-2.24,2.24-3.12,3.84
	v21.239h-4.92v-21.239c0-3.12-0.84-5.4-2.521-6.84l3.301-3.061c0.6,0.36,1.209,0.9,1.83,1.62c0.619,0.72,1.129,1.54,1.529,2.46
	c0.88-1.119,1.779-1.98,2.7-2.58c1.52-0.96,3.34-1.439,5.46-1.439C-894.787-122.836-893.407-122.636-891.807-122.236z
	 M-909.747-134.896h5.76l4.38,4.86l4.38-4.86h5.82l-8.46,9.061h-3.479L-909.747-134.896z"/>
<path d="M-886.168-128.656c-0.64-0.64-0.96-1.359-0.96-2.16c0-0.84,0.32-1.58,0.96-2.22s1.359-0.96,2.16-0.96
	c0.84,0,1.59,0.32,2.25,0.96s0.99,1.38,0.99,2.22c0,0.801-0.33,1.521-0.99,2.16c-0.66,0.641-1.41,0.96-2.25,0.96
	C-884.809-127.696-885.528-128.016-886.168-128.656z M-881.067-96.047c0.279,0.301,0.64,0.45,1.08,0.45c0.639,0,1.14-0.359,1.5-1.08
	l3.54,2.221c-0.561,1.04-1.29,1.851-2.19,2.43c-0.899,0.579-1.95,0.87-3.149,0.87c-1.881,0-3.371-0.551-4.471-1.65
	c-1.101-1.1-1.649-2.609-1.649-4.529v-24.54h4.92v24.72C-881.487-96.716-881.348-96.347-881.067-96.047z"/>
<path d="M-856.408-117.316h-14.22v-4.62h22.02v1.8l-15.359,22.44l3.6,1.26c2.12,0.681,4.16,1.021,6.12,1.021
	c1.08,0,2.029-0.16,2.85-0.48c0.819-0.319,1.85-0.939,3.091-1.86l2.22,3.96c-1.48,1.121-2.82,1.911-4.021,2.37
	c-1.199,0.46-2.54,0.69-4.02,0.69c-2.241,0-4.721-0.42-7.44-1.26l-5.16-1.681l-2.579,3.721l-3.78-2.88L-856.408-117.316z
	 M-869.308-135.137h5.76l4.38,4.86l4.38-4.86h5.82l-8.46,9.061h-3.48L-869.308-135.137z"/>
<path d="M-835.528-135.496l0.061,17.34c0.68-1.359,1.859-2.5,3.539-3.42c1.681-0.92,3.36-1.38,5.04-1.38c1.84,0,3.5,0.42,4.98,1.26
	c1.479,0.84,2.64,1.99,3.479,3.45c0.841,1.46,1.261,3.11,1.261,4.949c0,2.121-0.501,3.911-1.5,5.37
	c-1.001,1.461-2.301,2.49-3.9,3.091l4.021,6.899c0.399,0.681,0.729,1.161,0.989,1.44c0.26,0.28,0.57,0.42,0.931,0.42
	c0.239,0,0.47-0.069,0.689-0.21c0.22-0.14,0.35-0.31,0.391-0.511l3.779,2.641c-0.4,0.88-1.07,1.601-2.01,2.16
	c-0.94,0.56-1.931,0.84-2.97,0.84c-1.08,0-2.061-0.261-2.94-0.78s-1.58-1.22-2.1-2.1l-5.34-9.36h-8.4v11.58h-4.8v-43.68H-835.528z
	 M-825.269-108.736c1.16-0.48,2.011-1.11,2.551-1.89c0.539-0.78,0.81-1.75,0.81-2.91c0-1.44-0.46-2.63-1.38-3.57
	c-0.921-0.939-2.16-1.41-3.72-1.41c-1.761,0-3.33,0.621-4.71,1.86c-1.381,1.24-2.391,3-3.03,5.28c-0.28,1-0.461,2.181-0.54,3.54
	h5.82C-828.108-107.836-826.708-108.137-825.269-108.736z"/>
<path d="M-797.188-76.547c-1.439-0.86-2.57-2.039-3.39-3.539c-0.82-1.5-1.229-3.171-1.229-5.011c0-1.4,0.289-2.7,0.869-3.899
	c0.58-1.2,1.37-2.141,2.37-2.82c-2.68-0.36-4.77-1.32-6.27-2.88c-1.5-1.561-2.25-3.52-2.25-5.88v-12.36
	c0-3.12-0.84-5.399-2.521-6.84l3.301-3.06c0.999,0.561,1.929,1.56,2.79,3c0.859,1.439,1.31,2.979,1.35,4.619v13.141
	c0,2.08,0.459,3.62,1.38,4.62c0.92,1,2.34,1.5,4.26,1.5c1.561,0,2.92-0.301,4.08-0.9s2.36-1.62,3.601-3.06
	c0.68-0.8,1.02-1.66,1.02-2.58l0.061-19.32h4.92l-0.061,21.3v14.7c0,3.12-0.891,5.66-2.67,7.62c-1.78,1.959-4.07,2.939-6.87,2.939
	C-794.168-75.257-795.748-75.687-797.188-76.547z M-788.998-81.526c0.859-1.021,1.29-2.37,1.29-4.05v-9.66
	c-0.761,1-1.74,1.9-2.94,2.7c-1,0.681-1.84,1.2-2.52,1.56c-1.44,0.76-2.45,1.569-3.03,2.43s-0.87,1.97-0.87,3.33
	c0,1.6,0.41,2.87,1.23,3.811c0.819,0.939,1.93,1.41,3.33,1.41C-791.028-79.996-789.858-80.507-788.998-81.526z"/>
<g>
	<path stroke="#000000" stroke-miterlimit="10" d="M244.356-196.308c-10.376,0-21.665-1.527-34.513-4.665
		c-1.06-0.261-2.398-1.903-2.516-3.084c-0.377-3.828-0.798-7.722-1.204-11.487l-0.015-0.137c-1.188-10.992-2.415-22.35-2.752-33.553
		c-0.661-21.954,10.287-37.837,31.66-45.932c3.803-1.44,7.103-3.21,9.807-5.26c5.26-3.984,10.955-6.004,16.927-6.004
		c3.902,0,8.005,0.862,12.194,2.566c10.169,4.136,18.168,7.832,25.173,11.633c7.892,4.28,12.583,11.834,14.763,23.771
		c0.669,3.664,0.911,7.461,1.146,11.135l0.005,0.072c0.104,1.636,0.212,3.328,0.359,5.009c1.598,11.159-3.81,19.42-9.534,28.166
		l-0.925,1.415c-5.227,8.022-11.927,13.487-22.404,18.271C270.625-198.952,258.138-196.308,244.356-196.308z M261.751-305.015
		c-5.656,0-11.063,1.924-16.073,5.717c-2.812,2.133-6.23,3.968-10.16,5.455c-20.755,7.861-31.387,23.272-30.746,44.567
		c0.335,11.147,1.559,22.479,2.744,33.437l0.015,0.144c0.407,3.769,0.828,7.664,1.206,11.499c0.061,0.616,0.999,1.74,1.444,1.85
		c12.735,3.111,23.914,4.623,34.176,4.623c13.574,0,25.868-2.602,37.583-7.953c10.215-4.666,16.737-9.978,21.807-17.759l0.927-1.417
		c5.574-8.516,10.84-16.56,9.313-27.229c-0.153-1.735-0.262-3.437-0.367-5.081l-0.004-0.06c-0.232-3.645-0.472-7.4-1.126-10.983
		c-2.098-11.481-6.561-18.72-14.046-22.781c-6.958-3.774-14.912-7.449-25.031-11.565
		C269.393-304.186,265.47-305.015,261.751-305.015z"/>
</g>
<g>
	<path stroke="#000000" stroke-miterlimit="10" d="M244.357-195.348c-10.455,0-21.819-1.535-34.742-4.693
		c-1.45-0.354-3.086-2.333-3.242-3.922c-0.375-3.803-0.793-7.671-1.197-11.411l-0.021-0.202c-1.191-11.023-2.419-22.395-2.757-33.63
		c-0.674-22.401,10.487-38.604,32.279-46.857c3.715-1.407,6.935-3.132,9.567-5.127c5.416-4.102,11.317-6.182,17.538-6.182
		c4.035,0,8.249,0.882,12.524,2.619c10.201,4.149,18.23,7.86,25.27,11.679c8.166,4.431,13.012,12.197,15.249,24.441
		c0.681,3.721,0.924,7.549,1.16,11.25c0.105,1.66,0.214,3.364,0.359,5.028c1.646,11.492-3.857,19.9-9.685,28.802l-0.924,1.416
		c-5.333,8.185-12.155,13.754-22.811,18.622C270.893-198.019,258.276-195.348,244.357-195.348z M261.782-305.957
		c-5.905,0-11.519,1.983-16.683,5.895c-2.743,2.076-6.081,3.868-9.922,5.322c-21.174,8.02-32.021,23.75-31.366,45.491
		c0.336,11.182,1.562,22.523,2.746,33.494l0.025,0.229c0.404,3.744,0.822,7.615,1.198,11.425c0.098,0.991,1.294,2.472,2.171,2.687
		c12.811,3.131,24.064,4.652,34.404,4.652h0.001c13.713,0,26.137-2.63,37.98-8.039c10.394-4.748,17.037-10.164,22.213-18.108
		l0.925-1.415c5.677-8.674,11.038-16.865,9.464-27.867c-0.151-1.72-0.261-3.432-0.366-5.089c-0.233-3.673-0.476-7.458-1.14-11.097
		c-2.153-11.79-6.771-19.242-14.532-23.453c-6.991-3.792-14.977-7.481-25.128-11.61
		C269.669-305.111,265.635-305.957,261.782-305.957z"/>
</g>
<g>
	<path stroke="#000000" stroke-miterlimit="10" d="M244.356-196.308c-10.376,0-21.665-1.527-34.513-4.665
		c-1.06-0.261-2.398-1.903-2.516-3.084c-0.375-3.804-0.793-7.673-1.196-11.414l-0.022-0.21c-1.188-10.986-2.415-22.347-2.752-33.553
		c-0.661-21.954,10.287-37.837,31.659-45.932c3.804-1.44,7.104-3.21,9.808-5.26c5.26-3.984,10.955-6.004,16.927-6.004
		c3.902,0,8.005,0.862,12.194,2.566c10.17,4.137,18.169,7.832,25.173,11.633c7.892,4.28,12.583,11.834,14.763,23.771
		c0.669,3.664,0.911,7.461,1.146,11.135l0.005,0.072c0.104,1.636,0.212,3.328,0.359,5.009c1.598,11.159-3.81,19.42-9.534,28.166
		l-0.925,1.415c-5.227,8.021-11.927,13.487-22.404,18.271C270.625-198.952,258.138-196.308,244.356-196.308z M261.751-305.015
		c-5.656,0-11.063,1.924-16.073,5.717c-2.812,2.133-6.23,3.968-10.16,5.455c-20.755,7.862-31.387,23.272-30.746,44.567
		c0.335,11.15,1.56,22.483,2.744,33.443l0.022,0.209c0.404,3.745,0.822,7.617,1.198,11.427c0.061,0.616,0.998,1.74,1.444,1.85
		c12.735,3.111,23.914,4.623,34.176,4.623c13.574,0,25.868-2.602,37.583-7.953c10.215-4.666,16.737-9.978,21.807-17.759l0.927-1.417
		c5.574-8.516,10.84-16.56,9.313-27.229c-0.153-1.735-0.262-3.437-0.367-5.081l-0.004-0.06c-0.232-3.645-0.472-7.4-1.126-10.983
		c-2.098-11.481-6.561-18.72-14.046-22.781c-6.958-3.774-14.911-7.449-25.031-11.565
		C269.393-304.186,265.47-305.015,261.751-305.015z"/>
</g>
<g>
	<path stroke="#000000" stroke-miterlimit="10" d="M244.356-195.348c-10.454,0-21.818-1.535-34.74-4.693
		c-1.449-0.354-3.087-2.332-3.243-3.922c-0.377-3.825-0.798-7.716-1.204-11.478l-0.015-0.136
		c-1.189-11.006-2.418-22.386-2.757-33.63c-0.675-22.401,10.487-38.604,32.279-46.857c3.716-1.407,6.935-3.132,9.567-5.127
		c5.416-4.102,11.317-6.182,17.538-6.182c4.035,0,8.249,0.882,12.523,2.619c10.201,4.149,18.231,7.86,25.271,11.679
		c8.166,4.431,13.012,12.197,15.249,24.441c0.681,3.721,0.924,7.548,1.16,11.25c0.104,1.646,0.211,3.335,0.36,5.028
		c1.645,11.491-3.858,19.899-9.685,28.801l-0.925,1.417c-5.333,8.185-12.155,13.754-22.811,18.622
		C270.893-198.019,258.276-195.348,244.356-195.348z M261.782-305.957c-5.905,0-11.519,1.983-16.684,5.895
		c-2.741,2.076-6.079,3.867-9.921,5.322c-21.174,8.02-32.021,23.75-31.366,45.491c0.337,11.189,1.563,22.541,2.749,33.52
		l0.015,0.137c0.407,3.766,0.827,7.659,1.206,11.491c0.098,0.991,1.294,2.472,2.171,2.687c12.811,3.131,24.064,4.652,34.404,4.652
		c13.713,0,26.137-2.63,37.981-8.039c10.394-4.748,17.037-10.164,22.213-18.108l0.925-1.415c5.678-8.675,11.038-16.866,9.464-27.867
		c-0.153-1.749-0.262-3.448-0.366-5.091c-0.233-3.671-0.476-7.456-1.14-11.095c-2.153-11.79-6.771-19.242-14.532-23.453
		c-6.992-3.792-14.977-7.482-25.128-11.61C269.668-305.111,265.634-305.957,261.782-305.957z"/>
</g>
<line fill="none" stroke="#000000" stroke-width="5" stroke-miterlimit="10" x1="-98.71" y1="-790.349" x2="-27.844" y2="-790.349"/>
<line fill="none" stroke="#000000" stroke-width="5" stroke-miterlimit="10" x1="-63.277" y1="-754.916" x2="-63.277" y2="-825.781"/>
<line fill="none" stroke="#000000" stroke-width="5" stroke-miterlimit="10" x1="233.488" y1="-223.306" x2="283.599" y2="-273.415"/>
<line fill="none" stroke="#000000" stroke-width="5" stroke-miterlimit="10" x1="283.598" y1="-223.306" x2="233.488" y2="-273.414"/>
<path d="M-351.783,67.662c-7.683-28.251-29.658-46.575-65.314-54.463c-10.21-2.257-20.66-4.229-30.767-6.136
	c-10.316-1.947-20.984-3.96-31.363-6.271c-10.588-2.355-36.985-3.938-65.688-3.938c-38.169,0-127.656,2.718-134.226,27.891
	c-3.508,13.439-2.39,27.276-1.309,40.658c0.219,2.702,0.437,5.402,0.617,8.103c0.048,0.673,0.16,1.308,0.276,1.895
	c1.208,6.112,2.582,10.439,9.302,10.439c1.578,0,3.513-0.211,6.681-0.729c4.336-0.711,7.81-0.917,10.801-0.656
	c2.076,0.184,4.449,1.446,6.512,2.616c2.193,1.244,4.387,2.607,6.508,3.927c3.718,2.311,7.563,4.701,11.69,6.641
	c2.314,1.086,8.674,1.49,12.138,1.49c2.129,0,3.733-0.128,4.77-0.381c0.202-0.049,0.837-0.164,2.353-0.164
	c6.401,0,19.592,1.951,24.558,2.686c0.921,0.136,1.589,0.234,1.922,0.278l0.318,0.042c4.555,0.6,10.223,1.346,15.568,1.346
	c7.531,0,12.674-1.51,15.724-4.614c5.2-5.297,11.491-8.097,18.192-8.097c8.739,0,15.825,4.539,18.71,8.757
	c4.302,6.287,38.188,6.462,38.528,6.462c5.517,0,6.232-0.399,6.753-0.69c2.892-1.612,4.501-1.98,6.058-2.336
	c2.05-0.469,4.17-0.953,7.983-3.685c5.016-3.595,9.851-4.252,15.562-2.141c2.92,1.08,6.046,1.605,9.556,1.605
	c3.112,0,6.229-0.405,9.242-0.798l0.906-0.117c1.887-0.242,3.967-0.355,6.548-0.355c1.651,0,3.357,0.046,5.006,0.091
	c1.592,0.042,3.183,0.085,4.765,0.091c1.372,0.005,2.745,0.025,4.119,0.047c1.589,0.023,3.179,0.048,4.765,0.048
	c5.906,0,12.231-0.303,18.462-2.5l0.361-0.127c1.074-0.376,2.293-0.802,3.379-1.487c1.732-1.09,3.446-2.23,5.104-3.334
	c2.895-1.927,5.887-3.919,8.965-5.621C-348.671,79.113-351.013,70.495-351.783,67.662z M-360.171,79.758
	c-3.257,1.801-6.337,3.851-9.315,5.834c-1.631,1.086-3.317,2.209-4.999,3.267c-0.608,0.384-1.46,0.682-2.362,0.997l-0.376,0.132
	c-5.521,1.946-11.336,2.215-16.798,2.215c-1.562,0-3.125-0.024-4.689-0.048c-1.393-0.021-2.786-0.042-4.177-0.047
	c-1.543-0.006-3.095-0.048-4.647-0.09c-1.682-0.045-3.422-0.092-5.141-0.092c-2.799,0-5.082,0.126-7.186,0.396l-0.914,0.118
	c-2.986,0.389-5.808,0.756-8.597,0.756c-2.948,0-5.433-0.411-7.821-1.295c-2.685-0.992-5.326-1.495-7.854-1.495
	c-4.313,0-8.354,1.394-12.354,4.261c-2.996,2.146-4.334,2.451-6.186,2.875c-1.683,0.384-3.768,0.86-7.146,2.715
	c-0.342,0.054-1.485,0.186-4.55,0.186c-14.658,0-32.367-2.236-34.401-4.286c-3.603-5.265-12.286-10.933-22.837-10.933
	c-8.074,0-15.599,3.317-21.761,9.593c-2.031,2.069-6.121,3.118-12.155,3.118c-5.019,0-10.506-0.723-14.915-1.303l-0.319-0.042
	c-0.319-0.042-0.959-0.137-1.843-0.268c-5.065-0.749-18.52-2.739-25.289-2.739c-1.534,0-2.69,0.101-3.536,0.307
	c-0.229,0.056-1.166,0.238-3.586,0.238c-4.551,0-9.141-0.607-10.013-1.017c-3.861-1.814-7.414-4.022-11.176-6.361
	c-2.163-1.345-4.399-2.734-6.681-4.029c-2.52-1.429-5.465-2.976-8.541-3.247c-3.425-0.299-7.287-0.078-12.047,0.702
	c-2.881,0.471-4.582,0.663-5.872,0.663c-2.342,0-3.13,0-4.396-6.406c-0.084-0.427-0.166-0.877-0.193-1.27
	c-0.182-2.716-0.401-5.438-0.622-8.164c-1.047-12.966-2.13-26.373,1.163-38.993c3.829-14.672,54.617-24.152,129.388-24.152
	c27.931,0,54.496,1.57,64.603,3.819c10.457,2.329,21.166,4.35,31.522,6.304c10.068,1.9,20.479,3.865,30.613,6.105
	c33.698,7.453,54.413,24.576,61.57,50.892C-355.129,74.417-356.161,77.541-360.171,79.758z"/>
<path d="M-214.581,9.907c-28.148,6.34-49.735,0.329-72.342,16.998c-14.678,10.823-18.498,22.728-29.101,35.389
	c-0.407,0.485-0.99,0.971-1.608,1.485c-0.336,0.279-0.672,0.559-0.991,0.847l-0.473,0.423l-1.367,3.954l0.854,1.021
	c4.559,5.442,11.288,7.672,17.788,9.488c9.234,2.578,10.675,4.979,19.804,7.301c6.12,1.557,6.452,3.166,12.65,4.813
	c2.048,0.545,4.109,1.158,6.155,1.799c1.849,0.576,3.686,1.175,5.491,1.763c1.723,0.563,3.446,0.122,5.227,0.682
	c0.187,0.083,0.532,0.23,0.995,0.292c6.425,0.841,12.273,0.157,18.464,2.609c3.942,1.563,8.021,1.179,12.257,2.374
	c3.426,0.969,6.901,2.053,10.262,3.102c5.002,1.56,10.178,1.175,15.387,2.472c1.169,0.291,2.323,0.57,3.467,0.843
	c0.287,0.068,0.57,0.132,0.855,0.199c0.893,0.21,1.78,0.414,2.657,0.612c0.259,0.058,0.514,0.115,0.771,0.172
	c0.97,0.217,1.93,0.425,2.882,0.626c0.133,0.027,0.265,0.057,0.398,0.085c5.794,1.217,11.277,2.17,16.559,2.875
	c0.048,0.006,0.097,0.014,0.145,0.02c1.037,0.139,2.066,0.268,3.088,0.388c0.021,0.002,0.041,0.005,0.062,0.007
	c1.024,0.118,2.044,0.229,3.053,0.329c0.226,0.024,0.446,0.042,0.67,0.063c0.693,0.065,1.387,0.13,2.073,0.187
	c0.496,0.042,0.987,0.078,1.479,0.115c0.406,0.029,0.81,0.06,1.213,0.087c0.563,0.038,1.124,0.073,1.685,0.105
	c0.332,0.019,0.666,0.035,0.998,0.053c0.571,0.029,1.142,0.059,1.709,0.079c0.073,0.004,0.145,0.008,0.216,0.012
	c0.111,0.004,0.223,0.005,0.335,0.008c1.084,0.04,2.164,0.068,3.237,0.086c0.288,0.005,0.574,0.011,0.862,0.013
	c1.227,0.014,2.447,0.017,3.658-0.001c10.544-0.149,20.892-1.192,30.763-5.074c16.888-6.645,28.873-9.104,36.642-21.912
	c1.632-2.689,4.684-4.896,7.919-7.232c1.543-1.116,3.141-2.27,4.604-3.503l0.52-0.438l4.889-14.27l-0.231-0.72
	c-0.429-1.329-0.964-2.646-1.483-3.922c-1.07-2.632-2.084-5.117-2.026-7.313c0.103-3.918-1.193-7.755-0.448-11.817
	c0.49-2.68,0.999-5.45,1.315-8.235c0.036-0.313,0.059-0.633,0.07-0.958c0.075-2.282-2.451-4.843-3.519-7.324
	c-0.833-1.938,0.633-3.835-48.316-12.61c-26.624-4.772-57.233-0.481-76.168-1.229 M-188.722,11.986
	c18.61,0.733,48.792-3.612,75.107,1.092c36.412,6.511,43.781,7.787,44.703,9.664c0.896,2.083,3.298,4.256,3.103,5.962
	c-0.298,2.633-0.793,5.325-1.27,7.931c-0.744,4.055,0.488,8.246,0.374,12.518c-0.08,3.147,1.163,6.201,2.366,9.155
	c0.225,0.551,0.438,1.083,0.645,1.611c0.068,0.172,0.129,0.338,0.192,0.508c0.099,0.267,0.19,0.527,0.282,0.789l-3.951,11.526
	c-0.368,0.302-0.744,0.6-1.131,0.896c-0.204,0.155-0.398,0.312-0.604,0.468c-0.67,0.498-1.357,0.995-2.064,1.507
	c-3.496,2.528-7.111,5.14-9.255,8.674c-7.183,11.845-18.351,13.624-34.14,19.837c-2.313,0.907-4.651,1.71-7.015,2.402
	c-7.09,2.08-14.39,2.184-21.79,2.289c-1.169,0.017-2.358,0.014-3.555,0c-0.249-0.002-0.501-0.007-0.752-0.011
	c-1.086-0.019-2.178-0.044-3.271-0.087c-0.118-0.004-0.235-0.007-0.354-0.012c-0.646-0.026-1.294-0.058-1.945-0.092
	c-0.202-0.012-0.406-0.021-0.611-0.033c-0.649-0.037-1.302-0.076-1.957-0.122c-0.229-0.015-0.461-0.033-0.691-0.05
	c-0.631-0.046-1.263-0.093-1.898-0.146c-0.327-0.029-0.659-0.06-0.987-0.091c-0.643-0.058-1.288-0.116-1.936-0.183
	c-0.809-0.084-1.625-0.171-2.443-0.266c-0.229-0.025-0.458-0.057-0.687-0.083c-0.777-0.094-1.557-0.191-2.342-0.296
	c-0.195-0.024-0.391-0.053-0.588-0.078c-0.861-0.118-1.727-0.241-2.602-0.371c-0.118-0.019-0.236-0.035-0.356-0.054
	c-4.127-0.625-8.392-1.4-12.83-2.333c-0.185-0.038-0.368-0.076-0.553-0.116c-0.88-0.187-1.77-0.38-2.663-0.579
	c-0.277-0.062-0.553-0.123-0.83-0.186c-0.836-0.189-1.68-0.383-2.528-0.583c-0.293-0.067-0.581-0.135-0.877-0.205
	c-1.115-0.265-2.237-0.538-3.375-0.82c-5.052-1.257-10.146-0.847-15.073-2.385c-3.395-1.06-6.905-2.154-10.406-3.144
	c-3.964-1.119-7.908-0.682-11.723-2.193c-6.142-2.433-12.491-1.947-19.478-2.911c-0.101-0.041-0.195-0.074-0.269-0.096
	c-1.759-0.551-3.509-0.123-5.262-0.692c-3.882-1.266-7.895-2.574-11.942-3.65c-6.228-1.654-6.572-3.268-12.708-4.827
	c-9.098-2.314-10.505-4.706-19.677-7.267c-0.62-0.173-1.24-0.351-1.86-0.533c-0.048-0.016-0.096-0.029-0.146-0.043
	c-0.596-0.178-1.19-0.363-1.779-0.556c-0.074-0.023-0.147-0.047-0.221-0.07c-0.578-0.19-1.151-0.391-1.717-0.6
	c-0.083-0.031-0.164-0.062-0.245-0.093c-0.562-0.211-1.115-0.434-1.659-0.669c-0.078-0.034-0.155-0.069-0.233-0.104
	c-0.549-0.241-1.087-0.496-1.611-0.767c-0.059-0.031-0.116-0.064-0.174-0.096c-0.54-0.283-1.069-0.584-1.577-0.907
	c-0.022-0.013-0.044-0.027-0.065-0.043c-0.513-0.328-1.008-0.676-1.482-1.049c-0.024-0.019-0.049-0.036-0.072-0.055
	c-0.462-0.366-0.9-0.759-1.32-1.172c-0.033-0.034-0.068-0.064-0.102-0.098l0.089-0.254c0.131-0.111,0.26-0.224,0.391-0.334
	c0.728-0.605,1.55-1.289,2.241-2.117c9.056-10.813,10.778-21.069,22.935-30.554c1.737-1.354,3.502-2.694,5.297-4.018
	c21.711-16.009,41.56-9.604,70.33-16.087"/>
<path stroke="#000000" stroke-miterlimit="10" d="M-1450.825-86.137c-5.799-9.148-12.279-18.051-18.546-26.658l-0.143-0.195
	c-3.083-4.238-6.272-8.62-9.332-12.969c-1.4-1.99-2.932-2.758-5.285-2.652c-2.871,0.131-5.804,0.153-8.648,0.176h-0.062
	c-2.229,0.018-4.534,0.036-6.808,0.107c-5.765,0.178-11.627,0.4-17.295,0.615l-0.176,0.006c-11.06,0.42-22.496,0.854-33.739,0.988
	c-22.767,0.27-45.139,3.4-64.021,6.428c-0.169,0.027-0.345,0.066-0.521,0.115c-1.45,0.403-2.956,1.512-3.579,2.635
	c-7.456,13.443-11.092,27.887-10.801,42.93c0.025,1.32,1.509,3.068,2.833,3.34l5.75,1.184c10.71,2.209,21.784,4.493,32.755,6.388
	c14.833,2.562,30.698,5.062,48.504,7.644c18.479,2.68,37.102,5.27,55.113,7.772l0.842,0.117c8.066,1.122,16.133,2.243,24.197,3.375
	c2.303,0.322,4.603,0.657,6.904,0.991l0.15,0.021c4.607,0.67,9.373,1.361,14.078,1.945c1.831,0.229,3.679,0.229,5.644,0.227
	l0.097,0.001c0.896-0.001,1.822,0,2.787,0.023l1.638,0.04l-0.534-1.539C-1434.905-59.989-1443.346-74.334-1450.825-86.137z
	 M-1431.704-43.859c-0.39-0.001-0.774-0.001-1.152-0.002l-0.146,0.001c-1.885-0.001-3.667,0-5.362-0.21
	c-4.734-0.588-9.537-1.287-14.183-1.961c-2.304-0.336-4.607-0.67-6.914-0.994c-8.089-1.135-16.181-2.26-24.273-3.385l-0.77-0.107
	c-18.06-2.51-36.733-5.106-55.099-7.77c-17.796-2.582-33.642-5.078-48.444-7.635c-10.976-1.895-22.063-4.182-32.784-6.395
	l-5.648-1.164c-0.312-0.078-0.997-0.868-1.034-1.182c-0.282-14.641,3.256-28.702,10.52-41.795c0.339-0.611,1.326-1.306,2.201-1.549
	c0.091-0.025,0.179-0.045,0.266-0.059c18.799-3.015,41.064-6.133,63.688-6.4c11.322-0.135,22.748-0.57,33.797-0.99l0.404-0.015
	c5.591-0.212,11.371-0.431,17.053-0.606c2.214-0.068,4.472-0.087,6.656-0.104l0.16-0.002c2.855-0.021,5.81-0.044,8.732-0.177
	c1.587-0.072,2.365,0.324,3.33,1.696c3.132,4.45,6.367,8.896,9.497,13.196c6.248,8.584,12.709,17.459,18.463,26.537
	C-1445.57-73.609-1437.489-59.912-1431.704-43.859z"/>
<g>
	<path stroke="#000000" stroke-miterlimit="10" d="M-1206.203-273.627c-10.376,0-21.665-1.527-34.513-4.665
		c-1.06-0.261-2.398-1.903-2.516-3.084c-0.377-3.828-0.798-7.722-1.204-11.487l-0.015-0.137c-1.188-10.992-2.415-22.35-2.752-33.553
		c-0.661-21.954,10.287-37.837,31.66-45.932c3.803-1.44,7.103-3.21,9.807-5.26c5.26-3.984,10.955-6.004,16.927-6.004
		c3.902,0,8.005,0.862,12.194,2.566c10.169,4.136,18.168,7.832,25.173,11.633c7.892,4.28,12.583,11.834,14.763,23.771
		c0.669,3.664,0.911,7.461,1.146,11.135l0.005,0.072c0.104,1.636,0.212,3.328,0.359,5.009c1.598,11.159-3.81,19.42-9.534,28.166
		l-0.925,1.415c-5.227,8.022-11.927,13.487-22.404,18.271C-1179.935-276.271-1192.422-273.627-1206.203-273.627z M-1188.809-382.334
		c-5.656,0-11.063,1.924-16.073,5.717c-2.812,2.133-6.23,3.968-10.16,5.455c-20.755,7.861-31.387,23.272-30.746,44.567
		c0.335,11.147,1.559,22.479,2.744,33.437l0.015,0.144c0.407,3.769,0.828,7.664,1.206,11.499c0.061,0.616,0.999,1.74,1.444,1.85
		c12.735,3.111,23.914,4.623,34.176,4.623c13.574,0,25.868-2.602,37.583-7.953c10.215-4.666,16.737-9.978,21.807-17.759l0.927-1.417
		c5.574-8.516,10.84-16.56,9.313-27.229c-0.153-1.735-0.262-3.437-0.367-5.081l-0.004-0.06c-0.232-3.645-0.472-7.4-1.126-10.983
		c-2.098-11.481-6.561-18.72-14.046-22.781c-6.958-3.774-14.912-7.449-25.031-11.565
		C-1181.167-381.505-1185.09-382.334-1188.809-382.334z"/>
</g>
<g>
	<path stroke="#000000" stroke-miterlimit="10" d="M-1206.202-272.667c-10.455,0-21.819-1.535-34.742-4.693
		c-1.45-0.354-3.086-2.333-3.242-3.922c-0.375-3.803-0.793-7.671-1.197-11.411l-0.021-0.202c-1.191-11.023-2.419-22.395-2.757-33.63
		c-0.674-22.401,10.487-38.604,32.279-46.857c3.715-1.407,6.935-3.132,9.567-5.127c5.416-4.102,11.317-6.182,17.538-6.182
		c4.035,0,8.249,0.882,12.524,2.619c10.201,4.149,18.23,7.86,25.27,11.679c8.166,4.431,13.012,12.197,15.249,24.441
		c0.681,3.721,0.924,7.549,1.16,11.25c0.105,1.66,0.214,3.364,0.359,5.028c1.646,11.492-3.857,19.9-9.685,28.802l-0.924,1.416
		c-5.333,8.185-12.155,13.754-22.811,18.622C-1179.667-275.338-1192.283-272.667-1206.202-272.667z M-1188.777-383.276
		c-5.905,0-11.519,1.983-16.683,5.895c-2.743,2.076-6.081,3.868-9.922,5.322c-21.174,8.02-32.021,23.75-31.366,45.491
		c0.336,11.182,1.562,22.523,2.746,33.494l0.025,0.229c0.404,3.744,0.822,7.615,1.198,11.425c0.098,0.991,1.294,2.472,2.171,2.687
		c12.811,3.131,24.064,4.652,34.404,4.652h0.001c13.713,0,26.137-2.63,37.98-8.039c10.394-4.748,17.037-10.164,22.213-18.108
		l0.925-1.415c5.677-8.674,11.038-16.865,9.464-27.867c-0.151-1.72-0.261-3.432-0.366-5.089c-0.233-3.673-0.476-7.458-1.14-11.097
		c-2.153-11.79-6.771-19.242-14.532-23.453c-6.991-3.792-14.977-7.481-25.128-11.61
		C-1180.891-382.431-1184.925-383.276-1188.777-383.276z"/>
</g>
<g>
	<path stroke="#000000" stroke-miterlimit="10" d="M-1206.203-273.627c-10.376,0-21.665-1.527-34.513-4.665
		c-1.06-0.261-2.398-1.903-2.516-3.084c-0.375-3.804-0.793-7.673-1.196-11.414l-0.022-0.21c-1.188-10.986-2.415-22.347-2.752-33.553
		c-0.661-21.954,10.287-37.837,31.659-45.932c3.804-1.44,7.104-3.21,9.808-5.26c5.26-3.984,10.955-6.004,16.927-6.004
		c3.902,0,8.005,0.862,12.194,2.566c10.17,4.137,18.169,7.832,25.173,11.633c7.892,4.28,12.583,11.834,14.763,23.771
		c0.669,3.664,0.911,7.461,1.146,11.135l0.005,0.072c0.104,1.636,0.212,3.328,0.359,5.009c1.598,11.159-3.81,19.42-9.534,28.166
		l-0.925,1.415c-5.227,8.021-11.927,13.487-22.404,18.271C-1179.935-276.271-1192.422-273.627-1206.203-273.627z M-1188.809-382.334
		c-5.656,0-11.063,1.924-16.073,5.717c-2.812,2.133-6.23,3.968-10.16,5.455c-20.755,7.862-31.387,23.272-30.746,44.567
		c0.335,11.15,1.56,22.483,2.744,33.443l0.022,0.209c0.404,3.745,0.822,7.617,1.198,11.427c0.061,0.616,0.998,1.74,1.444,1.85
		c12.735,3.111,23.914,4.623,34.176,4.623c13.574,0,25.868-2.602,37.583-7.953c10.215-4.666,16.737-9.978,21.807-17.759l0.927-1.417
		c5.574-8.516,10.84-16.56,9.313-27.229c-0.153-1.735-0.262-3.437-0.367-5.081l-0.004-0.06c-0.232-3.645-0.472-7.4-1.126-10.983
		c-2.098-11.481-6.561-18.72-14.046-22.781c-6.958-3.774-14.911-7.449-25.031-11.565
		C-1181.167-381.505-1185.09-382.334-1188.809-382.334z"/>
</g>
<g>
	<path stroke="#000000" stroke-miterlimit="10" d="M-1206.203-272.667c-10.454,0-21.818-1.535-34.74-4.693
		c-1.449-0.354-3.087-2.332-3.243-3.922c-0.377-3.825-0.798-7.716-1.204-11.478l-0.015-0.136
		c-1.189-11.006-2.418-22.386-2.757-33.63c-0.675-22.401,10.487-38.604,32.279-46.857c3.716-1.407,6.935-3.132,9.567-5.127
		c5.416-4.102,11.317-6.182,17.538-6.182c4.035,0,8.249,0.882,12.523,2.619c10.201,4.149,18.231,7.86,25.271,11.679
		c8.166,4.431,13.012,12.197,15.249,24.441c0.681,3.721,0.924,7.548,1.16,11.25c0.104,1.646,0.211,3.335,0.36,5.028
		c1.645,11.491-3.858,19.899-9.685,28.801l-0.925,1.417c-5.333,8.185-12.155,13.754-22.811,18.622
		C-1179.667-275.338-1192.283-272.667-1206.203-272.667z M-1188.777-383.276c-5.905,0-11.519,1.983-16.684,5.895
		c-2.741,2.076-6.079,3.867-9.921,5.322c-21.174,8.02-32.021,23.75-31.366,45.491c0.337,11.189,1.563,22.541,2.749,33.52
		l0.015,0.137c0.407,3.766,0.827,7.659,1.206,11.491c0.098,0.991,1.294,2.472,2.171,2.687c12.811,3.131,24.064,4.652,34.404,4.652
		c13.713,0,26.137-2.63,37.981-8.039c10.394-4.748,17.037-10.164,22.213-18.108l0.925-1.415c5.678-8.675,11.038-16.866,9.464-27.867
		c-0.153-1.749-0.262-3.448-0.366-5.091c-0.233-3.671-0.476-7.456-1.14-11.095c-2.153-11.79-6.771-19.242-14.532-23.453
		c-6.992-3.792-14.977-7.482-25.128-11.61C-1180.892-382.431-1184.926-383.276-1188.777-383.276z"/>
</g>
<line fill="none" stroke="#000000" stroke-width="5" stroke-miterlimit="10" x1="-1217.071" y1="-300.625" x2="-1166.961" y2="-350.734"/>
<line fill="none" stroke="#000000" stroke-width="5" stroke-miterlimit="10" x1="-1166.962" y1="-300.625" x2="-1217.071" y2="-350.733"/>
<path fill-rule="evenodd" clip-rule="evenodd" fill="none" stroke="#000000" stroke-miterlimit="10" d="M-1630.142-247.744
	c-1.279,0-2.559,0-3.838,0c-1.654-0.254-3.33-0.412-4.959-0.778c-6.456-1.453-12.867-3.126-19.352-4.435
	c-14.85-2.995-29.699-6.006-44.611-8.66c-10.754-1.915-21.65-3.026-32.408-4.924c-17.037-3.006-29.398-11.914-34.49-29.105
	c-0.848-2.863-1.102-6.074,1.976-8.396c2.446-1.846,4.646-4.02,6.985-6.013c0.471-0.401,1.061-0.677,1.621-0.959
	c4.277-2.155,8.954-2.099,13.56-2.446c2.86-0.216,5.792-0.157,8.559-0.799c3.208-0.743,6.265-1.555,9.549-0.424
	c3.452,1.188,6.39,0.425,9.118-2.207c3.099-2.989,6.5-5.686,9.932-8.297c1.006-0.766,2.652-1.303,3.852-1.087
	c3.26,0.587,6.408,1.77,9.658,2.447c2.139,0.446,4.434,0.84,6.555,0.536c5.511-0.79,10.963-1.984,16.44-3.008
	c7.382-1.377,14.278-0.646,20.257,4.472c1.066,0.911,2.565,1.304,3.684,2.17c1.918,1.485,3.976,1.151,5.904,0.469
	c2.447-0.865,4.707-2.253,7.145-3.156c1.475-0.548,3.445-1.296,4.646-0.75c3.361,1.531,6.404,3.747,9.643,5.568
	c1.227,0.69,2.635,1.425,3.975,1.456c1.947,0.044,3.957-0.355,5.855-0.876c5.086-1.392,5.846-1.005,7.025,4.114
	c0.072,0.312,0.139,0.627,0.176,0.943c1.113,9.598,2.443,19.195,1.361,28.885c-0.988,8.828-4.061,16.885-9.605,23.881
	C-1616.632-253.19-1622.429-248.91-1630.142-247.744z"/>
<g>
	<path fill-rule="evenodd" clip-rule="evenodd" fill="none" stroke="#000000" stroke-miterlimit="10" d="M-1356.976-200.877
		c-0.479,0-0.959,0-1.439,0c-0.693-0.326-1.361-0.732-2.086-0.965c-9.82-3.15-19.166-7.436-28.035-12.618
		c-15.467-9.04-28.465-20.937-38.84-35.558c-6.012-8.469-11.102-17.506-14.279-27.459c-1.734-5.438-3.074-11.004-4.592-16.513
		c0-4.479,0-8.959,0-13.438c0.145-0.279,0.355-0.543,0.426-0.84c1.689-7.156,5.723-12.73,11.621-16.977
		c1.191-0.857,2.65-1.57,4.08-1.827c4.246-0.763,8.625-0.935,12.785-1.995c2.369-0.604,4.414-2.49,6.605-3.799
		c2.879,0,5.758,0,8.639,0c3.07,1.551,5.994,3.912,9.238,4.5c9.283,1.681,16.797,6.1,23.318,12.697
		c3.928,3.976,6.984,8.523,8.98,13.646c3.293,8.453,4.652,17.378,5.18,26.396c0.27,4.597-0.016,9.224,0.078,13.835
		c0.115,5.672-1.572,11.293-0.434,16.987c0.016,0.075-0.018,0.158-0.018,0.238c-0.045,3.098-0.227,6.2-0.105,9.291
		c0.326,8.286,0.918,16.563,1.115,24.851C-1354.659-207.146-1354.761-203.711-1356.976-200.877z"/>
	<path fill-rule="evenodd" clip-rule="evenodd" fill="none" stroke="#000000" stroke-miterlimit="10" d="M-1446.247-293.989
		c1.518,5.509,2.857,11.074,4.592,16.513c3.178,9.953,8.268,18.99,14.279,27.459c10.375,14.621,23.373,26.518,38.84,35.558
		c8.869,5.183,18.215,9.468,28.035,12.618c0.725,0.232,1.393,0.639,2.086,0.965"/>
	<path fill-rule="evenodd" clip-rule="evenodd" fill="none" stroke="#000000" stroke-miterlimit="10" d="M-1356.976-200.877
		c2.215-2.834,2.316-6.27,2.238-9.547c-0.197-8.288-0.789-16.564-1.115-24.851c-0.121-3.091,0.061-6.193,0.105-9.291
		c0-0.08,0.033-0.163,0.018-0.238c-1.139-5.694,0.549-11.315,0.434-16.987c-0.094-4.611,0.191-9.238-0.078-13.835
		c-0.527-9.018-1.887-17.942-5.18-26.396c-1.996-5.123-5.053-9.671-8.98-13.646c-6.521-6.598-14.035-11.017-23.318-12.697
		c-3.244-0.588-6.168-2.949-9.238-4.5"/>
	<path fill-rule="evenodd" clip-rule="evenodd" fill="none" stroke="#000000" stroke-miterlimit="10" d="M-1410.729-332.865
		c-2.191,1.309-4.236,3.195-6.605,3.799c-4.16,1.061-8.539,1.232-12.785,1.995c-1.43,0.257-2.889,0.97-4.08,1.827
		c-5.898,4.246-9.932,9.82-11.621,16.977c-0.07,0.297-0.281,0.561-0.426,0.84"/>
</g>
</svg>
